<?xml version="1.0" encoding="UTF-8"?><svg id="Laag_1" xmlns="http://www.w3.org/2000/svg" viewBox="0 0 308.36 92.36"><polygon points="44.74 88.91 89.42 88.91 44.74 44.55 44.74 88.91" style="fill:#03a3b0;"/><path d="m22.26,44.51C9.98,44.51,0,34.53,0,22.26S9.98,0,22.26,0s22.26,9.98,22.26,22.26c0,.13,0,.25,0,.37v.07s-9.34-.17-9.34-.17v-.29c0-7.11-5.79-12.9-12.91-12.9s-12.92,5.79-12.92,12.92,5.79,12.92,12.92,12.92v9.34Z" style="fill:#0a73c2;"/><path d="m22.26,89.06c-12.27,0-22.26-9.98-22.26-22.26,0-.13,0-.26,0-.39v-.08s9.34.2,9.34.2v.28c0,7.11,5.79,12.9,12.91,12.9s12.92-5.79,12.92-12.92-5.79-12.92-12.92-12.92v-9.34c12.27,0,22.26,9.98,22.26,22.26s-9.98,22.26-22.26,22.26" style="fill:#faa34f;"/><path d="m44.74.45v44.06c13.86-.39,24.96-10.1,24.96-22.03S58.6.84,44.74.45" style="fill:#a3529e;"/><path d="m107.4,30.77c.43,1.62,1.64,2.48,3.49,2.48s2.86-1.06,2.86-2.68c0-1.77-1.34-2.2-3.21-3.11-3.21-1.57-4.98-2.78-4.98-5.51,0-2.91,2.15-4.95,5.43-4.95,2.68,0,4.52,1.09,5.21,2.98l-2.3,1.19c-.71-1.11-1.54-1.64-2.68-1.64-1.59,0-2.58.91-2.58,2.27,0,1.74,1.42,2.27,3.44,3.21,3.18,1.47,4.67,2.75,4.67,5.36,0,3.36-2.25,5.58-5.99,5.58-3.08,0-5.1-1.47-5.71-4.09l2.35-1.09Z" style="fill:#3c3c3b;"/><path d="m126.52,35.47h-2.93v-15.57h-4.8v-2.5h12.51v2.5h-4.78v15.57Z" style="fill:#3c3c3b;"/><path d="m134.1,17.41h2.93v18.07h-2.93v-18.07Z" style="fill:#3c3c3b;"/><path d="m150.7,19.68c-3.97,0-6.67,2.81-6.67,6.82s2.75,6.72,6.37,6.72c2.15,0,4.07-.76,5.84-2.27v3.31c-1.59,1.14-3.44,1.69-5.61,1.69-2.78,0-5.15-.93-6.92-2.68-1.77-1.74-2.73-4.17-2.73-6.8s.96-5.03,2.75-6.8c1.79-1.77,4.14-2.7,6.85-2.7,2.17,0,4.07.63,5.84,1.87l-.15,2.96c-1.67-1.42-3.51-2.12-5.56-2.12Z" style="fill:#3c3c3b;"/><path d="m160.48,17.41h2.93v6.67h8.89v-6.67h2.93v18.07h-2.93v-8.77h-8.89v8.77h-2.93v-18.07Z" style="fill:#3c3c3b;"/><path d="m185.76,35.47h-2.93v-15.57h-4.8v-2.5h12.51v2.5h-4.78v15.57Z" style="fill:#3c3c3b;"/><path d="m193.34,17.41h2.93v18.07h-2.93v-18.07Z" style="fill:#3c3c3b;"/><path d="m201.07,16.7l11.47,11.04c.73.71,1.36,1.44,1.97,2.2v-12.53h2.7v18.77l-11.7-11.24c-.66-.63-1.24-1.31-1.74-2.02v12.56h-2.7v-18.77Z" style="fill:#3c3c3b;"/><path d="m239.13,26.23c.02.73.05,1.29.05,1.69,0,5.13-3.08,8.04-8.34,8.04-2.96,0-5.26-.86-7-2.63-1.72-1.74-2.65-4.17-2.65-6.85s.94-5.05,2.75-6.82c1.77-1.72,4.19-2.65,6.9-2.65,2.85,0,5.08,1.04,6.82,3.16l-2.15,1.62c-1.21-1.42-2.73-2.1-4.62-2.1-3.87,0-6.65,2.7-6.65,6.77s2.75,6.87,6.67,6.87c3.39,0,5.41-1.69,5.41-4.37v-.25h-4.35v-2.48h7.15Z" style="fill:#3c3c3b;"/><path d="m107.4,61.09c.43,1.62,1.64,2.48,3.49,2.48s2.86-1.06,2.86-2.68c0-1.77-1.34-2.2-3.21-3.11-3.21-1.57-4.98-2.78-4.98-5.51,0-2.91,2.15-4.95,5.43-4.95,2.68,0,4.52,1.09,5.21,2.98l-2.3,1.19c-.71-1.11-1.54-1.64-2.68-1.64-1.59,0-2.58.91-2.58,2.27,0,1.74,1.42,2.27,3.44,3.21,3.18,1.47,4.67,2.75,4.67,5.36,0,3.36-2.25,5.58-5.99,5.58-3.08,0-5.1-1.47-5.71-4.09l2.35-1.09Z" style="fill:#3c3c3b;"/><path d="m121.19,47.73l3.41,9.12c.35.96.68,1.9.96,2.85.53-1.74.88-2.73.99-3.03l3.64-9.65,3.82,9.83c.33.86.66,1.82.96,2.88.2-.86.51-1.77.88-2.8l3.39-9.2h2.93l-7,18.77-4.12-10.31c-.35-.88-.66-1.74-.88-2.53-.25.88-.53,1.74-.86,2.58l-4.04,10.26-6.97-18.77h2.91Z" style="fill:#3c3c3b;"/><path d="m153.32,61.14h-7.15l-2.1,4.65h-3.08l8.74-18.77,8.74,18.77h-3.11l-2.05-4.65Zm-1.04-2.45l-1.84-4.12c-.2-.48-.43-1.14-.68-2.05-.23.91-.46,1.57-.66,2.05l-1.84,4.12h5.03Z" style="fill:#3c3c3b;"/><path d="m161,47.73h2.93v15.44h6.57v2.63h-9.5v-18.07Z" style="fill:#3c3c3b;"/><path d="m188.63,54.4c-.15.86-.43,1.67-.83,2.5l-4.73,9.63-4.73-9.83c-.35-.73-.66-1.49-.88-2.3-.03.86-.15,1.69-.33,2.5l-1.95,8.89h-2.7l4.27-18.77,5.33,11.35c.15.33.48,1.14.99,2.45.35-1.01.76-1.82,1.04-2.45l5.21-11.35,4.37,18.77h-2.73l-2-8.92c-.08-.33-.15-1.14-.33-2.48Z" style="fill:#3c3c3b;"/><path d="m214.56,64.08c-1.69,1.47-3.44,2.15-5.58,2.15-3.39,0-5.61-2.2-5.61-5.15,0-2.15,1.34-3.79,4.02-5.46l-.73-.78c-.81-.88-1.24-1.95-1.24-3.01,0-2.32,1.87-4.07,4.65-4.07s4.42,1.54,4.42,3.82c0,1.84-1.16,3.21-3.51,4.57l3.77,4.37c.81-.81,1.57-1.77,2.32-2.83l1.72,1.84c-.68,1.09-1.49,2.02-2.4,2.83l3.03,3.44h-3.39l-1.47-1.72Zm-5.61-6.47l-.45.3c-1.49.96-2.32,1.79-2.32,3.08,0,1.57,1.24,2.86,2.93,2.86,1.21,0,2.48-.56,3.79-1.69l-3.94-4.55Zm1.36-3.71c.94-.56,1.39-1.26,1.39-2.15,0-1.04-.71-1.74-1.69-1.74-1.11,0-1.84.73-1.84,1.77,0,.51.2.99.58,1.42l.91,1.09.66-.38Z" style="fill:#3c3c3b;"/><path d="m233.02,65.79h-2.75v-18.07h4.09c1.95,0,3.39.15,4.5,1.01,1.09.86,1.74,2.27,1.74,3.97,0,2.91-1.42,4.55-4.14,4.88l6.22,8.21h-3.31l-6.01-8.09h-.33v8.09Zm.71-10.36c2.58,0,3.87-.3,3.87-2.48s-1.24-2.7-3.87-2.7h-.53v5.18h.53Z" style="fill:#3c3c3b;"/><path d="m260.34,63.49c-1.84,1.79-4.25,2.78-6.82,2.78s-5.03-.99-6.85-2.78c-1.84-1.79-2.81-4.12-2.81-6.7s.96-4.9,2.81-6.72c1.84-1.79,4.25-2.75,6.85-2.75s4.98.96,6.82,2.75c1.84,1.82,2.83,4.17,2.83,6.72s-.99,4.9-2.83,6.7Zm-2.17-11.5c-1.24-1.29-2.91-1.97-4.65-1.97s-3.41.68-4.67,1.97c-1.26,1.29-1.92,2.98-1.92,4.8s.66,3.49,1.92,4.78,2.91,1.97,4.67,1.97,3.39-.68,4.65-1.97,1.95-2.96,1.95-4.78-.68-3.51-1.95-4.8Z" style="fill:#3c3c3b;"/><path d="m267.09,47.73h10.08v2.5h-7.15v4.52h7.15v2.58h-7.15v5.84h7.15v2.63h-10.08v-18.07Z" style="fill:#3c3c3b;"/><path d="m284.08,65.79h-2.75v-18.07h4.09c1.95,0,3.39.15,4.5,1.01,1.09.86,1.74,2.27,1.74,3.97,0,2.91-1.42,4.55-4.14,4.88l6.22,8.21h-3.31l-6.01-8.09h-.33v8.09Zm.71-10.36c2.58,0,3.87-.3,3.87-2.48s-1.24-2.7-3.87-2.7h-.53v5.18h.53Z" style="fill:#3c3c3b;"/><path d="m108.45,88.76h-1.4l-2.85-7.71h1.36l2.22,6.18,2.15-6.18h1.31l-2.79,7.71Z" style="fill:#3c3c3b;"/><path d="m118.15,88.06c-.56.55-1.36.9-2.33.9s-1.77-.35-2.33-.9c-.84-.82-1.1-1.93-1.1-3.15s.26-2.33,1.1-3.15c.56-.55,1.35-.9,2.33-.9s1.77.35,2.33.9c.84.82,1.1,1.93,1.1,3.15s-.26,2.33-1.1,3.15Zm-.94-5.54c-.32-.32-.78-.55-1.39-.55s-1.07.23-1.39.55c-.55.56-.72,1.49-.72,2.39s.17,1.83.72,2.39c.32.32.78.55,1.39.55s1.07-.23,1.39-.55c.55-.56.72-1.49.72-2.39s-.17-1.83-.72-2.39Z" style="fill:#3c3c3b;"/><path d="m126.94,88.06c-.56.55-1.36.9-2.33.9s-1.77-.35-2.33-.9c-.84-.82-1.1-1.93-1.1-3.15s.26-2.33,1.1-3.15c.56-.55,1.35-.9,2.33-.9s1.77.35,2.33.9c.84.82,1.1,1.93,1.1,3.15s-.26,2.33-1.1,3.15Zm-.94-5.54c-.32-.32-.78-.55-1.39-.55s-1.07.23-1.39.55c-.55.56-.72,1.49-.72,2.39s.17,1.83.72,2.39c.32.32.78.55,1.39.55s1.07-.23,1.39-.55c.55-.56.72-1.49.72-2.39s-.17-1.83-.72-2.39Z" style="fill:#3c3c3b;"/><path d="m133.89,82.26c-.61,0-1.11.27-1.46.61-.62.59-.7,1.66-.7,2.47v3.43h-1.28v-7.71h1.14l.11,1.36c.4-.94,1.32-1.4,2.3-1.4.2,0,.41.02.61.05v1.26c-.23-.05-.49-.06-.72-.06Z" style="fill:#3c3c3b;"/><path d="m145.57,88.06c-.56.55-1.36.9-2.33.9s-1.77-.35-2.33-.9c-.84-.82-1.1-1.93-1.1-3.15s.26-2.33,1.1-3.15c.56-.55,1.35-.9,2.33-.9s1.77.35,2.33.9c.84.82,1.1,1.93,1.1,3.15s-.26,2.33-1.1,3.15Zm-.94-5.54c-.32-.32-.78-.55-1.39-.55s-1.07.23-1.39.55c-.55.56-.72,1.49-.72,2.39s.17,1.83.72,2.39c.32.32.78.55,1.39.55s1.07-.23,1.39-.55c.55-.56.72-1.49.72-2.39s-.17-1.83-.72-2.39Z" style="fill:#3c3c3b;"/><path d="m154.01,88.76v-4.89c0-1.16-.47-1.84-1.69-1.84-.75,0-1.34.49-1.67,1.19-.26.56-.27,1.37-.27,1.96v3.58h-1.29v-7.71h1.13l.11,1.16c.4-.88,1.46-1.35,2.33-1.35,1.75,0,2.67,1.05,2.67,2.83v5.07h-1.29Z" style="fill:#3c3c3b;"/><path d="m163.28,88.76l-.09-1c-.44.78-1.43,1.2-2.3,1.2-.94,0-1.68-.32-2.18-.84-.73-.75-1.11-1.92-1.11-3.2s.4-2.54,1.17-3.29c.5-.47,1.22-.78,2.12-.78.84,0,1.83.4,2.24,1.1v-4.19h1.29v10.99h-1.14Zm-.93-6.3c-.3-.27-.69-.5-1.25-.5-1.72,0-2.18,1.54-2.18,2.95s.46,2.95,2.18,2.95c.56,0,.94-.23,1.25-.5.64-.56.85-1.49.85-2.45s-.21-1.89-.85-2.45Z" style="fill:#3c3c3b;"/><path d="m173.61,85.34h-5.45c0,.7.27,1.46.75,1.93.35.35.82.55,1.42.55s1.11-.17,1.43-.5c.21-.21.35-.43.46-.84h1.26c-.11.76-.56,1.48-1.19,1.9-.55.37-1.23.58-1.96.58-1.08,0-1.96-.46-2.56-1.16-.64-.75-.96-1.77-.96-2.86,0-.93.17-1.75.59-2.47.55-.93,1.57-1.61,2.91-1.61.99,0,1.78.38,2.35.99.62.69.99,1.68.97,2.71l-.02.78Zm-1.78-2.68c-.32-.43-.84-.7-1.52-.7-1.4,0-2.09,1.14-2.12,2.27h4.11c0-.58-.17-1.16-.47-1.57Z" style="fill:#3c3c3b;"/><path d="m179.44,82.26c-.61,0-1.11.27-1.46.61-.62.59-.7,1.66-.7,2.47v3.43h-1.28v-7.71h1.14l.11,1.36c.4-.94,1.32-1.4,2.3-1.4.2,0,.41.02.61.05v1.26c-.23-.05-.49-.06-.72-.06Z" style="fill:#3c3c3b;"/><path d="m190.21,88.76h-1.25l-2.01-5.89-2.06,5.89h-1.23l-1.98-7.71h1.28l1.48,5.82,1.96-5.73h1.11l1.93,5.73,1.49-5.82h1.26l-2,7.71Z" style="fill:#3c3c3b;"/><path d="m194.24,79.29v-1.52h1.51v1.52h-1.51Zm.09,9.47v-7.71h1.33v7.71h-1.33Z" style="fill:#3c3c3b;"/><path d="m197.8,92.02c-.4,0-.62-.03-1.01-.15v-1.11c.32.06.64.08.96.08.58,0,.87-.46.87-.97v-8.8h1.29v8.79c0,1.34-.65,2.18-2.12,2.18Zm.7-12.73v-1.52h1.51v1.52h-1.51Z" style="fill:#3c3c3b;"/><path d="m207.96,88.09c-.59.61-1.51.87-2.51.87s-1.84-.23-2.5-.87c-.47-.46-.75-1.11-.75-1.77h1.29c.02.53.26.93.62,1.2.35.26.9.35,1.39.35.53,0,1.02-.09,1.42-.43.21-.17.38-.49.38-.84,0-.58-.41-.99-1.2-1.1-.33-.05-1.2-.15-1.74-.23-1.16-.18-1.89-.9-1.89-2.07,0-.59.29-1.16.64-1.51.5-.52,1.31-.85,2.27-.85,1.02,0,1.93.32,2.45.97.33.41.55.85.55,1.48h-1.29c-.02-.4-.21-.76-.44-.96-.32-.29-.75-.41-1.26-.41-.3,0-.53,0-.9.15-.49.2-.78.61-.78,1.04,0,.64.4.91,1.04,1,.43.06,1.04.12,1.86.26,1.1.18,1.96.97,1.96,2.13,0,.67-.24,1.19-.61,1.57Z" style="fill:#3c3c3b;"/><path d="m221.1,85.34h-5.45c0,.7.27,1.46.75,1.93.35.35.82.55,1.42.55s1.11-.17,1.43-.5c.21-.21.35-.43.46-.84h1.26c-.11.76-.56,1.48-1.19,1.9-.55.37-1.23.58-1.96.58-1.08,0-1.96-.46-2.56-1.16-.64-.75-.96-1.77-.96-2.86,0-.93.17-1.75.59-2.47.55-.93,1.57-1.61,2.91-1.61.99,0,1.78.38,2.35.99.62.69.99,1.68.97,2.71l-.02.78Zm-1.78-2.68c-.32-.43-.84-.7-1.52-.7-1.4,0-2.09,1.14-2.12,2.27h4.11c0-.58-.17-1.16-.47-1.57Z" style="fill:#3c3c3b;"/><path d="m228.42,88.76v-4.89c0-1.16-.47-1.84-1.69-1.84-.75,0-1.34.49-1.67,1.19-.26.56-.27,1.37-.27,1.96v3.58h-1.29v-7.71h1.13l.11,1.16c.4-.88,1.46-1.35,2.33-1.35,1.75,0,2.67,1.05,2.67,2.83v5.07h-1.29Z" style="fill:#3c3c3b;"/><path d="m241.67,88.06c-.56.55-1.36.9-2.33.9s-1.77-.35-2.33-.9c-.84-.82-1.1-1.93-1.1-3.15s.26-2.33,1.1-3.15c.56-.55,1.35-.9,2.33-.9s1.77.35,2.33.9c.84.82,1.1,1.93,1.1,3.15s-.26,2.33-1.1,3.15Zm-.94-5.54c-.32-.32-.78-.55-1.39-.55s-1.07.23-1.39.55c-.55.56-.72,1.49-.72,2.39s.17,1.83.72,2.39c.32.32.78.55,1.39.55s1.07-.23,1.39-.55c.55-.56.72-1.49.72-2.39s-.17-1.83-.72-2.39Z" style="fill:#3c3c3b;"/><path d="m250.83,88.2c-.5.47-1.22.78-2.12.78-.84,0-1.83-.4-2.24-1.1v4.19h-1.29v-11h1.14l.09,1.01c.44-.78,1.43-1.2,2.3-1.2.94,0,1.68.32,2.18.84.73.75,1.11,1.92,1.11,3.2s-.4,2.54-1.17,3.29Zm-2.33-6.23c-.56,0-.94.23-1.25.5-.64.56-.85,1.49-.85,2.45s.21,1.89.85,2.45c.3.27.69.5,1.25.5,1.72,0,2.18-1.54,2.18-2.95s-.46-2.95-2.18-2.95Z" style="fill:#3c3c3b;"/><path d="m257.4,88.76h-1.4l-2.85-7.71h1.36l2.22,6.18,2.15-6.18h1.31l-2.79,7.71Z" style="fill:#3c3c3b;"/><path d="m267.11,88.06c-.56.55-1.36.9-2.33.9s-1.77-.35-2.33-.9c-.84-.82-1.1-1.93-1.1-3.15s.26-2.33,1.1-3.15c.56-.55,1.36-.9,2.33-.9s1.77.35,2.33.9c.84.82,1.1,1.93,1.1,3.15s-.26,2.33-1.1,3.15Zm-.94-5.54c-.32-.32-.78-.55-1.39-.55s-1.07.23-1.39.55c-.55.56-.72,1.49-.72,2.39s.17,1.83.72,2.39c.32.32.78.55,1.39.55s1.07-.23,1.39-.55c.55-.56.72-1.49.72-2.39s-.17-1.83-.72-2.39Z" style="fill:#3c3c3b;"/><path d="m276.94,85.34h-5.45c0,.7.27,1.46.75,1.93.35.35.82.55,1.42.55s1.11-.17,1.43-.5c.21-.21.35-.43.46-.84h1.26c-.11.76-.56,1.48-1.19,1.9-.55.37-1.23.58-1.96.58-1.08,0-1.96-.46-2.56-1.16-.64-.75-.96-1.77-.96-2.86,0-.93.17-1.75.59-2.47.55-.93,1.57-1.61,2.91-1.61.99,0,1.78.38,2.34.99.62.69.99,1.68.97,2.71v.78Zm-1.78-2.68c-.32-.43-.84-.7-1.52-.7-1.4,0-2.09,1.14-2.12,2.27h4.11c0-.58-.17-1.16-.47-1.57Z" style="fill:#3c3c3b;"/><path d="m284.53,88.76l-.09-1c-.44.78-1.43,1.2-2.3,1.2-.94,0-1.67-.32-2.18-.84-.73-.75-1.11-1.92-1.11-3.2s.4-2.54,1.17-3.29c.5-.47,1.22-.78,2.12-.78.84,0,1.83.4,2.24,1.1v-4.19h1.29v10.99h-1.14Zm-.93-6.3c-.3-.27-.68-.5-1.25-.5-1.72,0-2.18,1.54-2.18,2.95s.46,2.95,2.18,2.95c.56,0,.94-.23,1.25-.5.64-.56.85-1.49.85-2.45s-.21-1.89-.85-2.45Z" style="fill:#3c3c3b;"/><path d="m288.45,79.29v-1.52h1.51v1.52h-1.51Zm.09,9.47v-7.71h1.33v7.71h-1.33Z" style="fill:#3c3c3b;"/><path d="m297.66,88.76v-4.89c0-1.16-.47-1.84-1.69-1.84-.75,0-1.34.49-1.68,1.19-.26.56-.27,1.37-.27,1.96v3.58h-1.29v-7.71h1.13l.11,1.16c.4-.88,1.46-1.35,2.33-1.35,1.75,0,2.67,1.05,2.67,2.83v5.07h-1.29Z" style="fill:#3c3c3b;"/><path d="m307.71,91.46c-.75.73-2.03.9-3.11.9-1.02,0-2.18-.15-2.92-.9-.32-.32-.55-.76-.55-1.37,0-.81.49-1.4,1.1-1.71-.52-.2-.9-.7-.9-1.29,0-.69.44-1.22,1.02-1.49-.56-.5-.88-1.26-.88-2,0-.84.29-1.42.73-1.87.53-.55,1.26-.87,2.28-.87.73,0,1.29.17,1.77.46.26-.69.85-1.08,1.58-1.08.12,0,.26.02.38.03v1.05c-.08-.02-.18-.02-.29-.02-.5,0-.87.27-.94.7.32.41.5.91.5,1.6,0,.73-.27,1.37-.7,1.84-.5.55-1.28.91-2.3.91-.52,0-.81-.05-1.29-.21-.29.09-.62.32-.66.69-.04.67.67.75,1.16.76.5.02,1.52,0,1.52,0,.91,0,1.93.18,2.54.81.37.37.61.87.61,1.51s-.29,1.19-.66,1.55Zm-3.03-2.77h-1.4c-.52.17-.97.62-.97,1.22,0,.35.12.61.32.81.5.5,1.39.53,2.06.53s1.61-.06,2.1-.55c.2-.2.32-.46.32-.79,0-1.31-1.45-1.22-2.42-1.22Zm-.21-6.78c-1.05,0-1.75.72-1.75,1.69s.66,1.72,1.75,1.72,1.75-.75,1.75-1.72-.66-1.69-1.75-1.69Z" style="fill:#3c3c3b;"/></svg>