<svg height="83" width="154" xmlns="http://www.w3.org/2000/svg"><path d="M82.246 37.701h1.62v1.614h-1.62z" fill="#e31d19"/><path d="M5.06 3.919H0V.912h13.641v3.007h-5.09V20.79H5.06z" fill="#bd1818"/><path d="M16.276 14.565c.061 2.767 1.922 3.829 4.054 3.829 1.509 0 2.606-.27 3.581-.621l.503 2.416c-1.126.501-2.746.852-4.617.852-4.376 0-6.891-2.827-6.891-7.228 0-4.19 2.364-7.698 6.539-7.698s5.714 3.508 5.714 6.866c0 .712-.061 1.243-.121 1.564h-8.762zm5.593-2.446c.03-1.624-.623-3.538-2.666-3.538-1.951 0-2.806 2.005-2.927 3.538zm15.683 8.29c-.654.291-1.982.652-3.581.652-4.175 0-6.891-2.777-6.891-7.318 0-4.3 2.776-7.578 7.484-7.578 1.187 0 2.364.261 3.078.591l-.593 2.657c-.503-.261-1.278-.502-2.394-.502-2.575 0-4.024 2.065-4.024 4.722 0 2.947 1.72 4.661 4.024 4.661 1.066 0 1.831-.23 2.454-.501zM39.976 0h3.491v8.26h.06a4.966 4.966 0 0 1 1.63-1.534c.684-.351 1.479-.591 2.334-.591 2.394 0 4.587 1.684 4.587 6.014v8.641h-3.491v-8.34c0-1.915-.624-3.448-2.454-3.448-1.248 0-2.133.822-2.515 1.944-.121.321-.151.742-.151 1.093V20.8h-3.491zm15.683 10.646c0-1.654-.06-2.947-.121-4.221h3.048l.181 2.005h.061c.653-1.122 2.132-2.295 4.255-2.295 2.454 0 4.677 1.684 4.677 5.864v8.791h-3.49v-8.4c0-1.885-.624-3.388-2.425-3.388-1.277 0-2.193.882-2.514 2.005-.121.32-.171.771-.171 1.212V20.8h-3.491V10.646zm21.477 10.435c-3.762 0-6.599-2.717-6.599-7.398 0-4.862 2.957-7.548 6.78-7.548 3.903 0 6.539 2.887 6.539 7.368 0 5.423-3.521 7.578-6.69 7.578zm.09-2.566c1.922 0 3.048-2.266 3.048-4.922 0-2.216-.804-4.892-3.048-4.892-2.273 0-3.108 2.626-3.108 4.922 0 2.656 1.096 4.892 3.078 4.892zM86.662 0h3.491v20.79h-3.491zm12.987 21.081c-3.752 0-6.599-2.717-6.599-7.398 0-4.862 2.957-7.548 6.78-7.548 3.903 0 6.539 2.887 6.539 7.368 0 5.423-3.521 7.578-6.69 7.578zm.09-2.566c1.922 0 3.048-2.266 3.048-4.922 0-2.216-.794-4.892-3.048-4.892-2.283 0-3.108 2.626-3.108 4.922 0 2.656 1.096 4.892 3.078 4.892zm21.487.3c0 3.128-.593 5.073-1.981 6.366-1.328 1.213-3.229 1.684-5.181 1.684-1.69 0-3.4-.351-4.527-1.003l.745-2.686c.835.501 2.193.972 3.762.972 2.223 0 3.732-1.243 3.732-4.22v-1.183h-.06c-.715 1.183-2.042 1.945-3.732 1.945-3.37 0-5.593-3.037-5.593-7.017 0-4.812 2.846-7.548 5.975-7.548 1.921 0 3.078.972 3.732 2.095h.06l.151-1.794h3.048a67.14 67.14 0 0 0-.121 4.24v8.149zm-3.49-6.816c0-.351-.03-.712-.121-1.002-.322-1.183-1.217-2.126-2.575-2.126-1.861 0-3.139 1.825-3.139 4.692 0 2.656 1.157 4.481 3.109 4.481 1.156 0 2.162-.712 2.545-1.975.12-.381.181-.852.181-1.263zm9.345-5.573l2.314 7.728c.261.912.533 1.945.704 2.747h.09c.212-.792.443-1.825.684-2.747l2.012-7.728h3.642l-3.34 9.933c-1.599 4.692-2.847 7.288-4.497 8.902-1.358 1.293-2.786 1.824-3.581 1.945l-.885-2.948c.654-.18 1.388-.561 2.072-1.122a6.266 6.266 0 0 0 1.771-2.216c.151-.26.211-.471.211-.651 0-.15-.03-.351-.151-.652l-4.849-13.212h3.803z" fill="#b91818"/><path d="M5.352 44.788l-1.509 5.483H.292l5.834-19.878h4.356l5.764 19.878h-3.672l-1.569-5.483zm5.12-2.657L9.114 37.33a112.319 112.319 0 0 1-.916-3.98h-.06c-.272 1.243-.593 2.767-.885 3.98l-1.358 4.801zm8.138-1.764c0-1.744-.06-3.187-.121-4.451h3.018l.151 2.567h.121c.654-1.855 2.193-2.857 3.611-2.857.352 0 .563.03.805.06v3.358a4.086 4.086 0 0 0-.946-.09c-1.539 0-2.696 1.032-3.048 2.656-.06.321-.09.742-.09 1.183v7.488H18.62v-9.914zm14.465-8.109v3.658h3.26v2.567h-3.26v6.696c0 1.744.534 2.506 1.751 2.506.563 0 .885-.03 1.267-.15l.091 2.686c-.533.18-1.419.321-2.485.321-1.237 0-2.283-.381-2.927-1.093-.775-.792-1.127-2.035-1.127-3.979v-6.987h-1.951v-2.567h1.951V33.29zm5.563 14.795c.745.441 2.103.943 3.31.943 1.448 0 2.163-.652 2.163-1.624 0-.943-.533-1.474-2.193-2.155-2.606-1.063-3.642-2.537-3.642-4.191 0-2.506 2.012-4.42 5.151-4.42 1.448 0 2.696.381 3.49.822l-.714 2.476c-.593-.351-1.599-.762-2.726-.762-1.247 0-1.901.651-1.901 1.503 0 .883.593 1.324 2.283 2.035 2.425 1.003 3.581 2.356 3.581 4.361 0 2.716-2.042 4.481-5.532 4.481-1.539 0-3.048-.381-3.964-.943z" fill="#dd5b12"/><path d="M55.89 46.502c1.036.621 2.666 1.123 4.286 1.123 2.223 0 3.46-1.093 3.46-2.717 0-1.534-1.006-2.416-3.279-3.388-2.958-1.233-4.879-3.067-4.879-5.724 0-3.188 2.515-5.663 6.689-5.663 1.892 0 3.37.441 4.235.882l-.774 2.887a7.678 7.678 0 0 0-3.551-.852c-2.163 0-3.109 1.212-3.109 2.385 0 1.534 1.067 2.236 3.551 3.328 3.169 1.414 4.648 3.208 4.648 5.834 0 3.298-2.455 5.925-7.162 5.925-1.922 0-3.873-.562-4.819-1.123zm24.002 3.388c-.654.291-1.982.652-3.581.652-4.175 0-6.891-2.777-6.891-7.318 0-4.3 2.777-7.578 7.484-7.578 1.187 0 2.364.26 3.079.591l-.594 2.657c-.503-.261-1.267-.502-2.394-.502-2.575 0-4.024 2.065-4.024 4.722 0 2.947 1.72 4.661 4.024 4.661 1.066 0 1.831-.23 2.454-.501zm4.145-16.008c-1.127 0-1.902-.832-1.902-1.915 0-1.093.805-1.915 1.952-1.915 1.157 0 1.921.802 1.921 1.915 0 1.093-.774 1.915-1.951 1.915zm-1.721 2.034h3.491v14.365h-3.491zm9.708 8.14c.06 2.767 1.921 3.829 4.054 3.829 1.509 0 2.605-.26 3.581-.621l.503 2.416c-1.127.501-2.746.852-4.617.852-4.376 0-6.891-2.827-6.891-7.228 0-4.19 2.364-7.698 6.539-7.698 4.174 0 5.713 3.508 5.713 6.866 0 .712-.06 1.243-.12 1.564h-8.762zm5.593-2.456c.03-1.624-.624-3.538-2.666-3.538-1.951 0-2.817 2.004-2.927 3.538zm6.005-1.473c0-1.654-.06-2.947-.12-4.221h3.048l.181 2.005h.06c.654-1.122 2.133-2.295 4.265-2.295 2.455 0 4.678 1.684 4.678 5.864v8.791h-3.491v-8.4c0-1.885-.623-3.388-2.424-3.388-1.278 0-2.193.882-2.515 2.004-.121.321-.171.772-.171 1.213v8.581h-3.491V40.127zm25.35 9.763c-.654.291-1.982.652-3.581.652-4.175 0-6.901-2.777-6.901-7.318 0-4.3 2.787-7.578 7.484-7.578 1.187 0 2.364.26 3.079.591l-.584 2.657c-.503-.261-1.267-.502-2.394-.502-2.575 0-4.024 2.065-4.024 4.722 0 2.947 1.72 4.661 4.024 4.661 1.066 0 1.841-.23 2.454-.501zm4.798-5.834c.061 2.767 1.922 3.829 4.054 3.829 1.509 0 2.606-.26 3.582-.621l.503 2.416c-1.127.501-2.747.852-4.618.852-4.376 0-6.89-2.827-6.89-7.228 0-4.19 2.364-7.698 6.538-7.698 4.175 0 5.714 3.508 5.714 6.866 0 .712-.06 1.243-.121 1.564h-8.762zm5.594-2.456c.03-1.624-.624-3.538-2.666-3.538-1.952 0-2.807 2.004-2.928 3.538zm5.824 5.453c.734.441 2.102.943 3.309.943 1.449 0 2.163-.652 2.163-1.624 0-.943-.533-1.474-2.193-2.155-2.605-1.063-3.641-2.537-3.641-4.191 0-2.506 2.012-4.42 5.15-4.42 1.449 0 2.696.381 3.491.822l-.714 2.476c-.594-.351-1.6-.762-2.726-.762-1.238 0-1.892.651-1.892 1.503 0 .883.594 1.324 2.284 2.035 2.424 1.003 3.581 2.356 3.581 4.361 0 2.716-2.042 4.481-5.533 4.481-1.539 0-3.048-.381-3.963-.943z" fill="#ad2584"/><path d="M4.969 66.55H.151v-3.719h14.023v3.719H9.285v16.159H4.969zm16.689-3.719v7.759h6.418v-7.759h4.325v19.878h-4.325v-8.32h-6.418v8.32h-4.326V62.831zm20.974 0h4.295v8.852h.091c.382-.792.795-1.564 1.247-2.296l3.933-6.546h5.181l-5.975 8.521 6.247 11.357h-4.94l-4.315-8.46-1.449 1.945v6.515h-4.295V62.831zM65.034 83c-3.993 0-6.89-2.777-6.89-7.428 0-4.781 2.987-7.578 7.102-7.578 4.084 0 6.77 2.977 6.77 7.398 0 5.483-3.612 7.608-6.952 7.608zm-2.897-16.74c-1.126 0-2.012-.882-2.012-2.035s.886-2.005 2.042-2.005c1.067 0 1.922.852 1.922 2.005s-.825 2.035-1.922 2.035zm3.018 13.622c1.599 0 2.485-1.944 2.485-4.39 0-2.095-.684-4.361-2.485-4.361-1.951 0-2.605 2.276-2.605 4.361 0 2.476.855 4.39 2.575 4.39zm2.867-13.622c-1.097 0-1.952-.882-1.952-2.035s.886-2.005 2.012-2.005c1.097 0 1.922.852 1.922 2.005s-.835 2.035-1.922 2.035zm6.599-4.341h4.315v20.79h-4.315zm7.695 10.917c0-1.745-.06-3.218-.12-4.541h3.732l.211 1.884h.08c.624-.972 2.043-2.185 4.205-2.185 2.897 0 4.799 2.035 4.799 5.954v8.761h-4.316v-8.31c0-1.654-.563-2.887-2.042-2.887-1.066 0-1.74.742-2.042 1.564-.121.291-.181.742-.181 1.183v8.46h-4.316v-9.883z" fill="#1d1e1c"/></svg>