<?xml version="1.0" encoding="UTF-8"?><svg id="Layer_1" xmlns="http://www.w3.org/2000/svg" viewBox="0 0 566.77 195.14"><path d="m51.78,0C23.18,0,0,21.34,0,47.68v99.78c0,26.33,23.18,47.68,51.78,47.68s51.78-21.35,51.78-47.68V47.68C103.56,21.34,80.38,0,51.78,0Zm28.94,151.52c0,13.04-12.95,23.62-28.93,23.62s-28.93-10.57-28.93-23.62v-46.79h18.87v46.79c0,4.45,4.5,8.06,10.07,8.06s10.06-3.61,10.06-8.06v-46.79h18.87v46.79Zm-28.94-63.48c-18.95,0-34.3-15.35-34.3-34.3s15.35-34.3,34.3-34.3,34.3,15.35,34.3,34.3-15.35,34.3-34.3,34.3Z" style="fill:#e30613;"/><path d="m162.71,96.81c0,11.77-7.13,18.9-17.62,18.9s-16.88-8.04-16.88-18.26c0-10.75,6.87-18.79,17.46-18.79s17.03,8.25,17.03,18.15Zm-25.92.48c0,7.03,3.3,11.98,8.73,11.98s8.62-5.22,8.62-12.19c0-6.44-3.09-11.98-8.68-11.98s-8.68,5.22-8.68,12.19Z" style="fill:#1d1d1b;"/><path d="m169.59,97.82c0-3.41-.11-6.33-.21-8.73h7.03l.37,3.62h.11c1.92-2.77,4.9-4.2,8.68-4.2,5.69,0,10.81,4.95,10.81,13.26,0,9.47-6.01,13.94-11.82,13.94-3.14,0-5.59-1.28-6.76-2.98h-.11v12.94h-8.09v-27.84Zm8.09,6.12c0,.64.05,1.23.16,1.7.53,2.18,2.4,3.83,4.74,3.83,3.51,0,5.59-2.93,5.59-7.35,0-4.15-1.86-7.29-5.48-7.29-2.29,0-4.31,1.7-4.85,4.1-.1.43-.16.96-.16,1.44v3.57Z" style="fill:#1d1d1b;"/><path d="m209.41,104.69c.27,3.35,3.57,4.95,7.35,4.95,2.77,0,5-.37,7.19-1.06l1.06,5.48c-2.66,1.06-5.91,1.65-9.42,1.65-8.84,0-13.89-5.16-13.89-13.31,0-6.6,4.1-13.9,13.15-13.9,8.41,0,11.6,6.55,11.6,12.99,0,1.38-.16,2.61-.27,3.19h-16.77Zm9.53-5.54c0-1.97-.85-5.27-4.58-5.27-3.41,0-4.79,3.09-5.01,5.27h9.58Z" style="fill:#1d1d1b;"/><path d="m232.89,97.39c0-3.25-.11-6.01-.21-8.3h7.03l.37,3.57h.16c1.06-1.65,3.73-4.15,8.04-4.15,5.32,0,9.31,3.51,9.31,11.18v15.44h-8.09v-14.42c0-3.35-1.17-5.65-4.1-5.65-2.23,0-3.57,1.55-4.1,3.04-.21.53-.32,1.28-.32,2.02v15.01h-8.09v-17.73Z" style="fill:#1d1d1b;"/><path d="m285.33,79.24v20.65c0,6.17,2.34,9.32,6.49,9.32s6.6-2.98,6.6-9.32v-20.65h8.09v20.12c0,11.07-5.59,16.34-14.96,16.34s-14.37-5-14.37-16.45v-20.02h8.15Z" style="fill:#1d1d1b;"/><path d="m314.88,97.39c0-3.25-.11-6.01-.21-8.3h7.03l.37,3.57h.16c1.06-1.65,3.73-4.15,8.04-4.15,5.32,0,9.32,3.51,9.32,11.18v15.44h-8.09v-14.42c0-3.35-1.17-5.65-4.1-5.65-2.24,0-3.57,1.55-4.1,3.04-.21.53-.32,1.28-.32,2.02v15.01h-8.09v-17.73Z" style="fill:#1d1d1b;"/><path d="m356.04,81.85c0,2.24-1.7,4.05-4.37,4.05s-4.26-1.81-4.2-4.05c-.05-2.34,1.65-4.1,4.26-4.1s4.26,1.76,4.31,4.1Zm-8.36,33.27v-26.03h8.09v26.03h-8.09Z" style="fill:#1d1d1b;"/><path d="m369.88,89.09l3.51,12.09c.64,2.18,1.12,4.26,1.49,6.34h.16c.43-2.13.85-4.1,1.44-6.34l3.35-12.09h8.52l-9.69,26.03h-8.09l-9.48-26.03h8.78Z" style="fill:#1d1d1b;"/><path d="m399.11,104.69c.26,3.35,3.57,4.95,7.34,4.95,2.77,0,5-.37,7.19-1.06l1.06,5.48c-2.66,1.06-5.91,1.65-9.42,1.65-8.84,0-13.9-5.16-13.9-13.31,0-6.6,4.1-13.9,13.15-13.9,8.41,0,11.6,6.55,11.6,12.99,0,1.38-.16,2.61-.26,3.19h-16.77Zm9.53-5.54c0-1.97-.85-5.27-4.58-5.27-3.41,0-4.79,3.09-5,5.27h9.58Z" style="fill:#1d1d1b;"/><path d="m422.59,97.66c0-3.83-.1-6.33-.21-8.57h6.97l.26,4.79h.21c1.33-3.78,4.53-5.38,7.03-5.38.75,0,1.12,0,1.7.11v7.67c-.58-.16-1.28-.26-2.18-.26-2.98,0-5,1.59-5.54,4.1-.11.53-.16,1.17-.16,1.81v13.2h-8.09v-17.46Z" style="fill:#1d1d1b;"/><path d="m444.37,108.04c1.49.91,4.58,1.97,6.97,1.97s3.46-.85,3.46-2.18-.8-1.97-3.83-2.98c-5.38-1.81-7.45-4.74-7.4-7.77,0-4.9,4.15-8.57,10.59-8.57,3.04,0,5.75.69,7.35,1.49l-1.44,5.59c-1.17-.64-3.41-1.49-5.64-1.49-1.97,0-3.09.8-3.09,2.13,0,1.22,1.01,1.86,4.21,2.98,4.95,1.7,7.03,4.2,7.08,8.04,0,4.84-3.83,8.46-11.29,8.46-3.41,0-6.44-.8-8.41-1.86l1.44-5.8Z" style="fill:#1d1d1b;"/><path d="m477.48,81.85c0,2.24-1.7,4.05-4.36,4.05s-4.26-1.81-4.21-4.05c-.05-2.34,1.65-4.1,4.26-4.1s4.26,1.76,4.31,4.1Zm-8.36,33.27v-26.03h8.09v26.03h-8.09Z" style="fill:#1d1d1b;"/><path d="m494.36,82.01v7.08h5.8v5.96h-5.8v9.42c0,3.14.75,4.58,3.19,4.58,1.12,0,1.6-.05,2.4-.21l.05,6.12c-1.06.43-2.98.74-5.27.74-2.61,0-4.79-.96-6.07-2.29-1.49-1.55-2.24-4.05-2.24-7.72v-10.65h-3.46v-5.96h3.46v-4.9l7.93-2.18Z" style="fill:#1d1d1b;"/><path d="m512.41,104.69c.27,3.35,3.57,4.95,7.35,4.95,2.77,0,5-.37,7.19-1.06l1.06,5.48c-2.66,1.06-5.91,1.65-9.42,1.65-8.84,0-13.89-5.16-13.89-13.31,0-6.6,4.1-13.9,13.15-13.9,8.41,0,11.6,6.55,11.6,12.99,0,1.38-.16,2.61-.27,3.19h-16.77Zm9.53-5.54c0-1.97-.85-5.27-4.58-5.27-3.41,0-4.79,3.09-5.01,5.27h9.58Z" style="fill:#1d1d1b;"/><path d="m544.25,81.85c0,2.24-1.7,4.05-4.37,4.05s-4.26-1.81-4.2-4.05c-.05-2.34,1.65-4.1,4.26-4.1s4.26,1.76,4.31,4.1Zm-8.36,33.27v-26.03h8.09v26.03h-8.09Z" style="fill:#1d1d1b;"/><path d="m561.13,82.01v7.08h5.6v5.96h-5.6v9.42c0,3.14.74,4.58,3.19,4.58,1.12,0,1.59-.05,2.39-.21l.05,6.12c-1.06.43-2.98.74-5.27.74-2.61,0-4.79-.96-6.07-2.29-1.49-1.55-2.24-4.05-2.24-7.72v-10.65h-3.46v-5.96h3.46v-4.9l7.93-2.18Z" style="fill:#1d1d1b;"/></svg>