<?xml version="1.0" encoding="utf-8"?>
<!-- Generator: Adobe Illustrator 27.6.1, SVG Export Plug-In . SVG Version: 6.00 Build 0)  -->
<svg version="1.2" baseProfile="tiny" id="Ebene_1" xmlns="http://www.w3.org/2000/svg" xmlns:xlink="http://www.w3.org/1999/xlink"
	 x="0px" y="0px" viewBox="0 0 216 216" overflow="visible" xml:space="preserve">
<g>
	<g>
		<g>
			<path fill="#0064A7" d="M171.7,210.6L171.7,210.6L171.7,210.6C171.6,210.6,171.7,210.6,171.7,210.6z"/>
			<g>
				<path fill="#0064A7" d="M182.3,134l-0.4,1.5l-0.5,2.2c0,0-8.1,36.5-9.5,42.2c-0.4-1.5-8.1-37.8-8.1-37.8
					c-0.4-1.6-0.9-3.5-1.5-5.5l-0.5-1.6c-2.3-5.5-7.7-9.1-13.6-9.1c-5.7,0-10.9,3.4-13.4,8.5c-0.4,1.1-0.7,2.3-1.1,3.6
					c-0.4,1.3-0.6,2.7-0.9,3.9c0,0-6.9,32.6-8.1,38.1c-0.4-1.5-10.2-42.4-10.2-42.4l-0.4-1.7c-0.2-1.1-0.5-1.9-0.7-2.7
					c-1.9-4.4-6.2-7.3-10.9-7.3c-3.4,0-6.8,1.6-9.1,4.1c-1.7,1.9-2.7,4.4-2.9,6.9v0.5c0,0.7,0,1.5,0.1,2.1c0.2,2.4,0.9,4.5,1.5,6.3
					l16.1,52l0.4,1.1l0.9,2.4c2.4,5.6,8,9.2,14.1,9.4h0.1c6.4,0,12-3.9,14.3-9.8l0.7-2.6l0,0l0.1-0.5c0,0,9.1-36.2,9.4-37.5
					c0.4,1.3,9.5,37.9,9.5,37.9l0.7,2.4c2.3,6,8,10,14.5,10h0.1c6,0,11.6-3.5,14-9c0.4-0.9,0.6-1.8,1-2.9l0.2-0.9l16.1-52
					c0.6-1.9,1.2-3.9,1.5-6.3c0.1-0.7,0.1-1.5,0.1-2.1v-0.5c-0.2-2.6-1.2-5-2.9-6.9c-2.3-2.7-5.6-4.1-9.1-4.1
					C188.5,125.9,184,129.2,182.3,134z"/>
			</g>
		</g>
		<g>
			<g>
				<path fill="#0064A7" d="M128.4,17.5v89.7c0,6.9,5.6,12.5,12.5,12.5c6.8,0,12.4-5.6,12.5-12.3v-0.1v-36c0-9.6,7.8-15.6,15-15.6
					c10.6,0,12.2,8.5,12.2,13.5v38.1v0.2c0.1,6.8,5.7,12.3,12.5,12.3c6.9,0,12.5-5.6,12.5-12.5V65c0-19-10.8-30.3-29.1-30.3
					c-9.2,0-17.1,3.2-23.1,9.2c0-1.6,0-26.1,0-26.1v-0.2c-0.1-6.8-5.7-12.3-12.5-12.3C134,5,128.4,10.6,128.4,17.5z"/>
			</g>
		</g>
		<path fill="#0064A7" d="M87.7,196.9c-0.6-2.2-1.5-5-1.5-10.5v-36.6c0-15.3-13-23.7-36.7-23.7c-22.1,0-35.9,10.5-35.9,20.6
			c0,5.6,4.5,10.1,10.1,10.1c2.4,0,4.6-0.9,6.4-2.3c1.1-0.9,2.2-1.8,3.2-2.8c3.4-3.3,7.2-7.1,16.1-7.1c6.1,0,12.5,2.1,12.5,7.8
			c0,5-2.8,6.2-8.3,6.8l-13.3,1.5C24.7,162.5,8.8,167,8.8,187c0,14.7,13.1,23.5,25.9,23.5c11.9,0,21.3-3.6,28.9-11.2
			c1.2,7.3,6,11.2,13.7,11.2c6.2,0,11.1-4.3,11.1-9.6C88.5,199.6,88.2,198.2,87.7,196.9z M63.1,179.1c0,8-7.3,15.8-19.3,15.8
			c-7.4,0-12.2-4-12.2-9c0-6.6,5-9.4,14.1-10.7l7.9-1.2c2.6-0.5,7.1-1.2,9.4-3.4L63.1,179.1L63.1,179.1z"/>
		<g>
			<path fill="#0064A7" d="M49.9,49.5L49.9,49.5L49.9,49.5z"/>
			<g>
				<path fill="#0064A7" d="M59.9,38.3c-1.2,0-2.3,0.1-3.4,0.5c-4.1,1.3-7.1,5.2-7.1,9.6s2.8,8.3,6.9,9.6c1.1,0.4,2.3,0.5,3.4,0.5
					c0,0,26.4,0,27.8,0C86.6,59.7,49,100.6,49,100.6c-2.2,2.3-3.3,5.4-3.3,9v0.5c0.2,4.4,3.6,9.4,10.6,9.6H57h55.6
					c1.2,0,2.3-0.1,3.5-0.5c4.1-1.3,6.9-5.2,6.9-9.6c0-4.4-2.8-8.3-6.9-9.6l0,0c-1.1-0.4-2.3-0.5-3.4-0.5c0,0-30.8,0-32.2,0
					c1.1-1.2,37.9-41.6,37.9-41.6c2.4-2.7,3.9-5.7,3.9-8.4v-1.1c-0.1-1.8-0.5-3.5-1.2-4.9c-1.1-2.2-3-3.9-5.5-4.6
					c-1.2-0.4-2.4-0.6-3.8-0.6C111.9,38.3,59.9,38.3,59.9,38.3z"/>
			</g>
		</g>
	</g>
</g>
</svg>
