<svg width="106" height="32" viewBox="0 0 106 32" fill="none" xmlns="http://www.w3.org/2000/svg">
<g clip-path="url(#clip0_18964_47247)">
<path d="M20.4031 0C20.5001 0.587262 20.6713 1.1515 20.7931 1.7426C20.814 1.84239 20.8882 1.86734 20.9681 1.89805C21.4226 2.07461 21.8734 2.25309 22.3261 2.43157C22.4085 2.45116 22.4841 2.49295 22.5449 2.55248C22.0751 2.84035 21.6167 3.12822 21.1468 3.4065C21.0835 3.43738 21.0305 3.48646 20.9947 3.54757C20.9588 3.60868 20.9416 3.67911 20.9452 3.75003C20.9281 4.29315 20.8882 4.83435 20.8539 5.42161L20.1311 4.79981C19.9524 4.64628 19.7679 4.49658 19.5986 4.33154C19.5487 4.27644 19.4836 4.2378 19.4117 4.22068C19.3397 4.20356 19.2643 4.20875 19.1953 4.23558C18.7293 4.37376 18.2576 4.48891 17.7878 4.61941C17.7365 4.63092 17.6889 4.66547 17.6147 4.61941C17.7935 4.1876 17.9495 3.74043 18.1606 3.32206C18.2337 3.20029 18.266 3.05798 18.2527 2.91624C18.2393 2.7745 18.181 2.64088 18.0864 2.53521C17.8144 2.16097 17.5824 1.75603 17.3047 1.31846C17.7231 1.34917 18.0978 1.36452 18.4687 1.40482C19.1687 1.48159 19.1668 1.48735 19.61 0.932713L20.3537 0.00575723L20.4031 0Z" fill="#F3CE4C"/>
<path d="M105.869 21.4674C105.882 21.4646 105.895 21.4646 105.907 21.4674V21.7899H105.867C105.867 21.6862 105.869 21.5768 105.869 21.4674Z" fill="#B8B2C9"/>
<path d="M13.0645 28.6069C14.3903 27.9467 15.6742 27.2038 16.9085 26.3826C19.229 24.8012 20.7792 22.6268 21.7721 20.0186C21.8304 19.9031 21.8721 19.7796 21.8957 19.6521C19.5334 19.3911 17.3308 18.5946 15.2043 17.5967C15.0331 17.518 14.8676 17.4201 14.7002 17.3318C14.7002 17.2877 14.7002 17.2627 14.7535 17.2781C15.579 17.4067 16.4045 17.5372 17.2376 17.589C18.5234 17.6658 19.8054 17.6792 21.0417 17.2359C21.8234 16.9557 22.4625 16.4989 22.6889 15.6353C22.9837 14.5164 22.569 13.4782 21.5591 12.7681C20.7942 12.2675 19.937 11.928 19.0388 11.7701C18.4682 11.6492 17.8843 11.5782 17.3022 11.5245C18.1626 11.2687 19.0502 11.1179 19.9461 11.0754C21.9147 10.9583 23.7502 11.3325 25.2947 12.651C26.1957 13.4503 26.8688 14.4779 27.2443 15.6276C27.775 17.115 27.7312 18.6215 27.3889 20.1319C26.9913 21.8898 26.2362 23.5 25.3461 25.0507C24.2139 26.9938 22.9047 28.8262 21.4354 30.5241C21.0858 30.9581 20.7124 31.372 20.317 31.7639C20.2599 31.8176 20.2143 31.9059 20.1097 31.8637C20.8344 30.6294 21.4756 29.347 22.0289 28.0254C22.3345 27.3025 22.5888 26.5585 22.7897 25.7991C22.7992 25.3942 22.9685 25.0142 22.9799 24.5824C22.3465 25.0526 21.7169 25.494 21.0778 25.9085C19.21 27.108 17.2205 28.0196 15.035 28.4437C14.4631 28.5569 13.8841 28.63 13.3022 28.6625C13.2223 28.6568 13.1139 28.7316 13.0645 28.6069Z" fill="#2C2A6B"/>
<path d="M4.80626 20.3715C4.4006 21.7955 4.12367 23.2536 3.97885 24.728C3.89326 25.4957 3.82669 26.2461 3.75251 27.0061C3.74961 27.0205 3.74379 27.0343 3.7354 27.0464C3.7354 27.0464 3.71447 27.0464 3.70496 27.0368C3.51082 25.8993 3.39705 24.7494 3.36449 23.5957C3.32455 22.6937 3.25798 21.7917 3.28271 20.8897C3.33216 19.0128 3.43296 17.1416 3.81338 15.2973C4.03778 14.1297 4.4025 12.9942 4.89946 11.9157C5.71924 10.2 6.96129 8.93337 8.77205 8.29621C10.1035 7.82602 11.4349 7.91238 12.7474 8.39409C14.3793 8.98135 15.7279 9.99083 16.9015 11.2575L16.9908 11.3534C17.0004 11.3976 16.9908 11.4187 16.9395 11.4033C16.0474 10.9255 15.1382 10.4879 14.1378 10.2787C13.4131 10.1271 12.6903 10.0868 11.9922 10.3958C11.6818 10.5234 11.4007 10.7141 11.1662 10.9559C10.9318 11.1977 10.7491 11.4854 10.6295 11.8014C10.5098 12.1174 10.4557 12.4547 10.4706 12.7927C10.4855 13.1306 10.569 13.4618 10.716 13.7658C11.0964 14.5949 11.6936 15.2359 12.3726 15.8116C12.929 16.2757 13.5225 16.6923 14.1473 17.0572C14.1967 17.0879 14.2443 17.1224 14.3375 17.1915C12.3936 17.1915 10.6684 16.5831 8.96416 15.8251C8.80375 16.4103 8.69177 17.0079 8.62939 17.6118C8.24898 21.404 9.35408 24.801 11.3512 27.9599C11.3893 28.0175 11.4273 28.075 11.4635 28.1326C11.4996 28.1902 11.4635 28.1959 11.4083 28.1863L10.9994 27.91C9.33696 26.6165 8.14628 24.9315 7.12677 23.1121C6.4671 21.9291 5.90473 20.6935 5.44535 19.4177C5.42371 19.3426 5.38822 19.2723 5.34074 19.2105C5.17924 19.4535 5.05126 19.7175 4.96032 19.9954C4.93431 20.1299 4.88193 20.2578 4.80626 20.3715Z" fill="#F3CE4C"/>
<path d="M55.3027 12.772C55.8049 12.772 56.269 12.772 56.7312 12.772C56.8757 12.772 56.9081 12.8545 56.9499 12.9543L58.6389 16.8848C58.6846 16.9884 58.7321 17.092 58.7968 17.2321C58.9014 16.9826 58.9965 16.7639 59.0878 16.5451C59.5824 15.3552 60.0788 14.1653 60.5676 12.9716C60.5839 12.9073 60.6238 12.8517 60.6793 12.816C60.7348 12.7804 60.8016 12.7674 60.8663 12.7797C61.1592 12.8047 61.5187 12.6684 61.7317 12.8296C61.9447 12.9908 61.9828 13.3343 62.0931 13.5973C62.5914 14.7948 63.0879 15.9924 63.59 17.2053C63.6654 17.1265 63.7191 17.0292 63.746 16.9232C64.3115 15.6053 64.8733 14.2856 65.4312 12.9639C65.4469 12.9025 65.4845 12.849 65.5367 12.8136C65.589 12.7782 65.6523 12.7634 65.7146 12.772C66.1635 12.7835 66.6124 12.772 67.0879 12.772L66.5059 14.1346C65.6461 16.1401 64.7826 18.1437 63.9324 20.1531C63.8544 20.3354 63.7422 20.3297 63.5957 20.3335C63.5298 20.3471 63.4612 20.3348 63.404 20.2991C63.3467 20.2635 63.3051 20.2071 63.2876 20.1416C62.6428 18.5851 61.9866 17.0326 61.3323 15.478C61.2961 15.3898 61.2581 15.3015 61.2029 15.1729C61.0127 15.6009 60.8567 15.9924 60.6932 16.3858C60.1745 17.632 59.6559 18.8781 59.1373 20.1243C59.0821 20.2567 59.0308 20.3488 58.8634 20.3162C58.696 20.2836 58.5781 20.3431 58.483 20.1243C57.454 17.7196 56.4097 15.3264 55.3693 12.9198C55.3522 12.8968 55.3332 12.8469 55.3027 12.772Z" fill="#2C2A6B"/>
<path d="M50.6541 15.2709C50.6541 13.7164 50.6541 12.1619 50.6541 10.6055C50.6541 10.4136 50.5989 10.3848 50.4278 10.3867C49.2865 10.3867 48.1339 10.3867 46.985 10.3867C46.8138 10.3867 46.7682 10.3425 46.7739 10.1717C46.7891 9.82053 46.7872 9.4674 46.7739 9.11428C46.7739 8.94923 46.8253 8.92236 46.9812 8.92236C48.1225 8.92236 49.2447 8.92236 50.3783 8.92236C52.2176 8.92236 54.0569 8.92236 55.8943 8.92236C56.0845 8.92236 56.1378 8.97226 56.1282 9.16226C56.1111 9.50579 56.1149 9.85124 56.1282 10.1967C56.1282 10.3579 56.0883 10.3982 55.9285 10.3886C54.7873 10.3886 53.6461 10.3886 52.5048 10.379C52.2937 10.379 52.2633 10.4443 52.2633 10.6343C52.2633 13.7279 52.2633 16.8216 52.2633 19.9172C52.2633 20.1091 52.2328 20.1974 52.0103 20.184C51.6394 20.1629 51.2666 20.1667 50.8938 20.184C50.7036 20.184 50.6294 20.1514 50.6313 19.9306C50.6598 18.38 50.6541 16.8254 50.6541 15.2709Z" fill="#2C2B6B"/>
<path d="M73.2628 13.7566C73.5683 13.3794 73.9529 13.0753 74.3889 12.8661C76.0341 12.1329 77.6813 13.0484 77.9362 14.839C77.9735 15.1041 77.9919 15.3715 77.9914 15.6392C77.9914 17.0805 77.9914 18.518 77.9914 19.9612C77.9914 20.1339 77.9571 20.1972 77.7726 20.1896C77.415 20.1723 77.0574 20.1761 76.6999 20.1896C76.5458 20.1896 76.5097 20.1435 76.5097 19.9977C76.5097 18.5199 76.5097 17.0422 76.5097 15.5625C76.5139 15.2712 76.4622 14.9818 76.3575 14.7104C76.0284 13.8698 75.1459 13.5589 74.2938 13.9926C73.9229 14.2044 73.5914 14.4798 73.3142 14.8063C73.2848 14.8463 73.2641 14.8921 73.2532 14.9407C73.2424 14.9893 73.2418 15.0396 73.2514 15.0885C73.2514 16.7044 73.2514 18.3222 73.2514 19.9382C73.2514 20.1301 73.2153 20.2049 73.0061 20.1915C72.6722 20.1742 72.3376 20.1742 72.0037 20.1915C71.8287 20.1915 71.7735 20.155 71.7754 19.9689C71.7754 18.5583 71.7754 17.1496 71.7754 15.7467C71.7754 14.8274 71.7754 13.9082 71.7754 12.9889C71.7754 12.8354 71.804 12.774 71.9656 12.7797C72.3461 12.7931 72.7113 12.7797 73.0841 12.7797C73.202 12.7797 73.2457 12.8123 73.2419 12.9352C73.259 13.177 73.2628 13.4303 73.2628 13.7566Z" fill="#2C2B6B"/>
<path d="M81.4961 13.7644C81.9007 13.2367 82.4684 12.8605 83.109 12.6955C84.5888 12.3423 85.8594 13.181 86.1523 14.6971C86.2118 15.0135 86.2417 15.3347 86.2417 15.6567C86.2417 17.098 86.2417 18.5355 86.2417 19.9787C86.2417 20.1552 86.1942 20.1974 86.0268 20.1898C85.6692 20.1763 85.3116 20.1782 84.954 20.1898C84.7943 20.1898 84.7638 20.1475 84.7638 19.9863C84.7638 18.5239 84.7638 17.0596 84.7638 15.5953C84.7678 15.3353 84.7313 15.0762 84.6554 14.8276C84.6064 14.6435 84.5204 14.4714 84.4029 14.3221C84.2854 14.1728 84.1387 14.0493 83.9721 13.9594C83.8054 13.8695 83.6223 13.815 83.4339 13.7993C83.2456 13.7836 83.056 13.807 82.877 13.8681C82.3064 14.0274 81.926 14.4285 81.5455 14.8276C81.4771 14.9006 81.5037 14.9869 81.5037 15.0675C81.5037 16.6777 81.5037 18.286 81.5037 19.8961C81.5037 20.1437 81.4333 20.1974 81.2051 20.184C80.8883 20.167 80.5708 20.167 80.254 20.184C80.0905 20.184 80.0372 20.1552 80.0391 19.9767C80.0505 19.2091 80.0391 18.4587 80.0391 17.7006C80.0391 16.1288 80.0391 14.559 80.0391 12.9872C80.0391 12.7953 80.0886 12.7569 80.2636 12.7646C80.6059 12.7799 80.9502 12.7818 81.2907 12.7646C81.4809 12.755 81.517 12.8221 81.5075 12.9949C81.4866 13.2328 81.4961 13.4708 81.4961 13.7644Z" fill="#2C2A6B"/>
<path d="M93.2766 13.7641C93.6454 13.2844 94.1493 12.9285 94.7222 12.7431C95.9775 12.3593 97.5258 12.8218 97.9176 14.6623C97.9815 14.9618 98.0134 15.2674 98.0127 15.5739C98.0127 17.0458 98.0127 18.5159 98.0127 19.9879C98.0127 20.1434 97.9823 20.199 97.8225 20.1913C97.4573 20.1779 97.0921 20.1798 96.7289 20.1913C96.5748 20.1913 96.5386 20.1453 96.5386 19.9994C96.5386 18.5447 96.5386 17.0881 96.5386 15.6333C96.551 15.2563 96.4713 14.882 96.3066 14.5433C95.9547 13.8696 95.1939 13.6221 94.4426 13.9387C94.01 14.1491 93.6278 14.4516 93.3223 14.8254C93.25 14.9021 93.2728 14.9981 93.2728 15.0883C93.2728 16.7042 93.2728 18.3202 93.2728 19.938C93.2728 20.1568 93.2081 20.2009 93.0084 20.1913C92.6604 20.176 92.3104 20.1913 91.9604 20.1913C91.833 20.1913 91.7949 20.1587 91.7949 20.0263C91.7949 17.6683 91.7949 15.309 91.7949 12.9485C91.7949 12.8314 91.8063 12.77 91.949 12.7719C92.3294 12.7834 92.725 12.7719 93.1111 12.7719C93.2291 12.7719 93.2709 12.8007 93.2671 12.9254C93.269 13.1807 93.2766 13.4398 93.2766 13.7641Z" fill="#2C2A6B"/>
<path d="M16.8969 11.2578C16.5698 11.0083 16.3092 10.682 15.9954 10.4229C14.7039 9.33287 13.2963 8.46925 11.6206 8.15451C9.94492 7.83977 8.44039 8.26005 7.08041 9.26761C5.88212 10.1543 5.14031 11.3787 4.60774 12.7413C4.13781 14.0049 3.81856 15.3205 3.65671 16.6602C3.55019 17.4605 3.46651 18.2608 3.42657 19.0687C3.38472 19.9535 3.32575 20.8382 3.35048 21.7249C3.37711 22.7382 3.42276 23.7515 3.48743 24.7648C3.53689 25.5229 3.63198 26.279 3.70616 27.0371C3.48362 26.2291 3.29532 25.4135 3.11463 24.594C2.8277 23.3227 2.61179 22.0361 2.46792 20.7403C2.34034 19.6938 2.28568 18.6395 2.30435 17.5852C2.36711 15.6162 2.65433 13.6894 3.57112 11.9141C4.33068 10.4529 5.49688 9.24757 6.92635 8.44622C8.03892 7.79633 9.32555 7.51508 10.6049 7.64209C11.7034 7.7548 12.7654 8.10219 13.7205 8.66116C14.8406 9.29524 15.8584 10.0977 16.7391 11.0409C16.798 11.1062 16.8817 11.158 16.8969 11.2578Z" fill="#F8E5A5"/>
<path d="M30.7326 20.1973L32.5471 20.3432C32.7278 20.3566 32.9104 20.3623 33.0911 20.3892C33.2243 20.4103 33.2623 20.3067 33.3194 20.2357C33.7588 19.6983 34.1943 19.1571 34.6318 18.6178C34.6657 18.5573 34.7206 18.5115 34.7859 18.4893C34.9038 18.9863 35.0217 19.4815 35.1377 19.9785C35.1929 20.2165 35.2595 20.4526 35.2994 20.6924C35.3069 20.7596 35.3343 20.8228 35.3781 20.8739C35.4219 20.9249 35.48 20.9614 35.5448 20.9784C36.2466 21.2452 36.9447 21.5254 37.6599 21.8075C37.5002 21.9454 37.3246 22.0633 37.1368 22.1587C36.6727 22.4478 36.2054 22.7331 35.735 23.0146C35.6762 23.044 35.627 23.0899 35.5932 23.1467C35.5595 23.2035 35.5427 23.2689 35.5448 23.3351C35.5106 24.0913 35.4573 24.8474 35.4097 25.6228C35.1902 25.4736 34.984 25.3053 34.7935 25.1199C34.4131 24.8014 34.0327 24.477 33.6732 24.1431C33.6276 24.0944 33.569 24.0602 33.5045 24.0445C33.44 24.0289 33.3724 24.0324 33.3099 24.0548C32.5871 24.2467 31.8605 24.4386 31.0921 24.6497C31.1339 24.5404 31.1624 24.4578 31.1948 24.383C31.4592 23.7477 31.7197 23.1106 31.9898 22.4792C32.0151 22.4296 32.0257 22.3737 32.0203 22.3182C32.0149 22.2628 31.9938 22.21 31.9594 22.1664C31.579 21.5893 31.2087 21.0136 30.8486 20.4391C30.7972 20.3604 30.7288 20.3029 30.7326 20.1973Z" fill="#F3CE4C"/>
<path d="M20.1146 31.8637C20.282 31.7596 20.4274 31.6233 20.5426 31.4626C21.962 29.8993 23.258 28.2265 24.419 26.4594C25.4876 24.8701 26.3529 23.151 26.9944 21.3429C27.4532 20.0697 27.6474 18.7148 27.565 17.3626C27.4594 16.1155 27.0282 14.9189 26.3154 13.8947C25.3263 12.4361 23.9302 11.607 22.2297 11.2635C21.4768 11.1257 20.7124 11.0614 19.9473 11.0716C20.428 11.0124 20.9131 10.9964 21.3966 11.0236C23.0971 11.085 24.6796 11.5072 26.0472 12.582C27.1884 13.4744 27.8903 14.6527 28.3487 16.0096C28.9706 17.8558 28.7918 19.6713 28.1813 21.4753C27.5041 23.477 26.4143 25.2465 25.138 26.9104C23.9195 28.5183 22.5289 29.9858 20.9915 31.2861C20.7062 31.5259 20.4057 31.7486 20.1108 31.9769C20.0924 31.9866 20.0724 31.993 20.0519 31.9961C20.0214 31.9194 20.0671 31.8963 20.1146 31.8637Z" fill="#8279A1"/>
<path d="M14.0144 2.25504C14.3528 2.27367 14.6841 2.36111 14.9882 2.51209C15.2923 2.66307 15.5631 2.87448 15.7843 3.13365C16.0054 3.39282 16.1724 3.6944 16.2752 4.02029C16.378 4.34618 16.4145 4.68967 16.3825 5.03014C16.3615 5.36825 16.2735 5.69867 16.1236 6.00183C15.9738 6.30499 15.7651 6.57471 15.5101 6.79502C15.255 7.01533 14.9587 7.18174 14.6387 7.28439C14.3188 7.38704 13.9816 7.42384 13.6473 7.39262C13.0684 7.35082 12.5225 7.10489 12.1052 6.69789C11.6879 6.29088 11.4258 5.74875 11.3648 5.1664C11.285 4.56519 11.4142 3.95464 11.7305 3.43881C12.0468 2.92298 12.5306 2.53379 13.0995 2.33756C13.3935 2.23626 13.7073 2.20795 14.0144 2.25504Z" fill="#F3CE4C"/>
<path d="M23.3183 10.3521C22.9837 10.3004 22.6627 10.182 22.3741 10.0037C22.0855 9.82535 21.835 9.59074 21.6374 9.31356C21.4397 9.03639 21.2988 8.72221 21.223 8.38943C21.1471 8.05665 21.1378 7.71194 21.1956 7.37548C21.458 5.89389 22.7476 5.01108 24.2388 5.29512C25.6007 5.50814 26.3711 6.9763 26.1961 8.17385C25.9678 9.67271 24.5527 10.6515 23.3183 10.3521Z" fill="#2C2A6B"/>
<path d="M28.8867 9.79713C29.5562 9.85087 30.1858 9.89117 30.8116 9.95834C30.8766 9.97062 30.9437 9.96334 31.0045 9.9374C31.0654 9.91146 31.1174 9.86802 31.154 9.81249C31.5458 9.31542 31.949 8.82796 32.3827 8.29443C32.4702 8.66291 32.5501 8.98916 32.6281 9.31542C32.7061 9.64168 32.7783 9.9238 32.8392 10.2309C32.8459 10.2869 32.8691 10.3397 32.9057 10.3824C32.9422 10.4252 32.9906 10.4559 33.0446 10.4708C33.6476 10.7011 34.2467 10.939 34.8896 11.1904L34.2848 11.5608C33.9215 11.7835 33.562 12.0118 33.193 12.2287C33.1432 12.2537 33.1018 12.2928 33.0737 12.3412C33.0457 12.3896 33.0323 12.4452 33.0351 12.5012C33.0123 13.0885 32.9762 13.6777 32.9438 14.2649C32.9438 14.3187 32.9305 14.3705 32.9229 14.4434C32.736 14.3358 32.5656 14.2013 32.4169 14.0442C32.0809 13.7679 31.7525 13.4832 31.4317 13.1902C31.3906 13.1471 31.3379 13.1171 31.2801 13.1038C31.2223 13.0905 31.162 13.0945 31.1064 13.1154C30.4921 13.2842 29.8758 13.4454 29.2177 13.622C29.2919 13.4301 29.3527 13.2727 29.4174 13.1173C29.6076 12.672 29.7845 12.2268 29.9747 11.7854C30.0002 11.7356 30.011 11.6796 30.006 11.6238C30.0009 11.568 29.9802 11.5149 29.9462 11.4706C29.6361 10.9985 29.3356 10.5111 29.0313 10.0428C28.9875 9.9737 28.9476 9.90076 28.8867 9.79713Z" fill="#F3CE4C"/>
<path d="M89.7491 16.4854C89.7491 17.6485 89.7491 18.8134 89.7491 19.9764C89.7491 20.151 89.7034 20.1952 89.5342 20.1875C89.1861 20.1741 88.8361 20.1741 88.4861 20.1875C88.3092 20.1875 88.2598 20.1472 88.2598 19.963C88.2598 18.4487 88.2598 16.9326 88.2598 15.4165C88.2598 14.6066 88.2598 13.7948 88.2598 12.983C88.2598 12.8083 88.3054 12.7623 88.4747 12.768C88.8304 12.7815 89.188 12.7815 89.5456 12.768C89.7053 12.768 89.7472 12.8122 89.7472 12.9715C89.7453 14.1441 89.7491 15.3148 89.7491 16.4854Z" fill="#2C2B6B"/>
<path d="M69.726 16.4588C69.726 17.6314 69.726 18.804 69.726 19.9766C69.726 20.1493 69.6861 20.1954 69.5149 20.1877C69.1497 20.1743 68.7845 20.1877 68.4193 20.1877C68.2995 20.1877 68.25 20.1685 68.25 20.0284C68.25 17.6627 68.25 15.2958 68.25 12.9275C68.25 12.8066 68.2842 12.7721 68.4041 12.774C68.7845 12.774 69.1649 12.7855 69.5453 12.774C69.7089 12.774 69.7355 12.8335 69.7355 12.9659C69.7241 14.1308 69.726 15.2939 69.726 16.4588Z" fill="#2C2A6B"/>
<path d="M7.50533 2.16113C7.61755 2.64284 7.72026 3.06313 7.81346 3.48535C7.8224 3.55242 7.85056 3.61539 7.89449 3.66653C7.93842 3.71768 7.9962 3.75476 8.06073 3.77322C8.46586 3.91716 8.86339 4.08413 9.31418 4.26069C9.01767 4.46577 8.70896 4.65228 8.38978 4.81916C8.2434 4.87665 8.12037 4.98203 8.04036 5.11842C7.96036 5.25481 7.92801 5.41433 7.9485 5.57147C7.9485 5.91116 7.91617 6.25277 7.89525 6.64428C7.56239 6.35449 7.24854 6.10499 6.96133 5.82864C6.89589 5.75177 6.80826 5.69749 6.71071 5.6734C6.61316 5.64931 6.51057 5.65662 6.41734 5.6943C6.03693 5.81712 5.64321 5.90541 5.21144 6.01864C5.31844 5.70424 5.44551 5.39717 5.59186 5.09936C5.6972 4.94804 5.74637 4.76412 5.73071 4.57987C5.71506 4.39563 5.63559 4.22283 5.50626 4.0918C5.32553 3.8467 5.16034 3.5903 5.01172 3.32414C5.01172 3.31454 5.01172 3.29535 5.01172 3.25697C5.44349 3.29151 5.87145 3.3203 6.29942 3.36444C6.36941 3.37466 6.44084 3.36498 6.50569 3.3365C6.57054 3.30803 6.62622 3.26188 6.66651 3.20323C6.92519 2.86546 7.201 2.53921 7.50533 2.16113Z" fill="#F3CE4C"/>
<path d="M44.5422 12.5935C44.0729 12.5638 43.602 12.6118 43.148 12.7355C42.4736 12.9697 41.914 13.4561 41.5845 14.0943C41.1431 14.8843 40.9352 15.7854 40.9854 16.6909C41.0198 17.4534 41.3009 18.1836 41.7856 18.7697C42.2702 19.3557 42.9318 19.7655 43.6692 19.9362C44.05 20.0306 44.4459 20.0462 44.8329 19.9823C45.2199 19.9183 45.5901 19.776 45.9212 19.5639C45.9737 19.5347 46.0284 19.5097 46.0848 19.4891C45.7875 19.84 45.3824 20.0805 44.934 20.1723C44.3249 20.3582 43.6802 20.3929 43.055 20.2732C42.4297 20.1536 41.8424 19.8833 41.343 19.4852C40.9833 19.2118 40.6839 18.8658 40.4638 18.4694C40.2438 18.0729 40.1079 17.6346 40.0648 17.1822C39.9286 16.252 40.1018 15.3024 40.5574 14.482C41.128 13.4744 42.0201 12.8948 43.1271 12.6358C43.5906 12.5211 44.0728 12.5067 44.5422 12.5935Z" fill="#F8E4A5"/>
<path d="M4.80469 20.3718C4.9194 19.9062 5.10757 19.4624 5.36199 19.0571C5.53127 19.4832 5.68153 19.8689 5.8337 20.2547C6.63287 22.3244 7.74479 24.2569 9.12997 25.9834C9.63576 26.6256 10.2098 27.21 10.8418 27.726C10.9153 27.7707 10.9726 27.8379 11.0054 27.9179C10.5782 27.6726 10.1778 27.3824 9.81091 27.0523C8.28129 25.7704 6.97939 24.2349 5.96114 22.5116C5.57678 21.8715 5.23062 21.2089 4.92452 20.5272C4.89789 20.4639 4.89789 20.3718 4.80469 20.3718Z" fill="#F8E4A5"/>
<path d="M3.26183 8.64001C2.94418 8.83193 2.6912 9.00081 2.4116 9.15435C2.35806 9.1806 2.31353 9.2224 2.2837 9.27437C2.25388 9.32635 2.24013 9.38614 2.24422 9.44606C2.24422 9.75505 2.21379 10.0659 2.19287 10.4229C1.91707 10.1868 1.67171 9.98533 1.43205 9.77231C1.39423 9.73104 1.34498 9.7022 1.29071 9.68954C1.23643 9.67688 1.17965 9.68097 1.12771 9.7013C0.825284 9.78766 0.519052 9.86443 0.176682 9.95655C0.317434 9.61302 0.43346 9.31556 0.557094 9.02384C0.582077 8.9771 0.592872 8.92396 0.588137 8.87106C0.583402 8.81817 0.563343 8.76785 0.530462 8.72638C0.35357 8.46153 0.186198 8.18901 -0.0078125 7.88578C0.347873 7.91073 0.669317 7.92992 0.986961 7.96063C1.04244 7.96954 1.09928 7.96172 1.15037 7.93816C1.20147 7.91461 1.24454 7.87636 1.27417 7.82821C1.46438 7.58256 1.666 7.34458 1.89425 7.06055C1.97413 7.40024 2.04831 7.69771 2.10918 7.9971C2.11716 8.06452 2.14498 8.12798 2.18905 8.17929C2.23313 8.23061 2.29144 8.26742 2.35645 8.28497C2.64746 8.38476 2.92516 8.50567 3.26183 8.64001Z" fill="#F3CE4C"/>
<path d="M13.0658 28.6071C13.2845 28.7012 13.5033 28.6071 13.7125 28.5841C16.2029 28.2831 18.5943 27.4213 20.7102 26.0623C21.4444 25.6017 22.1589 25.1117 22.8538 24.5922C22.9071 24.5519 22.9641 24.5174 23.063 24.4521C23.0195 24.909 22.9257 25.3596 22.7834 25.7956C22.7492 25.6036 22.6484 25.738 22.5932 25.7668C21.9123 26.141 21.2161 26.4807 20.5009 26.7954C18.7555 27.6011 16.9163 28.1815 15.0268 28.5227C14.3902 28.6301 13.7455 28.6821 13.1 28.6781C13.0677 28.6781 12.9897 28.7299 13.0011 28.6301C13.0125 28.6263 13.0468 28.6167 13.0658 28.6071Z" fill="#8279A1"/>
<path d="M23.3184 10.3519C23.7111 10.3734 24.1046 10.328 24.4824 10.2176C24.9922 10.0325 25.4295 9.68682 25.7295 9.23164C26.0296 8.77647 26.1765 8.23597 26.1486 7.69003C26.1317 7.1669 25.9541 6.662 25.6402 6.24526C25.3263 5.82852 24.8918 5.52056 24.3968 5.36401C24.3406 5.3438 24.2853 5.32074 24.2313 5.29492C24.8372 5.32915 25.4121 5.57659 25.8558 5.99421C26.2996 6.41182 26.5843 6.97317 26.6603 7.58064C26.7383 8.25267 26.554 8.92894 26.1464 9.46626C25.7388 10.0036 25.14 10.3597 24.4767 10.4594C24.0882 10.5334 23.687 10.4962 23.3184 10.3519Z" fill="#8279A1"/>
<path d="M14.0135 2.25513C12.7296 2.27049 11.8604 3.02279 11.5408 4.01116C11.4214 4.36242 11.3795 4.73578 11.4181 5.10509C11.4566 5.4744 11.5747 5.83075 11.764 6.1492C11.9534 6.46764 12.2094 6.7405 12.5142 6.94867C12.8189 7.15683 13.1651 7.29529 13.5285 7.35433C13.5711 7.36448 13.613 7.3773 13.654 7.39272C12.2865 7.41383 11.1814 6.58283 10.9303 5.24326C10.8659 4.895 10.873 4.5371 10.9511 4.19172C11.0293 3.84634 11.1769 3.52082 11.3848 3.23532C11.5927 2.94982 11.8565 2.7104 12.1598 2.5319C12.4631 2.3534 12.7995 2.23961 13.1481 2.19756C13.4372 2.15014 13.7331 2.16983 14.0135 2.25513Z" fill="#F8E4A5"/>
<path d="M68.1271 10.544C68.1248 10.4277 68.1457 10.3121 68.1884 10.2042C68.2312 10.0962 68.295 9.99793 68.376 9.91526C68.4571 9.83259 68.5537 9.76716 68.6603 9.72285C68.7668 9.67854 68.8811 9.65625 68.9964 9.6573C69.1099 9.65578 69.2226 9.67697 69.328 9.71964C69.4334 9.76231 69.5293 9.82563 69.6103 9.90592C69.6913 9.98622 69.7557 10.0819 69.7999 10.1875C69.844 10.293 69.867 10.4064 69.8675 10.5209C69.8698 10.6375 69.849 10.7533 69.8063 10.8616C69.7636 10.9699 69.6999 11.0685 69.6189 11.1516C69.538 11.2347 69.4414 11.3007 69.3348 11.3457C69.2282 11.3906 69.1138 11.4136 68.9983 11.4133C68.8845 11.4141 68.7716 11.3922 68.6662 11.3489C68.5608 11.3056 68.4649 11.2417 68.384 11.161C68.303 11.0802 68.2387 10.9841 68.1946 10.8783C68.1506 10.7724 68.1276 10.6588 68.1271 10.544Z" fill="#2C2B6B"/>
<path d="M88.1495 10.5074C88.1502 10.3927 88.1736 10.2794 88.2185 10.1741C88.2633 10.0687 88.3286 9.97355 88.4105 9.89412C88.4925 9.81469 88.5893 9.75262 88.6954 9.7116C88.8015 9.67058 88.9147 9.65142 89.0282 9.65527C89.1438 9.65676 89.2579 9.68134 89.364 9.72758C89.4701 9.77382 89.566 9.8408 89.6463 9.92467C89.7266 10.0085 89.7896 10.1076 89.8318 10.2162C89.8739 10.3248 89.8943 10.4407 89.8918 10.5573C89.8838 10.7889 89.7861 11.0081 89.6196 11.1678C89.4532 11.3275 89.2313 11.415 89.0016 11.4113C88.886 11.4112 88.7716 11.3874 88.6654 11.3413C88.5592 11.2953 88.4633 11.228 88.3837 11.1435C88.304 11.059 88.2421 10.959 88.2019 10.8497C88.1616 10.7403 88.1438 10.6239 88.1495 10.5074Z" fill="#2C2B6B"/>
<path d="M16.9336 11.4034L16.9849 11.3535L17.1162 11.4706C17.0826 11.4789 17.0473 11.4769 17.0148 11.4649C16.9823 11.453 16.954 11.4316 16.9336 11.4034Z" fill="#F8E09A"/>
<path d="M11.4121 28.1865L11.4673 28.1328C11.5072 28.1654 11.5738 28.2057 11.5281 28.2499C11.4825 28.294 11.4425 28.2288 11.4121 28.1865Z" fill="#F8DF95"/>
<path d="M14.7551 17.2783L14.7019 17.3321L14.582 17.2764C14.6505 17.2112 14.7038 17.2419 14.7551 17.2783Z" fill="#67608E"/>
<path d="M105.601 13.9908C105.705 13.9908 105.816 14.0119 105.907 13.9313V12.7798H102.601C102.335 12.783 102.07 12.8151 101.81 12.8757C101.017 13.0504 100.332 13.4035 99.9326 14.1558C99.2612 15.4282 99.7424 16.8925 101.045 17.5604C101.114 17.5949 101.201 17.6045 101.236 17.6851C100.771 17.8368 100.315 18.0018 100.149 18.5123C99.9593 19.088 100.404 19.3721 100.796 19.683C100.64 19.7329 100.513 19.7713 100.385 19.8192C99.8014 20.0342 99.3164 20.3624 99.1014 20.9918C98.7819 21.9342 99.1147 22.8323 99.9935 23.3831C100.609 23.7531 101.31 23.9554 102.027 23.9704C102.953 24.0126 103.864 23.9435 104.707 23.4963C105.032 23.3425 105.31 23.1036 105.512 22.8046C105.715 22.5056 105.834 22.1573 105.858 21.796C105.875 21.6959 105.88 21.5941 105.873 21.4927C105.889 21.216 105.833 20.9399 105.71 20.6918C105.588 20.4437 105.403 20.2322 105.175 20.0783C104.741 19.7768 104.248 19.5744 103.729 19.4853C103.199 19.3851 102.676 19.2518 102.162 19.0861C102.012 19.0404 101.871 18.9668 101.747 18.8693C101.695 18.836 101.652 18.7888 101.624 18.7328C101.597 18.6768 101.585 18.6142 101.59 18.5518C101.595 18.4894 101.617 18.4297 101.653 18.379C101.69 18.3284 101.739 18.2889 101.797 18.2647C101.908 18.1987 102.031 18.1538 102.158 18.1323C102.478 18.0632 102.801 18.0114 103.122 17.9404C104.073 17.7485 104.747 17.2495 105.078 16.3149C105.34 15.5779 105.293 14.887 104.792 14.2556C104.719 14.1822 104.66 14.0948 104.619 13.9984C104.946 13.9793 105.277 13.9984 105.601 13.9908ZM101.812 20.562C102.442 20.5158 103.074 20.6061 103.666 20.8268C103.787 20.8735 103.901 20.9334 104.009 21.0053C104.629 21.416 104.6 22.1318 103.95 22.4946C103.469 22.7632 102.936 22.7843 102.428 22.8055C101.964 22.8139 101.502 22.7378 101.064 22.5809C100.673 22.4139 100.397 22.1453 100.387 21.6923C100.378 21.2394 100.636 20.9727 101.003 20.7788C101.254 20.6489 101.53 20.5749 101.812 20.562ZM103.843 15.4724C103.827 15.6657 103.771 15.8535 103.678 16.0235C103.586 16.1935 103.459 16.342 103.306 16.4592C103.152 16.5765 102.977 16.66 102.789 16.7042C102.602 16.7484 102.408 16.7524 102.219 16.716C101.469 16.6047 101.002 16.1287 100.979 15.4532C100.954 14.6855 101.603 14.0599 102.44 14.0618C103.276 14.0637 103.906 14.7162 103.843 15.4724Z" fill="#2C2A6B"/>
<path d="M47.242 17.086C47.1265 17.362 46.9735 17.6203 46.7874 17.8537C46.407 18.3047 45.8972 18.439 45.3456 18.4736C44.1835 18.5465 43.2895 18.0092 43.164 16.6734C43.1544 16.6378 43.1525 16.6005 43.1582 16.5641C43.1638 16.5276 43.1771 16.4928 43.197 16.4618C43.2169 16.4309 43.2431 16.4045 43.2737 16.3844C43.3044 16.3643 43.339 16.351 43.3751 16.3452C44.3699 15.996 45.3608 15.6332 46.3537 15.2782C47.0309 15.0364 47.0385 15.0345 46.7341 14.3858C46.2833 13.4492 45.6214 12.7679 44.5506 12.601C44.3703 12.5761 44.188 12.5703 44.0066 12.5837C42.8653 12.5683 42.0627 13.1211 41.5244 14.1056C41.2172 14.6881 41.0235 15.3246 40.9538 15.9806C40.8425 16.7452 40.9786 17.5256 41.3418 18.206C41.705 18.8864 42.276 19.4305 42.97 19.7575C44.0446 20.2526 45.1041 20.2335 46.0912 19.4965C46.475 19.2312 46.7832 18.869 46.9851 18.4461C47.187 18.0232 47.2756 17.5542 47.242 17.086ZM43.0784 14.7197C43.1564 14.0327 43.571 13.6143 44.2196 13.5682C44.3598 13.5732 44.4976 13.6063 44.625 13.6656C44.7523 13.7249 44.8667 13.8093 44.9614 13.9137C45.1368 14.0837 45.2799 14.2847 45.3837 14.5067C45.4293 14.5969 45.4502 14.6833 45.3133 14.714C44.6685 14.8138 44.0237 14.9059 43.3789 15.0153C43.0346 15.069 43.0365 15.0748 43.0784 14.7197Z" fill="#F3CE4C"/>
<path d="M45.3125 14.7105C45.4324 14.6299 45.3468 14.5512 45.3125 14.4783C45.2082 14.2548 45.0566 14.0571 44.8682 13.8993C44.6799 13.7414 44.4595 13.6272 44.2227 13.5648C44.3813 13.5322 44.5448 13.5325 44.7034 13.5654C44.8619 13.5984 45.0122 13.6635 45.1452 13.7567C45.429 13.9399 45.6485 14.2084 45.7728 14.5243C45.809 14.6088 45.8223 14.674 45.6968 14.6702C45.5712 14.6664 45.4457 14.7412 45.3125 14.7105Z" fill="#F8E4A5"/>
</g>
<defs>
<clipPath id="clip0_18964_47247">
<rect width="105.905" height="32" fill="white"/>
</clipPath>
</defs>
</svg>
