<?xml version="1.0" encoding="UTF-8" standalone="no"?>
<!DOCTYPE svg PUBLIC "-//W3C//DTD SVG 1.1//EN" "http://www.w3.org/Graphics/SVG/1.1/DTD/svg11.dtd">
<svg xmlns="http://www.w3.org/2000/svg" xmlns:xl="http://www.w3.org/1999/xlink" xmlns:dc="http://purl.org/dc/elements/1.1/" version="1.1" viewBox="0 0 384.7 99.2" width="384.7" height="99.2">
  <defs/>
  <g id="Canvas_1" stroke="none" stroke-opacity="1" fill-opacity="1" fill="none" stroke-dasharray="none">
    <title>Canvas 1</title>
    <g id="Canvas_1_Layer_1">
      <title>Layer 1</title>
      <g id="Group_2">
        <g id="Group_77">
          <g id="Graphic_84">
            <path d="M 89.5 51.6 L 86 70.9 L 78.6 70.9 L 81.9 52.7 C 82.1 51.8 82.2 51 82.2 50.1 C 82.2 47.7 80.6 46.4 78.4 46.4 C 76.5 46.4 74.9 47.5 73.7 48.9 C 71.6 51.4 70.6 55.2 70.2 57.9 L 67.8 70.9 L 60.6 70.9 L 63.8 52.7 C 64 51.9 64.1 51 64.1 50.1 C 64.1 48 62.9 46.4 60.3 46.4 C 57.9 46.4 56.1 48.3 54.8 50.2 C 53.6 52.1 52.6 55.7 52.2 58 L 49.8 71 L 42.4 71 L 47.8 40.4 L 53.8 40.4 L 53.8 44 C 55.9 41.4 59.7 39.5 63 39.5 C 65.1 39.5 66.8 39.7 68.3 40.9 C 69.9 42.1 70.8 43.8 71 45 C 73.4 41.8 77.1 39.5 81.1 39.5 C 83.8 39.5 85.8 40.3 87.3 41.7 C 88.9 43.2 89.7 45.4 89.7 47.5 C 89.9 48.8 89.7 50.3 89.5 51.6 Z" fill="#ec6661"/>
          </g>
          <g id="Graphic_83">
            <path d="M 115.6 67.7 C 113.3 69.9 109.6 71.6 105.5 71.6 C 102.3 71.6 99.1 70.6 96.7 68.3 C 93.9 65.7 92.7 62.1 92.7 58.4 C 92.7 52.9 94.3 47.3 98.3 43.4 C 100.6 41.2 104.2 39.5 108.3 39.5 C 111.5 39.5 114.8 40.5 117.2 42.8 C 120 45.4 121.1 49 121.1 52.7 C 121.2 58.2 119.7 63.9 115.6 67.7 Z M 112.7 48.3 C 111.6 46.7 109.9 45.9 108 45.9 C 106.2 45.9 104.8 46.7 103.8 47.5 C 100.9 50 100 55 100 58.7 C 100 60.2 100.3 61.6 101.1 62.9 C 102.2 64.5 103.9 65.3 105.8 65.3 C 107.6 65.3 109 64.5 110 63.7 C 112.9 61.3 113.8 56.2 113.8 52.6 C 113.8 50.9 113.5 49.5 112.7 48.3 Z" fill="#ec6661"/>
          </g>
          <g id="Graphic_82">
            <path d="M 137 70.9 L 129.2 70.9 L 123.3 40.3 L 130.7 40.3 L 134.5 61.8 L 145.6 40.3 L 153.6 40.3 Z" fill="#ec6661"/>
          </g>
          <g id="Graphic_81">
            <path d="M 196.6 71.3 C 190.4 71.3 187.4 67.8 187.4 61.9 L 187.4 46.3 L 181.8 46.3 L 181.8 40.2 L 187.4 40.2 L 187.4 32.4 L 194.8 30.6 L 194.8 40.2 L 202.5 40.2 L 202.5 46.3 L 194.8 46.3 L 194.8 61.2 C 194.8 63.6 195.9 64.6 198.2 64.6 C 199.7 64.6 201 64.5 203 64.3 L 203 70.5 C 200.8 71 198.8 71.3 196.6 71.3 Z" fill="#57ba9e"/>
          </g>
          <g id="Graphic_80">
            <path d="M 207.6 36 L 207.6 28.4 L 215.5 28.4 L 215.5 36 Z M 207.8 70.9 L 207.8 40.3 L 215.3 40.3 L 215.3 70.9 Z" fill="#57ba9e"/>
          </g>
          <g id="Graphic_79">
            <path d="M 245.6 71.3 C 242.4 71.3 240.7 69.3 240.4 67 C 239 69.5 235.5 71.6 231.1 71.6 C 223.8 71.6 220 67 220 62 C 220 56.2 224.5 52.8 230.4 52.4 L 239.4 51.8 L 239.4 49.9 C 239.4 47 238.4 45.1 234.2 45.1 C 230.8 45.1 228.8 46.6 228.6 49.5 L 221.5 49.5 C 221.9 42.6 227.4 39.6 234.2 39.6 C 239.4 39.6 243.9 41.2 245.7 45.8 C 246.5 47.7 246.6 49.9 246.6 52 L 246.6 63.4 C 246.6 64.8 247.1 65.3 248.3 65.3 C 248.8 65.3 249.2 65.2 249.2 65.2 L 249.2 70.6 C 248.1 71 247.4 71.3 245.6 71.3 Z M 239.5 57.3 L 231.7 57.9 C 229.5 58.1 227.3 59.4 227.3 61.9 C 227.3 64.3 229.4 65.7 231.7 65.7 C 236.3 65.7 239.5 63.2 239.5 58.7 Z" fill="#57ba9e"/>
          </g>
          <g id="Graphic_78">
            <path d="M 179.8 56.8 C 179.7 57.2 179.6 57.5 179.6 57.9 L 158.4 57.9 C 158.4 59.8 158.5 61.5 159.6 63.2 C 160.8 64.9 162.8 65.7 164.7 65.7 C 167.3 65.7 169.7 64.6 170.7 62.2 L 177.8 62.2 C 177.1 64.5 176 66.4 174.2 68.1 C 171.9 70.3 168.6 71.7 164.4 71.7 C 160.6 71.7 157.5 70.2 155.2 68 C 152.7 65.5 151.4 61.5 151.4 58.2 C 151.4 56.9 151.5 55.6 151.8 54.3 C 152.5 50.2 154.3 46.5 157.3 43.7 C 159.6 41.5 163.4 39.6 167.7 39.6 C 172.8 39.6 176.9 42.3 178.6 46.1 C 179.8 48.8 180.1 50.5 180.1 53.2 C 180.1 54.3 180 55.5 179.8 56.8 Z M 171.6 47.2 C 170.6 46.1 169.1 45.4 167.1 45.4 C 165.2 45.4 163.4 46.3 162.3 47.2 C 160.7 48.6 159.8 50.4 159.2 52.4 L 173.2 52.4 C 173.2 52.1 173.3 51.9 173.3 51.6 C 173.2 50.1 172.7 48.4 171.6 47.2 Z" fill="#57ba9e"/>
          </g>
        </g>
        <g id="Group_3">
          <g id="Graphic_76">
            <path d="M 266.9 45.3 L 266.5 44.1 L 264.3 44.1 L 263.9 45.3 L 263.3 45.3 L 265.1 40.3 L 265.8 40.3 L 267.6 45.3 Z M 265.4 41 L 264.5 43.6 L 266.3 43.6 Z" fill="#57ba9e"/>
          </g>
          <g id="Graphic_75">
            <path d="M 270.5 45.3 L 270.5 44.8 C 270.3 45.2 269.9 45.4 269.4 45.4 C 268.6 45.4 268.2 44.9 268.2 44.1 L 268.2 41.8 L 268.8 41.8 L 268.8 44 C 268.8 44.5 269 44.8 269.6 44.8 C 269.8 44.8 270 44.7 270.2 44.5 C 270.4 44.3 270.5 43.9 270.5 43.5 L 270.5 41.7 L 271.1 41.7 L 271.1 45.3 Z" fill="#57ba9e"/>
          </g>
          <g id="Graphic_74">
            <path d="M 274.6 45 C 274.3 45.3 273.9 45.4 273.4 45.4 C 273 45.4 272.6 45.3 272.2 45 C 272 44.8 271.9 44.5 271.9 44.2 L 272.5 44.2 C 272.5 44.4 272.6 44.6 272.8 44.8 C 273 44.9 273.2 45 273.4 45 C 273.6 45 273.9 45 274.1 44.8 C 274.2 44.7 274.3 44.6 274.3 44.4 C 274.3 44.1 274.1 43.9 273.7 43.9 L 272.9 43.8 C 272.4 43.7 272 43.4 272 42.8 C 272 42.5 272.1 42.3 272.3 42.1 C 272.5 41.9 272.9 41.7 273.3 41.7 C 273.8 41.7 274.2 41.8 274.4 42.1 C 274.6 42.3 274.7 42.5 274.7 42.8 L 274.1 42.8 C 274.1 42.6 274 42.4 273.9 42.4 C 273.8 42.3 273.6 42.2 273.3 42.2 C 273.2 42.2 273.1 42.2 272.9 42.3 C 272.7 42.4 272.5 42.6 272.5 42.8 C 272.5 43.1 272.7 43.2 273 43.3 C 273.2 43.3 273.5 43.4 273.9 43.4 C 274.4 43.5 274.8 43.8 274.8 44.4 C 274.9 44.6 274.8 44.8 274.6 45 Z" fill="#57ba9e"/>
          </g>
          <g id="Graphic_73">
            <path d="M 277 45.4 C 276.2 45.4 276 44.9 276 44.4 L 276 42.3 L 275.3 42.3 L 275.3 41.8 L 276 41.8 L 276 40.9 L 276.6 40.8 L 276.6 41.8 L 277.7 41.8 L 277.7 42.3 L 276.6 42.3 L 276.6 44.4 C 276.6 44.7 276.7 44.9 277.1 44.9 C 277.4 44.9 277.7 44.8 277.7 44.8 L 277.7 45.3 C 277.6 45.3 277.4 45.4 277 45.4 Z" fill="#57ba9e"/>
          </g>
          <g id="Graphic_72">
            <path d="M 281.2 45.4 C 280.9 45.4 280.7 45.2 280.7 44.9 C 280.5 45.3 280.1 45.5 279.6 45.5 C 278.8 45.5 278.4 45 278.4 44.4 C 278.4 43.9 278.7 43.3 279.7 43.3 L 280.8 43.2 L 280.8 42.9 C 280.8 42.7 280.8 42.5 280.6 42.4 C 280.5 42.3 280.3 42.2 280 42.2 C 279.7 42.2 279.5 42.3 279.4 42.4 C 279.3 42.5 279.2 42.7 279.2 42.8 L 278.6 42.8 C 278.6 42.5 278.7 42.2 278.9 42.1 C 279.1 41.8 279.6 41.7 280 41.7 C 280.7 41.7 281.1 42 281.2 42.4 C 281.3 42.6 281.3 42.7 281.3 42.9 L 281.3 44.6 C 281.3 44.8 281.4 44.8 281.5 44.8 C 281.6 44.8 281.7 44.8 281.7 44.8 L 281.7 45.2 C 281.4 45.3 281.3 45.4 281.2 45.4 Z M 280.6 43.6 L 279.6 43.7 C 279.2 43.7 278.8 43.9 278.8 44.3 C 278.8 44.6 279 44.9 279.5 44.9 C 279.8 44.9 280 44.8 280.2 44.6 C 280.4 44.4 280.5 44.1 280.5 43.8 L 280.5 43.6 Z" fill="#57ba9e"/>
          </g>
          <g id="Graphic_71">
            <path d="M 284.7 45.3 L 284.7 44.8 C 284.5 45.2 284.1 45.4 283.6 45.4 C 282.8 45.4 282.4 44.9 282.4 44.1 L 282.4 41.8 L 283 41.8 L 283 44 C 283 44.5 283.2 44.8 283.8 44.8 C 284 44.8 284.2 44.7 284.4 44.5 C 284.6 44.3 284.7 43.9 284.7 43.5 L 284.7 41.7 L 285.3 41.7 L 285.3 45.3 Z" fill="#57ba9e"/>
          </g>
          <g id="Graphic_70">
            <path d="M 288.9 45 C 288.6 45.3 288.2 45.4 287.7 45.4 C 287.3 45.4 286.9 45.3 286.5 45 C 286.3 44.8 286.2 44.5 286.2 44.2 L 286.8 44.2 C 286.8 44.4 286.9 44.6 287.1 44.8 C 287.3 44.9 287.5 45 287.7 45 C 287.9 45 288.2 45 288.4 44.8 C 288.5 44.7 288.6 44.6 288.6 44.4 C 288.6 44.1 288.4 43.9 288 43.9 L 287.2 43.8 C 286.7 43.7 286.3 43.4 286.3 42.8 C 286.3 42.5 286.4 42.3 286.6 42.1 C 286.8 41.9 287.2 41.7 287.6 41.7 C 288.1 41.7 288.5 41.8 288.7 42.1 C 288.9 42.3 289 42.5 289 42.8 L 288.4 42.8 C 288.4 42.6 288.3 42.4 288.2 42.4 C 288.1 42.3 287.9 42.2 287.6 42.2 C 287.5 42.2 287.4 42.2 287.2 42.3 C 287 42.4 286.8 42.6 286.8 42.8 C 286.8 43.1 287 43.2 287.3 43.3 C 287.5 43.3 287.8 43.4 288.2 43.4 C 288.7 43.5 289.1 43.8 289.1 44.4 C 289.2 44.6 289.1 44.8 288.9 45 Z" fill="#57ba9e"/>
          </g>
          <g id="Graphic_69">
            <path d="M 292.6 45 C 292.3 45.2 292 45.4 291.6 45.4 C 291 45.4 290.6 45.1 290.3 44.7 C 290.1 44.4 290 44 290 43.5 C 290 43 290.1 42.6 290.3 42.3 C 290.6 41.9 291 41.6 291.6 41.6 C 292 41.6 292.4 41.7 292.6 42 C 292.8 42.2 293 42.5 293 42.9 L 292.4 42.9 C 292.4 42.7 292.3 42.5 292.1 42.3 C 292 42.2 291.8 42.1 291.5 42.1 C 291.2 42.1 291 42.2 290.9 42.3 C 290.6 42.5 290.5 43 290.5 43.4 C 290.5 43.8 290.6 44.3 290.9 44.5 C 291.1 44.6 291.2 44.7 291.5 44.7 C 291.7 44.7 292 44.6 292.1 44.5 C 292.2 44.4 292.3 44.2 292.3 44 L 292.9 44 C 292.9 44.5 292.8 44.8 292.6 45 Z" fill="#57ba9e"/>
          </g>
          <g id="Graphic_68">
            <path d="M 296.2 45.3 L 296.2 43 C 296.2 42.5 296 42.2 295.4 42.2 C 295.1 42.2 294.8 42.4 294.6 42.7 C 294.5 43 294.5 43.3 294.5 43.6 L 294.5 45.2 L 293.9 45.2 L 293.9 40.1 L 294.5 40.1 L 294.5 42.1 C 294.7 41.7 295.1 41.5 295.5 41.5 C 296.3 41.5 296.7 42 296.7 42.8 L 296.7 45.1 L 296.2 45.1 Z" fill="#57ba9e"/>
          </g>
          <g id="Graphic_67">
            <path d="M 301.9 45.3 L 301.9 44.8 C 301.7 45.2 301.3 45.4 300.8 45.4 C 300 45.4 299.6 44.9 299.6 44.1 L 299.6 41.8 L 300.2 41.8 L 300.2 44 C 300.2 44.5 300.4 44.8 301 44.8 C 301.2 44.8 301.4 44.7 301.6 44.5 C 301.8 44.3 301.9 43.9 301.9 43.5 L 301.9 41.7 L 302.5 41.7 L 302.5 45.3 Z" fill="#57ba9e"/>
          </g>
          <g id="Graphic_66">
            <path d="M 306 45.3 L 306 43 C 306 42.5 305.8 42.2 305.2 42.2 C 304.9 42.2 304.6 42.4 304.4 42.7 C 304.3 43 304.3 43.3 304.3 43.6 L 304.3 45.2 L 303.7 45.2 L 303.7 41.6 L 304.2 41.6 L 304.2 42.1 C 304.4 41.7 304.9 41.5 305.3 41.5 C 306.1 41.5 306.5 42 306.5 42.8 L 306.5 45.1 L 306 45.1 Z" fill="#57ba9e"/>
          </g>
          <g id="Graphic_65">
            <path d="M 310.2 45.3 L 310.2 44.8 C 310 45.2 309.5 45.4 309.1 45.4 C 308.7 45.4 308.3 45.3 308.1 45 C 307.8 44.7 307.6 44.1 307.6 43.5 C 307.6 42.9 307.8 42.3 308.1 42 C 308.3 41.8 308.7 41.6 309.1 41.6 C 309.5 41.6 309.9 41.8 310.1 42.1 L 310.1 40.2 L 310.7 40.2 L 310.7 45.3 L 310.2 45.3 Z M 309.7 42.4 C 309.6 42.3 309.4 42.2 309.1 42.2 C 308.3 42.2 308.1 42.9 308.1 43.6 C 308.1 44.3 308.3 45 309.1 45 C 309.4 45 309.5 44.9 309.7 44.8 C 310 44.5 310.1 44.1 310.1 43.7 C 310.1 43.1 310 42.7 309.7 42.4 Z" fill="#57ba9e"/>
          </g>
          <g id="Graphic_64">
            <path d="M 317.8 45.3 L 317.8 41.1 L 316.3 45.2 L 315.8 45.2 L 314.3 41 L 314.3 45.2 L 313.7 45.2 L 313.7 40.2 L 314.6 40.2 L 316.1 44.2 L 317.6 40.2 L 318.5 40.2 L 318.5 45.2 L 317.8 45.2 Z" fill="#57ba9e"/>
          </g>
          <g id="Graphic_63">
            <path d="M 322.1 45 C 321.8 45.3 321.5 45.4 321 45.4 C 320.5 45.4 320.2 45.2 319.9 45 C 319.5 44.6 319.4 44.1 319.4 43.5 C 319.4 42.9 319.5 42.4 319.9 42 C 320.2 41.7 320.5 41.6 321 41.6 C 321.5 41.6 321.8 41.8 322.1 42 C 322.5 42.4 322.6 42.9 322.6 43.5 C 322.6 44.1 322.5 44.6 322.1 45 Z M 321.7 42.4 C 321.6 42.3 321.3 42.1 321.1 42.1 C 320.9 42.1 320.6 42.2 320.5 42.4 C 320.2 42.7 320.2 43.1 320.2 43.5 C 320.2 43.9 320.3 44.3 320.5 44.6 C 320.6 44.7 320.9 44.9 321.1 44.9 C 321.3 44.9 321.6 44.8 321.7 44.6 C 322 44.3 322 43.9 322 43.5 C 322 43.1 322 42.7 321.7 42.4 Z" fill="#57ba9e"/>
          </g>
          <g id="Graphic_62">
            <path d="M 326.3 45 C 326.1 45.2 325.7 45.4 325.3 45.4 C 324.9 45.4 324.4 45.2 324.2 44.8 L 324.2 45.3 L 323.7 45.3 L 323.7 40.2 L 324.3 40.2 L 324.3 42.1 C 324.5 41.8 324.9 41.6 325.3 41.6 C 325.7 41.6 326 41.7 326.3 42 C 326.7 42.3 326.8 42.9 326.8 43.5 C 326.8 44.1 326.6 44.7 326.3 45 Z M 325.2 42.2 C 324.9 42.2 324.8 42.3 324.6 42.4 C 324.3 42.7 324.2 43.1 324.2 43.5 C 324.2 43.9 324.3 44.4 324.6 44.6 C 324.7 44.7 324.9 44.8 325.2 44.8 C 326 44.8 326.2 44.1 326.2 43.4 C 326.2 42.9 326 42.2 325.2 42.2 Z" fill="#57ba9e"/>
          </g>
          <g id="Graphic_61">
            <path d="M 327.8 41 L 327.8 40.3 L 328.5 40.3 L 328.5 41 Z M 327.9 45.3 L 327.9 41.7 L 328.5 41.7 L 328.5 45.3 Z" fill="#57ba9e"/>
          </g>
          <g id="Graphic_60">
            <path d="M 330.5 45.4 C 330 45.4 329.8 45.1 329.8 44.5 L 329.8 40.3 L 330.4 40.3 L 330.4 44.5 C 330.4 44.7 330.5 44.9 330.7 44.9 C 330.9 44.9 330.9 44.9 330.9 44.9 L 330.9 45.4 C 330.9 45.3 330.8 45.4 330.5 45.4 Z" fill="#57ba9e"/>
          </g>
          <g id="Graphic_59">
            <path d="M 331.8 41 L 331.8 40.3 L 332.5 40.3 L 332.5 41 Z M 331.8 45.3 L 331.8 41.7 L 332.4 41.7 L 332.4 45.3 Z" fill="#57ba9e"/>
          </g>
          <g id="Graphic_58">
            <path d="M 334.9 45.4 C 334.1 45.4 333.9 44.9 333.9 44.4 L 333.9 42.3 L 333.2 42.3 L 333.2 41.8 L 333.9 41.8 L 333.9 40.9 L 334.5 40.8 L 334.5 41.8 L 335.6 41.8 L 335.6 42.3 L 334.5 42.3 L 334.5 44.4 C 334.5 44.7 334.6 44.9 335 44.9 C 335.3 44.9 335.6 44.8 335.6 44.8 L 335.6 45.3 C 335.4 45.3 335.2 45.4 334.9 45.4 Z" fill="#57ba9e"/>
          </g>
          <g id="Graphic_57">
            <path d="M 339 45.4 C 338.7 45.4 338.5 45.2 338.5 44.9 C 338.3 45.3 337.9 45.5 337.4 45.5 C 336.6 45.5 336.2 45 336.2 44.4 C 336.2 43.9 336.5 43.3 337.5 43.3 L 338.6 43.2 L 338.6 42.9 C 338.6 42.7 338.6 42.5 338.4 42.4 C 338.3 42.3 338.1 42.2 337.8 42.2 C 337.5 42.2 337.3 42.3 337.2 42.4 C 337.1 42.5 337 42.7 337 42.8 L 336.4 42.8 C 336.4 42.5 336.5 42.2 336.7 42.1 C 336.9 41.8 337.4 41.7 337.8 41.7 C 338.5 41.7 338.9 42 339 42.4 C 339.1 42.6 339.1 42.7 339.1 42.9 L 339.1 44.6 C 339.1 44.8 339.2 44.8 339.3 44.8 C 339.4 44.8 339.5 44.8 339.5 44.8 L 339.5 45.2 C 339.3 45.3 339.1 45.4 339 45.4 Z M 338.5 43.6 L 337.5 43.7 C 337.1 43.7 336.7 43.9 336.7 44.3 C 336.7 44.6 336.9 44.9 337.4 44.9 C 337.7 44.9 337.9 44.8 338.1 44.6 C 338.3 44.4 338.4 44.1 338.4 43.8 L 338.4 43.6 Z M 336.8 41.1 L 336.8 40.5 L 337.4 40.5 L 337.4 41.1 Z M 338 41.1 L 338 40.5 L 338.6 40.5 L 338.6 41.1 Z" fill="#57ba9e"/>
          </g>
          <g id="Graphic_56">
            <path d="M 341.4 45.4 C 340.6 45.4 340.4 44.9 340.4 44.4 L 340.4 42.3 L 339.7 42.3 L 339.7 41.8 L 340.4 41.8 L 340.4 40.9 L 341 40.8 L 341 41.8 L 342.1 41.8 L 342.1 42.3 L 341 42.3 L 341 44.4 C 341 44.7 341.1 44.9 341.5 44.9 C 341.8 44.9 342.1 44.8 342.1 44.8 L 342.1 45.3 C 342 45.3 341.8 45.4 341.4 45.4 Z" fill="#57ba9e"/>
          </g>
          <g id="Graphic_55">
            <path d="M 263.4 53.8 L 263.4 48.8 L 266.7 48.8 L 266.7 49.4 L 264 49.4 L 264 51 L 266.4 51 L 266.4 51.6 L 264 51.6 L 264 53.3 L 266.7 53.3 L 266.7 53.9 L 263.4 53.9 Z" fill="#57ba9e"/>
          </g>
          <g id="Graphic_54">
            <path d="M 270.1 53.5 C 269.8 53.7 269.5 53.9 269.1 53.9 C 268.5 53.9 268.1 53.6 267.8 53.2 C 267.6 52.9 267.5 52.5 267.5 52 C 267.5 51.5 267.6 51.1 267.8 50.8 C 268.1 50.4 268.5 50.1 269.1 50.1 C 269.5 50.1 269.9 50.2 270.1 50.5 C 270.3 50.7 270.5 51 270.5 51.4 L 269.9 51.4 C 269.9 51.2 269.8 51 269.6 50.8 C 269.5 50.7 269.3 50.6 269 50.6 C 268.7 50.6 268.5 50.7 268.4 50.8 C 268.1 51 268 51.5 268 51.9 C 268 52.3 268.1 52.8 268.4 53 C 268.6 53.1 268.7 53.2 269 53.2 C 269.2 53.2 269.5 53.1 269.6 53 C 269.7 52.9 269.8 52.7 269.8 52.5 L 270.4 52.5 C 270.5 53 270.3 53.3 270.1 53.5 Z" fill="#57ba9e"/>
          </g>
          <g id="Graphic_53">
            <path d="M 273.7 53.8 L 273.7 51.5 C 273.7 51 273.5 50.7 272.9 50.7 C 272.6 50.7 272.3 50.9 272.1 51.2 C 272 51.5 272 51.8 272 52.1 L 272 53.7 L 271.4 53.7 L 271.4 48.6 L 272 48.6 L 272 50.6 C 272.2 50.2 272.6 50 273 50 C 273.8 50 274.2 50.5 274.2 51.3 L 274.2 53.6 L 273.7 53.6 Z" fill="#57ba9e"/>
          </g>
          <g id="Graphic_52">
            <path d="M 278.1 53.9 C 277.8 53.9 277.6 53.7 277.6 53.4 C 277.4 53.8 277 54 276.5 54 C 275.7 54 275.3 53.5 275.3 52.9 C 275.3 52.4 275.6 51.8 276.6 51.8 L 277.7 51.7 L 277.7 51.4 C 277.7 51.2 277.7 51 277.5 50.9 C 277.4 50.8 277.2 50.7 276.9 50.7 C 276.6 50.7 276.4 50.8 276.3 50.9 C 276.2 51 276.1 51.2 276.1 51.3 L 275.5 51.3 C 275.5 51 275.6 50.7 275.8 50.6 C 276 50.3 276.5 50.2 276.9 50.2 C 277.6 50.2 278 50.5 278.1 50.9 C 278.2 51.1 278.2 51.2 278.2 51.4 L 278.2 53.1 C 278.2 53.3 278.3 53.3 278.4 53.3 C 278.5 53.3 278.6 53.3 278.6 53.3 L 278.6 53.7 C 278.4 53.9 278.3 53.9 278.1 53.9 Z M 277.6 52.1 L 276.6 52.2 C 276.2 52.2 275.8 52.4 275.8 52.8 C 275.8 53.1 276 53.4 276.5 53.4 C 276.8 53.4 277 53.3 277.2 53.1 C 277.4 52.9 277.5 52.6 277.5 52.3 L 277.5 52.1 Z" fill="#57ba9e"/>
          </g>
          <g id="Graphic_51">
            <path d="M 281.7 53.8 L 281.7 51.5 C 281.7 51 281.5 50.7 280.9 50.7 C 280.6 50.7 280.3 50.9 280.1 51.2 C 280 51.5 280 51.8 280 52.1 L 280 53.7 L 279.4 53.7 L 279.4 50.1 L 279.9 50.1 L 279.9 50.6 C 280.1 50.2 280.6 50 281 50 C 281.8 50 282.2 50.5 282.2 51.3 L 282.2 53.6 L 281.7 53.6 Z" fill="#57ba9e"/>
          </g>
          <g id="Graphic_50">
            <path d="M 286.3 55.1 C 286 55.4 285.4 55.5 284.9 55.5 C 284.4 55.5 283.9 55.4 283.6 55.1 C 283.5 55 283.3 54.7 283.3 54.5 C 283.3 54.1 283.5 53.9 283.8 53.7 C 283.6 53.6 283.4 53.4 283.4 53.1 C 283.4 52.8 283.6 52.5 283.9 52.4 C 283.6 52.2 283.5 51.8 283.5 51.5 C 283.5 51.1 283.6 50.8 283.8 50.6 C 284 50.3 284.4 50.2 284.9 50.2 C 285.2 50.2 285.5 50.3 285.7 50.4 C 285.8 50.1 286.1 49.9 286.4 49.9 C 286.5 49.9 286.5 49.9 286.6 49.9 L 286.6 50.4 L 286.5 50.4 C 286.3 50.4 286.1 50.5 286.1 50.7 C 286.2 50.9 286.3 51.1 286.3 51.4 C 286.3 51.7 286.2 52 286 52.2 C 285.8 52.5 285.4 52.6 284.9 52.6 C 284.7 52.6 284.5 52.6 284.3 52.5 C 284.2 52.5 284 52.6 284 52.8 C 284 53.1 284.3 53.1 284.5 53.2 C 284.7 53.2 285.2 53.2 285.2 53.2 C 285.6 53.2 286.1 53.3 286.4 53.6 C 286.6 53.8 286.7 54 286.7 54.3 C 286.6 54.7 286.5 54.9 286.3 55.1 Z M 284.9 53.8 L 284.3 53.8 C 284.1 53.9 283.9 54.1 283.9 54.4 C 283.9 54.6 284 54.7 284 54.8 C 284.2 55 284.6 55 284.9 55 C 285.2 55 285.6 55 285.9 54.7 C 286 54.6 286 54.5 286 54.3 C 286 53.8 285.3 53.8 284.9 53.8 Z M 284.8 50.7 C 284.3 50.7 284 51 284 51.5 C 284 52 284.3 52.3 284.8 52.3 C 285.3 52.3 285.6 52 285.6 51.5 C 285.6 51 285.3 50.7 284.8 50.7 Z" fill="#57ba9e"/>
          </g>
          <g id="Graphic_49">
            <path d="M 290.2 52.3 L 287.7 52.3 C 287.7 52.6 287.8 53 288 53.2 C 288.2 53.4 288.4 53.5 288.7 53.5 C 289 53.5 289.2 53.4 289.4 53.3 C 289.5 53.2 289.6 53.1 289.6 52.9 L 290.2 52.9 C 290.2 53.3 289.9 53.6 289.7 53.8 C 289.4 54 289.1 54.1 288.8 54.1 C 288.3 54.1 287.9 53.9 287.6 53.6 C 287.3 53.3 287.2 52.8 287.2 52.3 C 287.2 51.9 287.3 51.5 287.5 51.2 C 287.8 50.8 288.2 50.5 288.8 50.5 C 289.3 50.5 289.6 50.7 289.9 51 C 290.2 51.3 290.4 51.8 290.3 52.2 Z M 289.3 51 C 289.2 50.8 288.9 50.7 288.6 50.7 C 288 50.7 287.6 51.2 287.6 51.7 L 289.5 51.7 C 289.6 51.5 289.5 51.2 289.3 51 Z" fill="#57ba9e"/>
          </g>
          <g id="Graphic_48">
            <path d="M 293.5 53.5 C 293.2 53.8 292.8 53.9 292.3 53.9 C 291.9 53.9 291.5 53.8 291.1 53.5 C 290.9 53.3 290.8 53 290.8 52.7 L 291.4 52.7 C 291.4 52.9 291.5 53.1 291.7 53.3 C 291.9 53.4 292.1 53.5 292.3 53.5 C 292.5 53.5 292.8 53.5 293 53.3 C 293.1 53.2 293.2 53.1 293.2 52.9 C 293.2 52.6 293 52.4 292.6 52.4 L 291.8 52.3 C 291.3 52.2 290.9 51.9 290.9 51.3 C 290.9 51 291 50.8 291.2 50.6 C 291.4 50.4 291.8 50.2 292.2 50.2 C 292.7 50.2 293.1 50.3 293.3 50.6 C 293.5 50.8 293.6 51 293.6 51.3 L 293 51.3 C 293 51.1 292.9 50.9 292.8 50.9 C 292.7 50.8 292.5 50.7 292.2 50.7 C 292.1 50.7 292 50.7 291.8 50.8 C 291.6 50.9 291.4 51.1 291.4 51.3 C 291.4 51.6 291.6 51.7 291.9 51.8 C 292.1 51.8 292.4 51.9 292.8 51.9 C 293.3 52 293.7 52.3 293.7 52.9 C 293.8 53.1 293.7 53.3 293.5 53.5 Z" fill="#57ba9e"/>
          </g>
          <g id="Graphic_47">
            <path d="M 299.3 52.3 L 296.8 52.3 C 296.8 52.6 296.9 53 297.1 53.2 C 297.3 53.4 297.5 53.5 297.8 53.5 C 298.1 53.5 298.3 53.4 298.5 53.3 C 298.6 53.2 298.7 53.1 298.7 52.9 L 299.3 52.9 C 299.3 53.3 299 53.6 298.8 53.8 C 298.5 54 298.2 54.1 297.9 54.1 C 297.4 54.1 297 53.9 296.7 53.6 C 296.4 53.3 296.3 52.8 296.3 52.3 C 296.3 51.9 296.4 51.5 296.6 51.2 C 296.9 50.8 297.3 50.5 297.9 50.5 C 298.4 50.5 298.7 50.7 299 51 C 299.3 51.3 299.5 51.8 299.4 52.2 Z M 298.5 51 C 298.4 50.8 298.1 50.7 297.8 50.7 C 297.2 50.7 296.8 51.2 296.8 51.7 L 298.7 51.7 C 298.7 51.5 298.6 51.2 298.5 51 Z" fill="#57ba9e"/>
          </g>
          <g id="Graphic_46">
            <path d="M 301.4 53.9 C 300.6 53.9 300.4 53.4 300.4 52.9 L 300.4 50.8 L 299.7 50.8 L 299.7 50.3 L 300.4 50.3 L 300.4 49.4 L 301 49.3 L 301 50.3 L 302.1 50.3 L 302.1 50.8 L 301 50.8 L 301 52.9 C 301 53.2 301.1 53.4 301.5 53.4 C 301.8 53.4 302.1 53.3 302.1 53.3 L 302.1 53.8 C 301.9 53.8 301.7 53.9 301.4 53.9 Z" fill="#57ba9e"/>
          </g>
          <g id="Graphic_45">
            <path d="M 308.9 53.8 L 308.9 51.5 C 308.9 51 308.7 50.7 308.2 50.7 C 308 50.7 307.8 50.8 307.7 50.9 C 307.5 51.1 307.4 51.5 307.4 51.9 L 307.4 53.8 L 306.8 53.8 L 306.8 51.5 C 306.8 51 306.7 50.7 306.1 50.7 C 305.8 50.7 305.6 50.8 305.5 51 C 305.3 51.2 305.3 51.6 305.3 51.9 L 305.3 53.8 L 304.7 53.8 L 304.7 50.2 L 305.2 50.2 L 305.3 50.7 C 305.5 50.3 305.9 50.1 306.3 50.1 C 306.8 50.1 307.2 50.3 307.4 50.8 C 307.6 50.4 308 50.1 308.5 50.1 C 309.3 50.1 309.7 50.6 309.7 51.4 L 309.7 53.7 L 308.9 53.7 Z" fill="#57ba9e"/>
          </g>
          <g id="Graphic_44">
            <path d="M 313.1 53.5 C 312.8 53.8 312.5 53.9 312 53.9 C 311.6 53.9 311.2 53.7 310.9 53.5 C 310.5 53.1 310.4 52.6 310.4 52 C 310.4 51.4 310.5 50.9 310.9 50.5 C 311.2 50.2 311.5 50.1 312 50.1 C 312.4 50.1 312.8 50.3 313.1 50.5 C 313.5 50.9 313.6 51.4 313.6 52 C 313.6 52.6 313.5 53.1 313.1 53.5 Z M 312.7 51 C 312.6 50.9 312.3 50.7 312.1 50.7 C 311.9 50.7 311.6 50.8 311.5 51 C 311.2 51.3 311.2 51.7 311.2 52.1 C 311.2 52.5 311.3 52.9 311.5 53.2 C 311.6 53.3 311.9 53.5 312.1 53.5 C 312.3 53.5 312.6 53.4 312.7 53.2 C 313 52.9 313 52.5 313 52.1 C 313 51.7 312.9 51.2 312.7 51 Z" fill="#57ba9e"/>
          </g>
          <g id="Graphic_43">
            <path d="M 317.3 53.5 C 317.1 53.7 316.7 53.9 316.3 53.9 C 315.9 53.9 315.4 53.7 315.2 53.3 L 315.2 53.8 L 314.7 53.8 L 314.7 48.7 L 315.3 48.7 L 315.3 50.6 C 315.5 50.3 315.9 50.1 316.3 50.1 C 316.7 50.1 317 50.2 317.3 50.5 C 317.7 50.8 317.8 51.4 317.8 52 C 317.8 52.7 317.6 53.2 317.3 53.5 Z M 316.2 50.7 C 315.9 50.7 315.8 50.8 315.6 50.9 C 315.3 51.2 315.2 51.6 315.2 52 C 315.2 52.4 315.3 52.9 315.6 53.1 C 315.7 53.2 315.9 53.3 316.2 53.3 C 317 53.3 317.2 52.6 317.2 51.9 C 317.2 51.4 317 50.7 316.2 50.7 Z" fill="#57ba9e"/>
          </g>
          <g id="Graphic_42">
            <path d="M 318.8 49.5 L 318.8 48.8 L 319.5 48.8 L 319.5 49.5 Z M 318.8 53.8 L 318.8 50.2 L 319.4 50.2 L 319.4 53.8 Z" fill="#57ba9e"/>
          </g>
          <g id="Graphic_41">
            <path d="M 321.5 53.9 C 321 53.9 320.8 53.6 320.8 53 L 320.8 48.8 L 321.4 48.8 L 321.4 53 C 321.4 53.2 321.5 53.4 321.7 53.4 C 321.9 53.4 321.9 53.4 321.9 53.4 L 321.9 53.9 C 321.9 53.8 321.8 53.9 321.5 53.9 Z" fill="#57ba9e"/>
          </g>
          <g id="Graphic_40">
            <path d="M 322.7 49.5 L 322.7 48.8 L 323.4 48.8 L 323.4 49.5 Z M 322.8 53.8 L 322.8 50.2 L 323.4 50.2 L 323.4 53.8 Z" fill="#57ba9e"/>
          </g>
          <g id="Graphic_39">
            <path d="M 325.8 53.9 C 325 53.9 324.8 53.4 324.8 52.9 L 324.8 50.8 L 324.1 50.8 L 324.1 50.3 L 324.8 50.3 L 324.8 49.4 L 325.4 49.3 L 325.4 50.3 L 326.5 50.3 L 326.5 50.8 L 325.4 50.8 L 325.4 52.9 C 325.4 53.2 325.5 53.4 325.9 53.4 C 326.2 53.4 326.5 53.3 326.5 53.3 L 326.5 53.8 C 326.4 53.8 326.2 53.9 325.8 53.9 Z" fill="#57ba9e"/>
          </g>
          <g id="Graphic_38">
            <path d="M 330.2 52.3 L 327.7 52.3 C 327.7 52.6 327.8 53 328 53.2 C 328.2 53.4 328.4 53.5 328.7 53.5 C 329 53.5 329.2 53.4 329.4 53.3 C 329.5 53.2 329.6 53.1 329.6 52.9 L 330.2 52.9 C 330.2 53.3 329.9 53.6 329.7 53.8 C 329.4 54 329.1 54.1 328.8 54.1 C 328.3 54.1 327.9 53.9 327.6 53.6 C 327.3 53.3 327.2 52.8 327.2 52.3 C 327.2 51.9 327.3 51.5 327.5 51.2 C 327.8 50.8 328.2 50.5 328.8 50.5 C 329.3 50.5 329.6 50.7 329.9 51 C 330.2 51.3 330.4 51.8 330.3 52.2 Z M 329.4 51 C 329.3 50.8 329 50.7 328.7 50.7 C 328.1 50.7 327.7 51.2 327.7 51.7 L 329.6 51.7 C 329.6 51.5 329.5 51.2 329.4 51 Z M 328.1 50 L 327.9 49.7 L 329.1 48.8 L 329.4 49.3 Z" fill="#57ba9e"/>
          </g>
          <g id="Graphic_37">
            <path d="M 266.7 61.9 C 266.4 62.2 265.8 62.4 265.3 62.4 C 264.7 62.4 264.2 62.2 263.9 61.9 C 263.6 61.6 263.4 61.2 263.4 60.7 L 264.1 60.7 C 264.1 61 264.2 61.3 264.5 61.5 C 264.7 61.7 265.1 61.8 265.5 61.8 C 265.9 61.8 266.2 61.7 266.4 61.5 C 266.6 61.4 266.7 61.2 266.7 60.9 C 266.7 60.5 266.5 60.2 265.9 60.1 L 265.1 60 C 264.4 59.9 263.8 59.5 263.8 58.7 C 263.8 58.3 264 58 264.2 57.7 C 264.5 57.4 265 57.2 265.5 57.2 C 266 57.2 266.5 57.4 266.8 57.7 C 267.1 58 267.3 58.3 267.3 58.8 L 266.6 58.8 C 266.6 58.6 266.5 58.3 266.4 58.2 C 266.2 58 265.9 57.9 265.5 57.9 C 265.1 57.9 264.8 58 264.6 58.2 C 264.5 58.3 264.4 58.5 264.4 58.7 C 264.4 59.1 264.8 59.4 265.1 59.4 C 265.4 59.4 265.7 59.5 265.9 59.5 C 266.7 59.6 267.3 60.1 267.3 60.9 C 267.1 61.4 266.9 61.7 266.7 61.9 Z" fill="#57ba9e"/>
          </g>
          <g id="Graphic_36">
            <path d="M 270.5 62.1 C 270.2 62.3 269.9 62.5 269.5 62.5 C 268.9 62.5 268.5 62.2 268.2 61.8 C 268 61.5 267.9 61.1 267.9 60.6 C 267.9 60.1 268 59.7 268.2 59.4 C 268.5 59 268.9 58.7 269.5 58.7 C 269.9 58.7 270.3 58.8 270.5 59.1 C 270.7 59.3 270.9 59.6 270.9 60 L 270.3 60 C 270.3 59.8 270.2 59.6 270 59.4 C 269.9 59.3 269.7 59.2 269.4 59.2 C 269.1 59.2 268.9 59.3 268.8 59.4 C 268.5 59.6 268.4 60.1 268.4 60.5 C 268.4 60.9 268.5 61.4 268.8 61.6 C 269 61.7 269.1 61.8 269.4 61.8 C 269.6 61.8 269.9 61.7 270 61.6 C 270.1 61.5 270.2 61.3 270.2 61.1 L 270.8 61.1 C 270.8 61.5 270.7 61.8 270.5 62.1 Z" fill="#57ba9e"/>
          </g>
          <g id="Graphic_35">
            <path d="M 274.4 62.4 C 274.1 62.4 273.9 62.2 273.9 61.9 C 273.7 62.3 273.3 62.5 272.8 62.5 C 272 62.5 271.6 62 271.6 61.4 C 271.6 60.9 271.9 60.3 272.9 60.3 L 274 60.2 L 274 59.9 C 274 59.7 274 59.5 273.8 59.4 C 273.7 59.3 273.5 59.2 273.2 59.2 C 272.9 59.2 272.7 59.3 272.6 59.4 C 272.5 59.5 272.4 59.7 272.4 59.8 L 271.8 59.8 C 271.8 59.5 271.9 59.2 272.1 59.1 C 272.3 58.8 272.8 58.7 273.2 58.7 C 273.9 58.7 274.3 59 274.4 59.4 C 274.5 59.6 274.5 59.7 274.5 59.9 L 274.5 61.6 C 274.5 61.8 274.6 61.8 274.7 61.8 C 274.8 61.8 274.9 61.8 274.9 61.8 L 274.9 62.2 C 274.7 62.4 274.6 62.4 274.4 62.4 Z M 273.9 60.6 L 272.9 60.7 C 272.5 60.7 272.1 60.9 272.1 61.3 C 272.1 61.6 272.3 61.9 272.8 61.9 C 273.1 61.9 273.3 61.8 273.5 61.6 C 273.7 61.4 273.8 61.1 273.8 60.8 L 273.8 60.6 Z" fill="#57ba9e"/>
          </g>
          <g id="Graphic_34">
            <path d="M 280.1 62.3 L 280.1 60 C 280.1 59.5 279.9 59.2 279.4 59.2 C 279.2 59.2 279 59.3 278.9 59.4 C 278.7 59.6 278.6 60 278.6 60.4 L 278.6 62.3 L 278 62.3 L 278 60 C 278 59.5 277.9 59.2 277.3 59.2 C 277 59.2 276.8 59.3 276.7 59.5 C 276.5 59.7 276.5 60.1 276.5 60.4 L 276.5 62.3 L 275.9 62.3 L 275.9 58.7 L 276.4 58.7 L 276.5 59.2 C 276.7 58.8 277.1 58.6 277.5 58.6 C 278 58.6 278.4 58.8 278.6 59.3 C 278.8 58.9 279.2 58.6 279.7 58.6 C 280.5 58.6 280.9 59.1 280.9 59.9 L 280.9 62.2 L 280.1 62.2 Z" fill="#57ba9e"/>
          </g>
          <g id="Graphic_33">
            <path d="M 284.5 62.1 C 284.3 62.3 283.9 62.5 283.5 62.5 C 283.1 62.5 282.6 62.3 282.4 61.9 L 282.4 62.4 L 281.9 62.4 L 281.9 57.3 L 282.5 57.3 L 282.5 59.2 C 282.7 58.9 283.1 58.7 283.5 58.7 C 283.9 58.7 284.2 58.8 284.5 59.1 C 284.9 59.4 285 60 285 60.6 C 285.1 61.2 284.9 61.7 284.5 62.1 Z M 283.4 59.2 C 283.1 59.2 283 59.3 282.8 59.4 C 282.5 59.7 282.4 60.1 282.4 60.5 C 282.4 60.9 282.5 61.4 282.8 61.6 C 282.9 61.7 283.1 61.8 283.4 61.8 C 284.2 61.8 284.4 61.1 284.4 60.4 C 284.4 59.9 284.2 59.2 283.4 59.2 Z" fill="#57ba9e"/>
          </g>
          <g id="Graphic_32">
            <path d="M 286 58 L 286 57.3 L 286.7 57.3 L 286.7 58 Z M 286.1 62.3 L 286.1 58.7 L 286.7 58.7 L 286.7 62.3 Z" fill="#57ba9e"/>
          </g>
          <g id="Graphic_31">
            <path d="M 292.5 60.8 L 290 60.8 C 290 61.1 290.1 61.5 290.3 61.7 C 290.5 61.9 290.7 62 291 62 C 291.3 62 291.5 61.9 291.7 61.8 C 291.8 61.7 291.9 61.6 291.9 61.4 L 292.5 61.4 C 292.5 61.8 292.2 62.1 292 62.3 C 291.7 62.5 291.4 62.6 291.1 62.6 C 290.6 62.6 290.2 62.4 289.9 62.1 C 289.6 61.8 289.5 61.3 289.5 60.8 C 289.5 60.4 289.6 60 289.8 59.7 C 290.1 59.3 290.5 59 291.1 59 C 291.6 59 291.9 59.2 292.2 59.5 C 292.5 59.8 292.7 60.3 292.6 60.7 Z M 291.7 59.5 C 291.6 59.3 291.3 59.2 291 59.2 C 290.4 59.2 290 59.7 290 60.2 L 291.9 60.2 C 291.9 60 291.8 59.7 291.7 59.5 Z" fill="#57ba9e"/>
          </g>
          <g id="Graphic_30">
            <path d="M 299.4 62.3 L 299.4 60 C 299.4 59.5 299.2 59.2 298.7 59.2 C 298.5 59.2 298.3 59.3 298.2 59.4 C 298 59.6 297.9 60 297.9 60.4 L 297.9 62.3 L 297.3 62.3 L 297.3 60 C 297.3 59.5 297.2 59.2 296.6 59.2 C 296.3 59.2 296.1 59.3 296 59.5 C 295.8 59.7 295.8 60.1 295.8 60.4 L 295.8 62.3 L 295.2 62.3 L 295.2 58.7 L 295.7 58.7 L 295.8 59.2 C 296 58.8 296.4 58.6 296.8 58.6 C 297.3 58.6 297.7 58.8 297.9 59.3 C 298.1 58.9 298.5 58.6 299 58.6 C 299.8 58.6 300.2 59.1 300.2 59.9 L 300.2 62.2 L 299.4 62.2 Z" fill="#57ba9e"/>
          </g>
          <g id="Graphic_29">
            <path d="M 303.6 62 C 303.3 62.3 303 62.4 302.5 62.4 C 302 62.4 301.7 62.2 301.4 62 C 301 61.6 300.9 61.1 300.9 60.5 C 300.9 59.9 301 59.4 301.4 59 C 301.7 58.7 302 58.6 302.5 58.6 C 303 58.6 303.3 58.8 303.6 59 C 304 59.4 304.1 59.9 304.1 60.5 C 304.1 61.1 304 61.6 303.6 62 Z M 303.2 59.5 C 303.1 59.4 302.8 59.2 302.6 59.2 C 302.4 59.2 302.1 59.3 302 59.5 C 301.7 59.8 301.7 60.2 301.7 60.6 C 301.7 61 301.8 61.4 302 61.7 C 302.1 61.8 302.4 62 302.6 62 C 302.8 62 303.1 61.9 303.2 61.7 C 303.5 61.4 303.5 61 303.5 60.6 C 303.5 60.2 303.4 59.7 303.2 59.5 Z" fill="#57ba9e"/>
          </g>
          <g id="Graphic_28">
            <path d="M 307.8 62.1 C 307.6 62.3 307.2 62.5 306.8 62.5 C 306.4 62.5 305.9 62.3 305.7 61.9 L 305.7 62.4 L 305.2 62.4 L 305.2 57.3 L 305.8 57.3 L 305.8 59.2 C 306 58.9 306.4 58.7 306.8 58.7 C 307.2 58.7 307.5 58.8 307.8 59.1 C 308.2 59.4 308.3 60 308.3 60.6 C 308.3 61.2 308.1 61.7 307.8 62.1 Z M 306.7 59.2 C 306.4 59.2 306.3 59.3 306.1 59.4 C 305.8 59.7 305.7 60.1 305.7 60.5 C 305.7 60.9 305.8 61.4 306.1 61.6 C 306.2 61.7 306.4 61.8 306.7 61.8 C 307.5 61.8 307.7 61.1 307.7 60.4 C 307.7 59.9 307.5 59.2 306.7 59.2 Z" fill="#57ba9e"/>
          </g>
          <g id="Graphic_27">
            <path d="M 309.3 58 L 309.3 57.3 L 310 57.3 L 310 58 Z M 309.3 62.3 L 309.3 58.7 L 309.9 58.7 L 309.9 62.3 Z" fill="#57ba9e"/>
          </g>
          <g id="Graphic_26">
            <path d="M 312 62.4 C 311.5 62.4 311.3 62.1 311.3 61.5 L 311.3 57.3 L 311.9 57.3 L 311.9 61.5 C 311.9 61.7 312 61.9 312.2 61.9 C 312.4 61.9 312.4 61.9 312.4 61.9 L 312.4 62.4 C 312.4 62.3 312.3 62.4 312 62.4 Z" fill="#57ba9e"/>
          </g>
          <g id="Graphic_25">
            <path d="M 313.2 58 L 313.2 57.3 L 313.9 57.3 L 313.9 58 Z M 313.3 62.3 L 313.3 58.7 L 313.9 58.7 L 313.9 62.3 Z" fill="#57ba9e"/>
          </g>
          <g id="Graphic_24">
            <path d="M 316.3 62.4 C 315.5 62.4 315.3 61.9 315.3 61.4 L 315.3 59.3 L 314.6 59.3 L 314.6 58.8 L 315.3 58.8 L 315.3 57.9 L 315.9 57.8 L 315.9 58.8 L 317 58.8 L 317 59.3 L 316 59.3 L 316 61.4 C 316 61.7 316.1 61.9 316.5 61.9 C 316.8 61.9 317.1 61.8 317.1 61.8 L 317.1 62.3 C 316.9 62.3 316.7 62.4 316.3 62.4 Z" fill="#57ba9e"/>
          </g>
          <g id="Graphic_23">
            <path d="M 320.5 62.4 C 320.2 62.4 320 62.2 320 61.9 C 319.8 62.3 319.4 62.5 318.9 62.5 C 318.1 62.5 317.7 62 317.7 61.4 C 317.7 60.9 318 60.3 319 60.3 L 320.1 60.2 L 320.1 59.9 C 320.1 59.7 320.1 59.5 319.9 59.4 C 319.8 59.3 319.6 59.2 319.3 59.2 C 319 59.2 318.8 59.3 318.7 59.4 C 318.6 59.5 318.5 59.7 318.5 59.8 L 317.9 59.8 C 317.9 59.5 318 59.2 318.2 59.1 C 318.4 58.8 318.9 58.7 319.3 58.7 C 320 58.7 320.4 59 320.5 59.4 C 320.6 59.6 320.6 59.7 320.6 59.9 L 320.6 61.6 C 320.6 61.8 320.7 61.8 320.8 61.8 C 320.9 61.8 321 61.8 321 61.8 L 321 62.2 C 320.8 62.4 320.6 62.4 320.5 62.4 Z M 319.9 60.6 L 318.9 60.7 C 318.5 60.7 318.1 60.9 318.1 61.3 C 318.1 61.6 318.3 61.9 318.8 61.9 C 319.1 61.9 319.3 61.8 319.5 61.6 C 319.7 61.4 319.8 61.1 319.8 60.8 L 319.8 60.6 Z M 318.4 57.8 L 318.7 57.3 L 319.9 58.2 L 319.7 58.5 Z" fill="#57ba9e"/>
          </g>
          <g id="Graphic_22">
            <path d="M 263.5 70.9 L 263.5 65.9 L 266.8 65.9 L 266.8 66.5 L 264.1 66.5 L 264.1 68 L 266.5 68 L 266.5 68.6 L 264.1 68.6 L 264.1 70.3 L 266.8 70.3 L 266.8 70.9 L 263.5 70.9 Z" fill="#57ba9e"/>
          </g>
          <g id="Graphic_21">
            <path d="M 269.8 70.9 L 268.9 69.5 L 268 70.9 L 267.3 70.9 L 268.5 69.1 L 267.3 67.4 L 268 67.4 L 268.9 68.7 L 269.8 67.4 L 270.5 67.4 L 269.3 69.1 L 270.5 70.9 Z" fill="#57ba9e"/>
          </g>
          <g id="Graphic_20">
            <path d="M 273.6 70.6 C 273.3 70.8 273 71 272.6 71 C 272 71 271.6 70.7 271.3 70.3 C 271.1 70 271 69.6 271 69.1 C 271 68.6 271.1 68.2 271.3 67.9 C 271.6 67.5 272 67.2 272.6 67.2 C 273 67.2 273.4 67.3 273.6 67.6 C 273.8 67.8 274 68.1 274 68.5 L 273.4 68.5 C 273.4 68.3 273.3 68.1 273.1 67.9 C 273 67.8 272.8 67.7 272.5 67.7 C 272.2 67.7 272 67.8 271.9 67.9 C 271.6 68.1 271.5 68.6 271.5 69 C 271.5 69.4 271.6 69.9 271.9 70.1 C 272.1 70.2 272.2 70.3 272.5 70.3 C 272.7 70.3 273 70.2 273.1 70.1 C 273.2 70 273.3 69.8 273.3 69.6 L 273.9 69.6 C 273.9 70 273.8 70.3 273.6 70.6 Z" fill="#57ba9e"/>
          </g>
          <g id="Graphic_19">
            <path d="M 277.2 70.9 L 277.2 68.6 C 277.2 68.1 277 67.8 276.4 67.8 C 276.1 67.8 275.8 68 275.6 68.3 C 275.5 68.6 275.5 68.9 275.5 69.2 L 275.5 70.8 L 274.9 70.8 L 274.9 65.7 L 275.5 65.7 L 275.5 67.7 C 275.7 67.3 276.1 67.1 276.5 67.1 C 277.3 67.1 277.7 67.6 277.7 68.4 L 277.7 70.7 L 277.2 70.7 Z" fill="#57ba9e"/>
          </g>
          <g id="Graphic_18">
            <path d="M 281.6 70.9 C 281.3 70.9 281.1 70.7 281.1 70.4 C 280.9 70.8 280.5 71 280 71 C 279.2 71 278.8 70.5 278.8 69.9 C 278.8 69.4 279.1 68.8 280.1 68.8 L 281.2 68.7 L 281.2 68.4 C 281.2 68.2 281.2 68 281 67.9 C 280.9 67.8 280.7 67.7 280.4 67.7 C 280.1 67.7 279.9 67.8 279.8 67.9 C 279.7 68 279.6 68.2 279.6 68.3 L 279 68.3 C 279 68 279.1 67.7 279.3 67.6 C 279.5 67.3 280 67.2 280.4 67.2 C 281.1 67.2 281.5 67.5 281.6 67.9 C 281.7 68.1 281.7 68.2 281.7 68.4 L 281.7 70.1 C 281.7 70.3 281.8 70.3 281.9 70.3 C 282 70.3 282.1 70.3 282.1 70.3 L 282.1 70.7 C 281.9 70.9 281.7 70.9 281.6 70.9 Z M 281 69.2 L 280 69.3 C 279.6 69.3 279.2 69.5 279.2 69.9 C 279.2 70.2 279.4 70.5 279.9 70.5 C 280.2 70.5 280.4 70.4 280.6 70.2 C 280.8 70 280.9 69.7 280.9 69.4 L 280.9 69.2 Z" fill="#57ba9e"/>
          </g>
          <g id="Graphic_17">
            <path d="M 285.2 70.9 L 285.2 68.6 C 285.2 68.1 285 67.8 284.4 67.8 C 284.1 67.8 283.8 68 283.6 68.3 C 283.5 68.6 283.5 68.9 283.5 69.2 L 283.5 70.8 L 282.9 70.8 L 282.9 67.2 L 283.4 67.2 L 283.4 67.7 C 283.6 67.3 284.1 67.1 284.5 67.1 C 285.3 67.1 285.7 67.6 285.7 68.4 L 285.7 70.7 L 285.2 70.7 Z" fill="#57ba9e"/>
          </g>
          <g id="Graphic_16">
            <path d="M 289.8 72.1 C 289.5 72.4 288.9 72.5 288.4 72.5 C 287.9 72.5 287.4 72.4 287.1 72.1 C 287 72 286.8 71.7 286.8 71.5 C 286.8 71.1 287 70.9 287.3 70.7 C 287.1 70.6 286.9 70.4 286.9 70.1 C 286.9 69.8 287.1 69.5 287.4 69.4 C 287.1 69.2 287 68.8 287 68.5 C 287 68.1 287.1 67.8 287.3 67.6 C 287.5 67.3 287.9 67.2 288.4 67.2 C 288.7 67.2 289 67.3 289.2 67.4 C 289.3 67.1 289.6 66.9 289.9 66.9 C 290 66.9 290 66.9 290.1 66.9 L 290.1 67.4 L 290 67.4 C 289.8 67.4 289.6 67.5 289.6 67.7 C 289.7 67.9 289.8 68.1 289.8 68.4 C 289.8 68.7 289.7 69 289.5 69.2 C 289.3 69.5 288.9 69.6 288.4 69.6 C 288.2 69.6 288 69.6 287.8 69.5 C 287.7 69.5 287.5 69.6 287.5 69.8 C 287.5 70.1 287.8 70.1 288 70.2 C 288.2 70.2 288.7 70.2 288.7 70.2 C 289.1 70.2 289.6 70.3 289.9 70.6 C 290.1 70.8 290.2 71 290.2 71.3 C 290.1 71.7 289.9 71.9 289.8 72.1 Z M 288.4 70.8 L 287.8 70.8 C 287.6 70.9 287.4 71.1 287.4 71.4 C 287.4 71.6 287.5 71.7 287.5 71.8 C 287.7 72 288.1 72 288.4 72 C 288.7 72 289.1 72 289.4 71.7 C 289.5 71.6 289.5 71.5 289.5 71.3 C 289.5 70.8 288.8 70.8 288.4 70.8 Z M 288.3 67.7 C 287.8 67.7 287.5 68 287.5 68.5 C 287.5 69 287.8 69.3 288.3 69.3 C 288.8 69.3 289.1 69 289.1 68.5 C 289.1 68 288.8 67.7 288.3 67.7 Z" fill="#57ba9e"/>
          </g>
          <g id="Graphic_15">
            <path d="M 293.6 69.3 L 291.1 69.3 C 291.1 69.6 291.2 70 291.4 70.2 C 291.6 70.4 291.8 70.5 292.1 70.5 C 292.4 70.5 292.6 70.4 292.8 70.3 C 292.9 70.2 293 70.1 293 69.9 L 293.6 69.9 C 293.6 70.3 293.3 70.6 293.1 70.8 C 292.8 71 292.5 71.1 292.2 71.1 C 291.7 71.1 291.3 70.9 291 70.6 C 290.7 70.3 290.6 69.8 290.6 69.3 C 290.6 68.9 290.7 68.5 290.9 68.2 C 291.2 67.8 291.6 67.5 292.2 67.5 C 292.7 67.5 293 67.7 293.3 68 C 293.6 68.3 293.8 68.8 293.7 69.2 Z M 292.8 68 C 292.7 67.8 292.4 67.7 292.1 67.7 C 291.5 67.7 291.1 68.2 291.1 68.7 L 293 68.7 C 293 68.5 293 68.2 292.8 68 Z" fill="#57ba9e"/>
          </g>
          <g id="Graphic_14">
            <path d="M 298.8 70.9 C 298.5 70.9 298.3 70.7 298.3 70.4 C 298.1 70.8 297.7 71 297.2 71 C 296.4 71 296 70.5 296 69.9 C 296 69.4 296.3 68.8 297.3 68.8 L 298.4 68.7 L 298.4 68.4 C 298.4 68.2 298.4 68 298.2 67.9 C 298.1 67.8 297.9 67.7 297.6 67.7 C 297.3 67.7 297.1 67.8 297 67.9 C 296.9 68 296.8 68.2 296.8 68.3 L 296.2 68.3 C 296.2 68 296.3 67.7 296.5 67.6 C 296.7 67.3 297.2 67.2 297.6 67.2 C 298.3 67.2 298.7 67.5 298.8 67.9 C 298.9 68.1 298.9 68.2 298.9 68.4 L 298.9 70.1 C 298.9 70.3 299 70.3 299.1 70.3 C 299.2 70.3 299.3 70.3 299.3 70.3 L 299.3 70.7 C 299.1 70.9 299 70.9 298.8 70.9 Z M 298.3 69.2 L 297.3 69.3 C 296.9 69.3 296.5 69.5 296.5 69.9 C 296.5 70.2 296.7 70.5 297.2 70.5 C 297.5 70.5 297.7 70.4 297.9 70.2 C 298.1 70 298.2 69.7 298.2 69.4 L 298.2 69.2 Z" fill="#57ba9e"/>
          </g>
          <g id="Graphic_13">
            <path d="M 302.5 70.9 L 302.5 68.6 C 302.5 68.1 302.3 67.8 301.7 67.8 C 301.4 67.8 301.1 68 300.9 68.3 C 300.8 68.6 300.8 68.9 300.8 69.2 L 300.8 70.8 L 300.2 70.8 L 300.2 67.2 L 300.7 67.2 L 300.7 67.7 C 300.9 67.3 301.4 67.1 301.8 67.1 C 302.6 67.1 303 67.6 303 68.4 L 303 70.7 L 302.5 70.7 Z" fill="#57ba9e"/>
          </g>
          <g id="Graphic_12">
            <path d="M 306.6 70.9 L 306.6 70.4 C 306.4 70.8 305.9 71 305.5 71 C 305.1 71 304.7 70.9 304.5 70.6 C 304.2 70.3 304 69.7 304 69.1 C 304 68.5 304.2 67.9 304.5 67.6 C 304.7 67.4 305.1 67.2 305.5 67.2 C 305.9 67.2 306.3 67.4 306.5 67.7 L 306.5 65.8 L 307.1 65.8 L 307.1 70.9 L 306.6 70.9 Z M 306.2 68 C 306.1 67.9 305.9 67.8 305.6 67.8 C 304.8 67.8 304.6 68.5 304.6 69.2 C 304.6 69.9 304.8 70.6 305.6 70.6 C 305.9 70.6 306 70.5 306.2 70.4 C 306.5 70.1 306.6 69.7 306.6 69.3 C 306.6 68.6 306.5 68.2 306.2 68 Z" fill="#57ba9e"/>
          </g>
          <g id="Graphic_11">
            <path d="M 314.4 70.9 L 314.4 68.6 C 314.4 68.1 314.2 67.8 313.7 67.8 C 313.5 67.8 313.3 67.9 313.2 68 C 313 68.2 312.9 68.6 312.9 69 L 312.9 70.9 L 312.3 70.9 L 312.3 68.6 C 312.3 68.1 312.2 67.8 311.6 67.8 C 311.3 67.8 311.1 67.9 311 68.1 C 310.8 68.3 310.8 68.7 310.8 69 L 310.8 70.9 L 310.2 70.9 L 310.2 67.3 L 310.7 67.3 L 310.8 67.8 C 311 67.4 311.4 67.2 311.8 67.2 C 312.3 67.2 312.7 67.4 312.9 67.9 C 313.1 67.5 313.5 67.2 314 67.2 C 314.8 67.2 315.2 67.7 315.2 68.5 L 315.2 70.8 L 314.4 70.8 Z" fill="#57ba9e"/>
          </g>
          <g id="Graphic_10">
            <path d="M 318.6 70.5 C 318.3 70.8 318 70.9 317.5 70.9 C 317 70.9 316.7 70.7 316.4 70.5 C 316 70.1 315.9 69.6 315.9 69 C 315.9 68.4 316 67.9 316.4 67.5 C 316.7 67.2 317 67.1 317.5 67.1 C 318 67.1 318.3 67.3 318.6 67.5 C 319 67.9 319.1 68.4 319.1 69 C 319.1 69.7 319 70.2 318.6 70.5 Z M 318.2 68 C 318.1 67.9 317.8 67.7 317.6 67.7 C 317.4 67.7 317.1 67.8 317 68 C 316.7 68.3 316.7 68.7 316.7 69.1 C 316.7 69.5 316.8 69.9 317 70.2 C 317.1 70.3 317.4 70.5 317.6 70.5 C 317.8 70.5 318.1 70.4 318.2 70.2 C 318.5 69.9 318.5 69.5 318.5 69.1 C 318.5 68.7 318.4 68.2 318.2 68 Z" fill="#57ba9e"/>
          </g>
          <g id="Graphic_9">
            <path d="M 322.8 70.6 C 322.6 70.8 322.2 71 321.8 71 C 321.4 71 320.9 70.8 320.7 70.4 L 320.7 70.9 L 320.2 70.9 L 320.2 65.8 L 320.8 65.8 L 320.8 67.7 C 321 67.4 321.4 67.2 321.8 67.2 C 322.2 67.2 322.5 67.3 322.8 67.6 C 323.2 67.9 323.3 68.5 323.3 69.1 C 323.3 69.7 323.1 70.2 322.8 70.6 Z M 321.7 67.7 C 321.4 67.7 321.3 67.8 321.1 67.9 C 320.8 68.2 320.7 68.6 320.7 69 C 320.7 69.4 320.8 69.9 321.1 70.1 C 321.2 70.2 321.4 70.3 321.7 70.3 C 322.5 70.3 322.7 69.6 322.7 68.9 C 322.7 68.4 322.5 67.7 321.7 67.7 Z" fill="#57ba9e"/>
          </g>
          <g id="Graphic_8">
            <path d="M 324.3 66.5 L 324.3 65.8 L 325 65.8 L 325 66.5 Z M 324.3 70.9 L 324.3 67.3 L 324.9 67.3 L 324.9 70.9 Z" fill="#57ba9e"/>
          </g>
          <g id="Graphic_7">
            <path d="M 326.9 70.9 C 326.4 70.9 326.2 70.6 326.2 70 L 326.2 65.8 L 326.8 65.8 L 326.8 70 C 326.8 70.2 326.9 70.4 327.1 70.4 C 327.3 70.4 327.3 70.4 327.3 70.4 L 327.3 70.9 C 327.4 70.9 327.2 70.9 326.9 70.9 Z" fill="#57ba9e"/>
          </g>
          <g id="Graphic_6">
            <path d="M 328.2 66.5 L 328.2 65.8 L 328.9 65.8 L 328.9 66.5 Z M 328.3 70.9 L 328.3 67.3 L 328.9 67.3 L 328.9 70.9 Z" fill="#57ba9e"/>
          </g>
          <g id="Graphic_5">
            <path d="M 331.3 70.9 C 330.5 70.9 330.3 70.4 330.3 69.9 L 330.3 67.8 L 329.6 67.8 L 329.6 67.3 L 330.3 67.3 L 330.3 66.4 L 330.9 66.3 L 330.9 67.3 L 332 67.3 L 332 67.8 L 330.9 67.8 L 330.9 69.9 C 330.9 70.2 331 70.4 331.4 70.4 C 331.7 70.4 332 70.3 332 70.3 L 332 70.8 C 331.9 70.9 331.6 70.9 331.3 70.9 Z" fill="#57ba9e"/>
          </g>
          <g id="Graphic_4">
            <path d="M 334.1 71.6 C 333.9 72.1 333.7 72.4 333.1 72.4 C 332.8 72.4 332.6 72.3 332.6 72.3 L 332.6 71.8 C 332.6 71.8 332.8 71.9 333 71.9 C 333.3 71.9 333.4 71.8 333.5 71.5 L 333.7 70.9 L 332.3 67.3 L 333 67.3 L 334 70.1 L 335 67.3 L 335.6 67.3 Z" fill="#57ba9e"/>
          </g>
        </g>
      </g>
    </g>
  </g>
</svg>
