<?xml version="1.0" encoding="utf-8"?>
<!-- Generator: Adobe Illustrator 27.6.1, SVG Export Plug-In . SVG Version: 6.00 Build 0)  -->
<svg version="1.2" baseProfile="tiny" id="Shelter" xmlns="http://www.w3.org/2000/svg" xmlns:xlink="http://www.w3.org/1999/xlink"
	 x="0px" y="0px" viewBox="0 0 384.7 99.2" overflow="visible" display="none" xml:space="preserve">
<g display="inline">
	<g>
		<path fill="#EC6661" d="M89.5,51.6L86,70.9h-7.4l3.3-18.2c0.2-0.9,0.3-1.7,0.3-2.6c0-2.4-1.6-3.7-3.8-3.7c-1.9,0-3.5,1.1-4.7,2.5
			c-2.1,2.5-3.1,6.3-3.5,9l-2.4,13h-7.2l3.2-18.2c0.2-0.8,0.3-1.7,0.3-2.6c0-2.1-1.2-3.7-3.8-3.7c-2.4,0-4.2,1.9-5.5,3.8
			c-1.2,1.9-2.2,5.5-2.6,7.8l-2.4,13h-7.4l5.4-30.6h6V44c2.1-2.6,5.9-4.5,9.2-4.5c2.1,0,3.8,0.2,5.3,1.4c1.6,1.2,2.5,2.9,2.7,4.1
			c2.4-3.2,6.1-5.5,10.1-5.5c2.7,0,4.7,0.8,6.2,2.2c1.6,1.5,2.4,3.7,2.4,5.8C89.9,48.8,89.7,50.3,89.5,51.6z"/>
		<path fill="#EC6661" d="M115.6,67.7c-2.3,2.2-6,3.9-10.1,3.9c-3.2,0-6.4-1-8.8-3.3c-2.8-2.6-4-6.2-4-9.9c0-5.5,1.6-11.1,5.6-15
			c2.3-2.2,5.9-3.9,10-3.9c3.2,0,6.5,1,8.9,3.3c2.8,2.6,3.9,6.2,3.9,9.9C121.2,58.2,119.7,63.9,115.6,67.7z M112.7,48.3
			c-1.1-1.6-2.8-2.4-4.7-2.4c-1.8,0-3.2,0.8-4.2,1.6C100.9,50,100,55,100,58.7c0,1.5,0.3,2.9,1.1,4.2c1.1,1.6,2.8,2.4,4.7,2.4
			c1.8,0,3.2-0.8,4.2-1.6c2.9-2.4,3.8-7.5,3.8-11.1C113.8,50.9,113.5,49.5,112.7,48.3z"/>
		<path fill="#EC6661" d="M137,70.9h-7.8l-5.9-30.6h7.4l3.8,21.5l11.1-21.5h8L137,70.9z"/>
		<path fill="#57BA9E" d="M196.6,71.3c-6.2,0-9.2-3.5-9.2-9.4V46.3h-5.6v-6.1h5.6v-7.8l7.4-1.8v9.6h7.7v6.1h-7.7v14.9
			c0,2.4,1.1,3.4,3.4,3.4c1.5,0,2.8-0.1,4.8-0.3v6.2C200.8,71,198.8,71.3,196.6,71.3z"/>
		<path fill="#57BA9E" d="M207.6,36v-7.6h7.9V36H207.6z M207.8,70.9V40.3h7.5v30.6H207.8z"/>
		<path fill="#57BA9E" d="M245.6,71.3c-3.2,0-4.9-2-5.2-4.3c-1.4,2.5-4.9,4.6-9.3,4.6c-7.3,0-11.1-4.6-11.1-9.6
			c0-5.8,4.5-9.2,10.4-9.6l9-0.6v-1.9c0-2.9-1-4.8-5.2-4.8c-3.4,0-5.4,1.5-5.6,4.4h-7.1c0.4-6.9,5.9-9.9,12.7-9.9
			c5.2,0,9.7,1.6,11.5,6.2c0.8,1.9,0.9,4.1,0.9,6.2v11.4c0,1.4,0.5,1.9,1.7,1.9c0.5,0,0.9-0.1,0.9-0.1v5.4
			C248.1,71,247.4,71.3,245.6,71.3z M239.5,57.3l-7.8,0.6c-2.2,0.2-4.4,1.5-4.4,4c0,2.4,2.1,3.8,4.4,3.8c4.6,0,7.8-2.5,7.8-7V57.3z"
			/>
		<path fill="#57BA9E" d="M179.8,56.8c-0.1,0.4-0.2,0.7-0.2,1.1h-21.2c0,1.9,0.1,3.6,1.2,5.3c1.2,1.7,3.2,2.5,5.1,2.5
			c2.6,0,5-1.1,6-3.5h7.1c-0.7,2.3-1.8,4.2-3.6,5.9c-2.3,2.2-5.6,3.6-9.8,3.6c-3.8,0-6.9-1.5-9.2-3.7c-2.5-2.5-3.8-6.5-3.8-9.8
			c0-1.3,0.1-2.6,0.4-3.9c0.7-4.1,2.5-7.8,5.5-10.6c2.3-2.2,6.1-4.1,10.4-4.1c5.1,0,9.2,2.7,10.9,6.5c1.2,2.7,1.5,4.4,1.5,7.1
			C180.1,54.3,180,55.5,179.8,56.8z M171.6,47.2c-1-1.1-2.5-1.8-4.5-1.8c-1.9,0-3.7,0.9-4.8,1.8c-1.6,1.4-2.5,3.2-3.1,5.2h14
			c0-0.3,0.1-0.5,0.1-0.8C173.2,50.1,172.7,48.4,171.6,47.2z"/>
	</g>
	<g>
		<path fill="#57BA9E" d="M266.9,45.3l-0.4-1.2h-2.2l-0.4,1.2h-0.6l1.8-5h0.7l1.8,5H266.9z M265.4,41l-0.9,2.6h1.8L265.4,41z"/>
		<path fill="#57BA9E" d="M270.5,45.3l0-0.5c-0.2,0.4-0.6,0.6-1.1,0.6c-0.8,0-1.2-0.5-1.2-1.3v-2.3h0.6V44c0,0.5,0.2,0.8,0.8,0.8
			c0.2,0,0.4-0.1,0.6-0.3c0.2-0.2,0.3-0.6,0.3-1v-1.8h0.6v3.6H270.5z"/>
		<path fill="#57BA9E" d="M274.6,45c-0.3,0.3-0.7,0.4-1.2,0.4c-0.4,0-0.8-0.1-1.2-0.4c-0.2-0.2-0.3-0.5-0.3-0.8h0.6
			c0,0.2,0.1,0.4,0.3,0.6c0.2,0.1,0.4,0.2,0.6,0.2c0.2,0,0.5,0,0.7-0.2c0.1-0.1,0.2-0.2,0.2-0.4c0-0.3-0.2-0.5-0.6-0.5l-0.8-0.1
			c-0.5-0.1-0.9-0.4-0.9-1c0-0.3,0.1-0.5,0.3-0.7c0.2-0.2,0.6-0.4,1-0.4c0.5,0,0.9,0.1,1.1,0.4c0.2,0.2,0.3,0.4,0.3,0.7h-0.6
			c0-0.2-0.1-0.4-0.2-0.4c-0.1-0.1-0.3-0.2-0.6-0.2c-0.1,0-0.2,0-0.4,0.1c-0.2,0.1-0.4,0.3-0.4,0.5c0,0.3,0.2,0.4,0.5,0.5
			c0.2,0,0.5,0.1,0.9,0.1c0.5,0.1,0.9,0.4,0.9,1C274.9,44.6,274.8,44.8,274.6,45z"/>
		<path fill="#57BA9E" d="M277,45.4c-0.8,0-1-0.5-1-1v-2.1h-0.7v-0.5h0.7v-0.9l0.6-0.1v1h1.1v0.5h-1.1v2.1c0,0.3,0.1,0.5,0.5,0.5
			c0.3,0,0.6-0.1,0.6-0.1v0.5C277.6,45.3,277.4,45.4,277,45.4z"/>
		<path fill="#57BA9E" d="M281.2,45.4c-0.3,0-0.5-0.2-0.5-0.5h0c-0.2,0.4-0.6,0.6-1.1,0.6c-0.8,0-1.2-0.5-1.2-1.1
			c0-0.5,0.3-1.1,1.3-1.1l1.1-0.1v-0.3c0-0.2,0-0.4-0.2-0.5c-0.1-0.1-0.3-0.2-0.6-0.2c-0.3,0-0.5,0.1-0.6,0.2
			c-0.1,0.1-0.2,0.3-0.2,0.4h-0.6c0-0.3,0.1-0.6,0.3-0.7c0.2-0.3,0.7-0.4,1.1-0.4c0.7,0,1.1,0.3,1.2,0.7c0.1,0.2,0.1,0.3,0.1,0.5
			v1.7c0,0.2,0.1,0.2,0.2,0.2c0.1,0,0.2,0,0.2,0v0.4C281.4,45.3,281.3,45.4,281.2,45.4z M280.6,43.6l-1,0.1c-0.4,0-0.8,0.2-0.8,0.6
			c0,0.3,0.2,0.6,0.7,0.6c0.3,0,0.5-0.1,0.7-0.3c0.2-0.2,0.3-0.5,0.3-0.8V43.6z"/>
		<path fill="#57BA9E" d="M284.7,45.3l0-0.5c-0.2,0.4-0.6,0.6-1.1,0.6c-0.8,0-1.2-0.5-1.2-1.3v-2.3h0.6V44c0,0.5,0.2,0.8,0.8,0.8
			c0.2,0,0.4-0.1,0.6-0.3c0.2-0.2,0.3-0.6,0.3-1v-1.8h0.6v3.6H284.7z"/>
		<path fill="#57BA9E" d="M288.9,45c-0.3,0.3-0.7,0.4-1.2,0.4c-0.4,0-0.8-0.1-1.2-0.4c-0.2-0.2-0.3-0.5-0.3-0.8h0.6
			c0,0.2,0.1,0.4,0.3,0.6c0.2,0.1,0.4,0.2,0.6,0.2c0.2,0,0.5,0,0.7-0.2c0.1-0.1,0.2-0.2,0.2-0.4c0-0.3-0.2-0.5-0.6-0.5l-0.8-0.1
			c-0.5-0.1-0.9-0.4-0.9-1c0-0.3,0.1-0.5,0.3-0.7c0.2-0.2,0.6-0.4,1-0.4c0.5,0,0.9,0.1,1.1,0.4c0.2,0.2,0.3,0.4,0.3,0.7h-0.6
			c0-0.2-0.1-0.4-0.2-0.4c-0.1-0.1-0.3-0.2-0.6-0.2c-0.1,0-0.2,0-0.4,0.1c-0.2,0.1-0.4,0.3-0.4,0.5c0,0.3,0.2,0.4,0.5,0.5
			c0.2,0,0.5,0.1,0.9,0.1c0.5,0.1,0.9,0.4,0.9,1C289.2,44.6,289.1,44.8,288.9,45z"/>
		<path fill="#57BA9E" d="M292.6,45c-0.3,0.2-0.6,0.4-1,0.4c-0.6,0-1-0.3-1.3-0.7c-0.2-0.3-0.3-0.7-0.3-1.2c0-0.5,0.1-0.9,0.3-1.2
			c0.3-0.4,0.7-0.7,1.3-0.7c0.4,0,0.8,0.1,1,0.4c0.2,0.2,0.4,0.5,0.4,0.9h-0.6c0-0.2-0.1-0.4-0.3-0.6c-0.1-0.1-0.3-0.2-0.6-0.2
			c-0.3,0-0.5,0.1-0.6,0.2c-0.3,0.2-0.4,0.7-0.4,1.1c0,0.4,0.1,0.9,0.4,1.1c0.2,0.1,0.3,0.2,0.6,0.2c0.2,0,0.5-0.1,0.6-0.2
			c0.1-0.1,0.2-0.3,0.2-0.5h0.6C292.9,44.5,292.8,44.8,292.6,45z"/>
		<path fill="#57BA9E" d="M296.2,45.3v-2.3c0-0.5-0.2-0.8-0.8-0.8c-0.3,0-0.6,0.2-0.8,0.5c-0.1,0.3-0.1,0.6-0.1,0.9v1.6h-0.6v-5.1
			h0.6v2c0.2-0.4,0.6-0.6,1-0.6c0.8,0,1.2,0.5,1.2,1.3v2.3H296.2z"/>
		<path fill="#57BA9E" d="M301.9,45.3l0-0.5c-0.2,0.4-0.6,0.6-1.1,0.6c-0.8,0-1.2-0.5-1.2-1.3v-2.3h0.6V44c0,0.5,0.2,0.8,0.8,0.8
			c0.2,0,0.4-0.1,0.6-0.3c0.2-0.2,0.3-0.6,0.3-1v-1.8h0.6v3.6H301.9z"/>
		<path fill="#57BA9E" d="M306,45.3v-2.3c0-0.5-0.2-0.8-0.8-0.8c-0.3,0-0.6,0.2-0.8,0.5c-0.1,0.3-0.1,0.6-0.1,0.9v1.6h-0.6v-3.6h0.5
			l0,0.5c0.2-0.4,0.7-0.6,1.1-0.6c0.8,0,1.2,0.5,1.2,1.3v2.3H306z"/>
		<path fill="#57BA9E" d="M310.2,45.3l0-0.5c-0.2,0.4-0.7,0.6-1.1,0.6c-0.4,0-0.8-0.1-1-0.4c-0.3-0.3-0.5-0.9-0.5-1.5
			c0-0.6,0.2-1.2,0.5-1.5c0.2-0.2,0.6-0.4,1-0.4c0.4,0,0.8,0.2,1,0.5v-1.9h0.6v5.1H310.2z M309.7,42.4c-0.1-0.1-0.3-0.2-0.6-0.2
			c-0.8,0-1,0.7-1,1.4c0,0.7,0.2,1.4,1,1.4c0.3,0,0.4-0.1,0.6-0.2c0.3-0.3,0.4-0.7,0.4-1.1C310.1,43.1,310,42.7,309.7,42.4z"/>
		<path fill="#57BA9E" d="M317.8,45.3v-4.2l-1.5,4.1h-0.5l-1.5-4.2v4.2h-0.6v-5h0.9l1.5,4l1.5-4h0.9v5H317.8z"/>
		<path fill="#57BA9E" d="M322.1,45c-0.3,0.3-0.6,0.4-1.1,0.4s-0.8-0.2-1.1-0.4c-0.4-0.4-0.5-0.9-0.5-1.5c0-0.6,0.1-1.1,0.5-1.5
			c0.3-0.3,0.6-0.4,1.1-0.4s0.8,0.2,1.1,0.4c0.4,0.4,0.5,0.9,0.5,1.5C322.6,44.1,322.5,44.6,322.1,45z M321.7,42.4
			c-0.1-0.1-0.4-0.3-0.6-0.3s-0.5,0.1-0.6,0.3c-0.3,0.3-0.3,0.7-0.3,1.1s0.1,0.8,0.3,1.1c0.1,0.1,0.4,0.3,0.6,0.3s0.5-0.1,0.6-0.3
			c0.3-0.3,0.3-0.7,0.3-1.1S322,42.7,321.7,42.4z"/>
		<path fill="#57BA9E" d="M326.3,45c-0.2,0.2-0.6,0.4-1,0.4c-0.4,0-0.9-0.2-1.1-0.6l0,0.5h-0.5v-5.1h0.6v1.9c0.2-0.3,0.6-0.5,1-0.5
			c0.4,0,0.7,0.1,1,0.4c0.4,0.3,0.5,0.9,0.5,1.5C326.8,44.1,326.6,44.7,326.3,45z M325.2,42.2c-0.3,0-0.4,0.1-0.6,0.2
			c-0.3,0.3-0.4,0.7-0.4,1.1c0,0.4,0.1,0.9,0.4,1.1c0.1,0.1,0.3,0.2,0.6,0.2c0.8,0,1-0.7,1-1.4C326.2,42.9,326,42.2,325.2,42.2z"/>
		<path fill="#57BA9E" d="M327.8,41v-0.7h0.7V41H327.8z M327.9,45.3v-3.6h0.6v3.6H327.9z"/>
		<path fill="#57BA9E" d="M330.5,45.4c-0.5,0-0.7-0.3-0.7-0.9v-4.2h0.6v4.2c0,0.2,0.1,0.4,0.3,0.4c0.2,0,0.2,0,0.2,0v0.5
			C330.9,45.3,330.8,45.4,330.5,45.4z"/>
		<path fill="#57BA9E" d="M331.8,41v-0.7h0.7V41H331.8z M331.8,45.3v-3.6h0.6v3.6H331.8z"/>
		<path fill="#57BA9E" d="M334.9,45.4c-0.8,0-1-0.5-1-1v-2.1h-0.7v-0.5h0.7v-0.9l0.6-0.1v1h1.1v0.5h-1.1v2.1c0,0.3,0.1,0.5,0.5,0.5
			c0.3,0,0.6-0.1,0.6-0.1v0.5C335.4,45.3,335.2,45.4,334.9,45.4z"/>
		<path fill="#57BA9E" d="M339,45.4c-0.3,0-0.5-0.2-0.5-0.5h0c-0.2,0.4-0.6,0.6-1.1,0.6c-0.8,0-1.2-0.5-1.2-1.1
			c0-0.5,0.3-1.1,1.3-1.1l1.1-0.1v-0.3c0-0.2,0-0.4-0.2-0.5c-0.1-0.1-0.3-0.2-0.6-0.2c-0.3,0-0.5,0.1-0.6,0.2
			c-0.1,0.1-0.2,0.3-0.2,0.4h-0.6c0-0.3,0.1-0.6,0.3-0.7c0.2-0.3,0.7-0.4,1.1-0.4c0.7,0,1.1,0.3,1.2,0.7c0.1,0.2,0.1,0.3,0.1,0.5
			v1.7c0,0.2,0.1,0.2,0.2,0.2c0.1,0,0.2,0,0.2,0v0.4C339.3,45.3,339.1,45.4,339,45.4z M338.5,43.6l-1,0.1c-0.4,0-0.8,0.2-0.8,0.6
			c0,0.3,0.2,0.6,0.7,0.6c0.3,0,0.5-0.1,0.7-0.3c0.2-0.2,0.3-0.5,0.3-0.8V43.6z M336.8,41.1v-0.6h0.6v0.6H336.8z M338,41.1v-0.6h0.6
			v0.6H338z"/>
		<path fill="#57BA9E" d="M341.4,45.4c-0.8,0-1-0.5-1-1v-2.1h-0.7v-0.5h0.7v-0.9l0.6-0.1v1h1.1v0.5h-1.1v2.1c0,0.3,0.1,0.5,0.5,0.5
			c0.3,0,0.6-0.1,0.6-0.1v0.5C342,45.3,341.8,45.4,341.4,45.4z"/>
		<path fill="#57BA9E" d="M263.4,53.8v-5h3.3v0.6h-2.7V51h2.4v0.6h-2.4v1.7h2.7v0.6H263.4z"/>
		<path fill="#57BA9E" d="M270.1,53.5c-0.3,0.2-0.6,0.4-1,0.4c-0.6,0-1-0.3-1.3-0.7c-0.2-0.3-0.3-0.7-0.3-1.2s0.1-0.9,0.3-1.2
			c0.3-0.4,0.7-0.7,1.3-0.7c0.4,0,0.8,0.1,1,0.4c0.2,0.2,0.4,0.5,0.4,0.9h-0.6c0-0.2-0.1-0.4-0.3-0.6c-0.1-0.1-0.3-0.2-0.6-0.2
			c-0.3,0-0.5,0.1-0.6,0.2c-0.3,0.2-0.4,0.7-0.4,1.1s0.1,0.9,0.4,1.1c0.2,0.1,0.3,0.2,0.6,0.2c0.2,0,0.5-0.1,0.6-0.2
			c0.1-0.1,0.2-0.3,0.2-0.5h0.6C270.5,53,270.3,53.3,270.1,53.5z"/>
		<path fill="#57BA9E" d="M273.7,53.8v-2.3c0-0.5-0.2-0.8-0.8-0.8c-0.3,0-0.6,0.2-0.8,0.5c-0.1,0.3-0.1,0.6-0.1,0.9v1.6h-0.6v-5.1
			h0.6v2c0.2-0.4,0.6-0.6,1-0.6c0.8,0,1.2,0.5,1.2,1.3v2.3H273.7z"/>
		<path fill="#57BA9E" d="M278.1,53.9c-0.3,0-0.5-0.2-0.5-0.5h0c-0.2,0.4-0.6,0.6-1.1,0.6c-0.8,0-1.2-0.5-1.2-1.1
			c0-0.5,0.3-1.1,1.3-1.1l1.1-0.1v-0.3c0-0.2,0-0.4-0.2-0.5c-0.1-0.1-0.3-0.2-0.6-0.2c-0.3,0-0.5,0.1-0.6,0.2
			c-0.1,0.1-0.2,0.3-0.2,0.4h-0.6c0-0.3,0.1-0.6,0.3-0.7c0.2-0.3,0.7-0.4,1.1-0.4c0.7,0,1.1,0.3,1.2,0.7c0.1,0.2,0.1,0.3,0.1,0.5
			v1.7c0,0.2,0.1,0.2,0.2,0.2c0.1,0,0.2,0,0.2,0v0.4C278.4,53.9,278.3,53.9,278.1,53.9z M277.6,52.1l-1,0.1c-0.4,0-0.8,0.2-0.8,0.6
			c0,0.3,0.2,0.6,0.7,0.6c0.3,0,0.5-0.1,0.7-0.3c0.2-0.2,0.3-0.5,0.3-0.8V52.1z"/>
		<path fill="#57BA9E" d="M281.7,53.8v-2.3c0-0.5-0.2-0.8-0.8-0.8c-0.3,0-0.6,0.2-0.8,0.5c-0.1,0.3-0.1,0.6-0.1,0.9v1.6h-0.6v-3.6
			h0.5l0,0.5c0.2-0.4,0.7-0.6,1.1-0.6c0.8,0,1.2,0.5,1.2,1.3v2.3H281.7z"/>
		<path fill="#57BA9E" d="M286.3,55.1c-0.3,0.3-0.9,0.4-1.4,0.4c-0.5,0-1-0.1-1.3-0.4c-0.1-0.1-0.3-0.4-0.3-0.6
			c0-0.4,0.2-0.6,0.5-0.8c-0.2-0.1-0.4-0.3-0.4-0.6c0-0.3,0.2-0.6,0.5-0.7c-0.3-0.2-0.4-0.6-0.4-0.9c0-0.4,0.1-0.7,0.3-0.9
			c0.2-0.3,0.6-0.4,1.1-0.4c0.3,0,0.6,0.1,0.8,0.2c0.1-0.3,0.4-0.5,0.7-0.5c0.1,0,0.1,0,0.2,0v0.5c0,0-0.1,0-0.1,0
			c-0.2,0-0.4,0.1-0.4,0.3c0.1,0.2,0.2,0.4,0.2,0.7c0,0.3-0.1,0.6-0.3,0.8c-0.2,0.3-0.6,0.4-1.1,0.4c-0.2,0-0.4,0-0.6-0.1
			c-0.1,0-0.3,0.1-0.3,0.3c0,0.3,0.3,0.3,0.5,0.4c0.2,0,0.7,0,0.7,0c0.4,0,0.9,0.1,1.2,0.4c0.2,0.2,0.3,0.4,0.3,0.7
			C286.6,54.7,286.5,54.9,286.3,55.1z M284.9,53.8h-0.6c-0.2,0.1-0.4,0.3-0.4,0.6c0,0.2,0.1,0.3,0.1,0.4c0.2,0.2,0.6,0.2,0.9,0.2
			c0.3,0,0.7,0,1-0.3c0.1-0.1,0.1-0.2,0.1-0.4C286,53.8,285.3,53.8,284.9,53.8z M284.8,50.7c-0.5,0-0.8,0.3-0.8,0.8s0.3,0.8,0.8,0.8
			c0.5,0,0.8-0.3,0.8-0.8S285.3,50.7,284.8,50.7z"/>
		<path fill="#57BA9E" d="M290.2,52.3h-2.5c0,0.3,0.1,0.7,0.3,0.9c0.2,0.2,0.4,0.3,0.7,0.3c0.3,0,0.5-0.1,0.7-0.2
			c0.1-0.1,0.2-0.2,0.2-0.4h0.6c0,0.4-0.3,0.7-0.5,0.9c-0.3,0.2-0.6,0.3-0.9,0.3c-0.5,0-0.9-0.2-1.2-0.5c-0.3-0.3-0.4-0.8-0.4-1.3
			c0-0.4,0.1-0.8,0.3-1.1c0.3-0.4,0.7-0.7,1.3-0.7c0.5,0,0.8,0.2,1.1,0.5c0.3,0.3,0.5,0.8,0.4,1.2L290.2,52.3z M289.3,51
			c-0.1-0.2-0.4-0.3-0.7-0.3c-0.6,0-1,0.5-1,1h1.9C289.6,51.5,289.5,51.2,289.3,51z"/>
		<path fill="#57BA9E" d="M293.5,53.5c-0.3,0.3-0.7,0.4-1.2,0.4c-0.4,0-0.8-0.1-1.2-0.4c-0.2-0.2-0.3-0.5-0.3-0.8h0.6
			c0,0.2,0.1,0.4,0.3,0.6c0.2,0.1,0.4,0.2,0.6,0.2c0.2,0,0.5,0,0.7-0.2c0.1-0.1,0.2-0.2,0.2-0.4c0-0.3-0.2-0.5-0.6-0.5l-0.8-0.1
			c-0.5-0.1-0.9-0.4-0.9-1c0-0.3,0.1-0.5,0.3-0.7c0.2-0.2,0.6-0.4,1-0.4c0.5,0,0.9,0.1,1.1,0.4c0.2,0.2,0.3,0.4,0.3,0.7h-0.6
			c0-0.2-0.1-0.4-0.2-0.4c-0.1-0.1-0.3-0.2-0.6-0.2c-0.1,0-0.2,0-0.4,0.1c-0.2,0.1-0.4,0.3-0.4,0.5c0,0.3,0.2,0.4,0.5,0.5
			c0.2,0,0.5,0.1,0.9,0.1c0.5,0.1,0.9,0.4,0.9,1C293.8,53.1,293.7,53.3,293.5,53.5z"/>
		<path fill="#57BA9E" d="M299.3,52.3h-2.5c0,0.3,0.1,0.7,0.3,0.9c0.2,0.2,0.4,0.3,0.7,0.3c0.3,0,0.5-0.1,0.7-0.2
			c0.1-0.1,0.2-0.2,0.2-0.4h0.6c0,0.4-0.3,0.7-0.5,0.9c-0.3,0.2-0.6,0.3-0.9,0.3c-0.5,0-0.9-0.2-1.2-0.5c-0.3-0.3-0.4-0.8-0.4-1.3
			c0-0.4,0.1-0.8,0.3-1.1c0.3-0.4,0.7-0.7,1.3-0.7c0.5,0,0.8,0.2,1.1,0.5c0.3,0.3,0.5,0.8,0.4,1.2L299.3,52.3z M298.5,51
			c-0.1-0.2-0.4-0.3-0.7-0.3c-0.6,0-1,0.5-1,1h1.9C298.7,51.5,298.6,51.2,298.5,51z"/>
		<path fill="#57BA9E" d="M301.4,53.9c-0.8,0-1-0.5-1-1v-2.1h-0.7v-0.5h0.7v-0.9l0.6-0.1v1h1.1v0.5H301v2.1c0,0.3,0.1,0.5,0.5,0.5
			c0.3,0,0.6-0.1,0.6-0.1v0.5C301.9,53.8,301.7,53.9,301.4,53.9z"/>
		<path fill="#57BA9E" d="M308.9,53.8v-2.3c0-0.5-0.2-0.8-0.7-0.8c-0.2,0-0.4,0.1-0.5,0.2c-0.2,0.2-0.3,0.6-0.3,1v1.9h-0.6v-2.3
			c0-0.5-0.1-0.8-0.7-0.8c-0.3,0-0.5,0.1-0.6,0.3c-0.2,0.2-0.2,0.6-0.2,0.9v1.9h-0.6v-3.6h0.5l0.1,0.5c0.2-0.4,0.6-0.6,1-0.6
			c0.5,0,0.9,0.2,1.1,0.7c0.2-0.4,0.6-0.7,1.1-0.7c0.8,0,1.2,0.5,1.2,1.3v2.3H308.9z"/>
		<path fill="#57BA9E" d="M313.1,53.5c-0.3,0.3-0.6,0.4-1.1,0.4c-0.4,0-0.8-0.2-1.1-0.4c-0.4-0.4-0.5-0.9-0.5-1.5
			c0-0.6,0.1-1.1,0.5-1.5c0.3-0.3,0.6-0.4,1.1-0.4c0.4,0,0.8,0.2,1.1,0.4c0.4,0.4,0.5,0.9,0.5,1.5C313.6,52.6,313.5,53.1,313.1,53.5
			z M312.7,51c-0.1-0.1-0.4-0.3-0.6-0.3s-0.5,0.1-0.6,0.3c-0.3,0.3-0.3,0.7-0.3,1.1s0.1,0.8,0.3,1.1c0.1,0.1,0.4,0.3,0.6,0.3
			s0.5-0.1,0.6-0.3c0.3-0.3,0.3-0.7,0.3-1.1S312.9,51.2,312.7,51z"/>
		<path fill="#57BA9E" d="M317.3,53.5c-0.2,0.2-0.6,0.4-1,0.4c-0.4,0-0.9-0.2-1.1-0.6l0,0.5h-0.5v-5.1h0.6v1.9
			c0.2-0.3,0.6-0.5,1-0.5c0.4,0,0.7,0.1,1,0.4c0.4,0.3,0.5,0.9,0.5,1.5C317.8,52.7,317.6,53.2,317.3,53.5z M316.2,50.7
			c-0.3,0-0.4,0.1-0.6,0.2c-0.3,0.3-0.4,0.7-0.4,1.1s0.1,0.9,0.4,1.1c0.1,0.1,0.3,0.2,0.6,0.2c0.8,0,1-0.7,1-1.4
			C317.2,51.4,317,50.7,316.2,50.7z"/>
		<path fill="#57BA9E" d="M318.8,49.5v-0.7h0.7v0.7H318.8z M318.8,53.8v-3.6h0.6v3.6H318.8z"/>
		<path fill="#57BA9E" d="M321.5,53.9c-0.5,0-0.7-0.3-0.7-0.9v-4.2h0.6V53c0,0.2,0.1,0.4,0.3,0.4c0.2,0,0.2,0,0.2,0v0.5
			C321.9,53.8,321.8,53.9,321.5,53.9z"/>
		<path fill="#57BA9E" d="M322.7,49.5v-0.7h0.7v0.7H322.7z M322.8,53.8v-3.6h0.6v3.6H322.8z"/>
		<path fill="#57BA9E" d="M325.8,53.9c-0.8,0-1-0.5-1-1v-2.1h-0.7v-0.5h0.7v-0.9l0.6-0.1v1h1.1v0.5h-1.1v2.1c0,0.3,0.1,0.5,0.5,0.5
			c0.3,0,0.6-0.1,0.6-0.1v0.5C326.4,53.8,326.2,53.9,325.8,53.9z"/>
		<path fill="#57BA9E" d="M330.2,52.3h-2.5c0,0.3,0.1,0.7,0.3,0.9c0.2,0.2,0.4,0.3,0.7,0.3c0.3,0,0.5-0.1,0.7-0.2
			c0.1-0.1,0.2-0.2,0.2-0.4h0.6c0,0.4-0.3,0.7-0.5,0.9c-0.3,0.2-0.6,0.3-0.9,0.3c-0.5,0-0.9-0.2-1.2-0.5c-0.3-0.3-0.4-0.8-0.4-1.3
			c0-0.4,0.1-0.8,0.3-1.1c0.3-0.4,0.7-0.7,1.3-0.7c0.5,0,0.8,0.2,1.1,0.5c0.3,0.3,0.5,0.8,0.4,1.2L330.2,52.3z M329.4,51
			c-0.1-0.2-0.4-0.3-0.7-0.3c-0.6,0-1,0.5-1,1h1.9C329.6,51.5,329.5,51.2,329.4,51z M328.1,50l-0.2-0.3l1.2-0.9l0.3,0.5L328.1,50z"
			/>
		<path fill="#57BA9E" d="M266.7,61.9c-0.3,0.3-0.9,0.5-1.4,0.5c-0.6,0-1.1-0.2-1.4-0.5c-0.3-0.3-0.5-0.7-0.5-1.2h0.7
			c0,0.3,0.1,0.6,0.4,0.8c0.2,0.2,0.6,0.3,1,0.3c0.4,0,0.7-0.1,0.9-0.3c0.2-0.1,0.3-0.3,0.3-0.6c0-0.4-0.2-0.7-0.8-0.8l-0.8-0.1
			c-0.7-0.1-1.3-0.5-1.3-1.3c0-0.4,0.2-0.7,0.4-1c0.3-0.3,0.8-0.5,1.3-0.5c0.5,0,1,0.2,1.3,0.5c0.3,0.3,0.5,0.6,0.5,1.1h-0.7
			c0-0.2-0.1-0.5-0.2-0.6c-0.2-0.2-0.5-0.3-0.9-0.3c-0.4,0-0.7,0.1-0.9,0.3c-0.1,0.1-0.2,0.3-0.2,0.5c0,0.4,0.4,0.7,0.7,0.7
			c0.3,0,0.6,0.1,0.8,0.1c0.8,0.1,1.4,0.6,1.4,1.4C267.1,61.4,266.9,61.7,266.7,61.9z"/>
		<path fill="#57BA9E" d="M270.5,62.1c-0.3,0.2-0.6,0.4-1,0.4c-0.6,0-1-0.3-1.3-0.7c-0.2-0.3-0.3-0.7-0.3-1.2c0-0.5,0.1-0.9,0.3-1.2
			c0.3-0.4,0.7-0.7,1.3-0.7c0.4,0,0.8,0.1,1,0.4c0.2,0.2,0.4,0.5,0.4,0.9h-0.6c0-0.2-0.1-0.4-0.3-0.6c-0.1-0.1-0.3-0.2-0.6-0.2
			c-0.3,0-0.5,0.1-0.6,0.2c-0.3,0.2-0.4,0.7-0.4,1.1c0,0.4,0.1,0.9,0.4,1.1c0.2,0.1,0.3,0.2,0.6,0.2c0.2,0,0.5-0.1,0.6-0.2
			c0.1-0.1,0.2-0.3,0.2-0.5h0.6C270.8,61.5,270.7,61.8,270.5,62.1z"/>
		<path fill="#57BA9E" d="M274.4,62.4c-0.3,0-0.5-0.2-0.5-0.5h0c-0.2,0.4-0.6,0.6-1.1,0.6c-0.8,0-1.2-0.5-1.2-1.1
			c0-0.5,0.3-1.1,1.3-1.1l1.1-0.1v-0.3c0-0.2,0-0.4-0.2-0.5c-0.1-0.1-0.3-0.2-0.6-0.2c-0.3,0-0.5,0.1-0.6,0.2
			c-0.1,0.1-0.2,0.3-0.2,0.4h-0.6c0-0.3,0.1-0.6,0.3-0.7c0.2-0.3,0.7-0.4,1.1-0.4c0.7,0,1.1,0.3,1.2,0.7c0.1,0.2,0.1,0.3,0.1,0.5
			v1.7c0,0.2,0.1,0.2,0.2,0.2c0.1,0,0.2,0,0.2,0v0.4C274.7,62.4,274.6,62.4,274.4,62.4z M273.9,60.6l-1,0.1c-0.4,0-0.8,0.2-0.8,0.6
			c0,0.3,0.2,0.6,0.7,0.6c0.3,0,0.5-0.1,0.7-0.3c0.2-0.2,0.3-0.5,0.3-0.8V60.6z"/>
		<path fill="#57BA9E" d="M280.1,62.3v-2.3c0-0.5-0.2-0.8-0.7-0.8c-0.2,0-0.4,0.1-0.5,0.2c-0.2,0.2-0.3,0.6-0.3,1v1.9h-0.6v-2.3
			c0-0.5-0.1-0.8-0.7-0.8c-0.3,0-0.5,0.1-0.6,0.3c-0.2,0.2-0.2,0.6-0.2,0.9v1.9h-0.6v-3.6h0.5l0.1,0.5c0.2-0.4,0.6-0.6,1-0.6
			c0.5,0,0.9,0.2,1.1,0.7c0.2-0.4,0.6-0.7,1.1-0.7c0.8,0,1.2,0.5,1.2,1.3v2.3H280.1z"/>
		<path fill="#57BA9E" d="M284.5,62.1c-0.2,0.2-0.6,0.4-1,0.4c-0.4,0-0.9-0.2-1.1-0.6l0,0.5h-0.5v-5.1h0.6v1.9
			c0.2-0.3,0.6-0.5,1-0.5c0.4,0,0.7,0.1,1,0.4c0.4,0.3,0.5,0.9,0.5,1.5C285.1,61.2,284.9,61.7,284.5,62.1z M283.4,59.2
			c-0.3,0-0.4,0.1-0.6,0.2c-0.3,0.3-0.4,0.7-0.4,1.1c0,0.4,0.1,0.9,0.4,1.1c0.1,0.1,0.3,0.2,0.6,0.2c0.8,0,1-0.7,1-1.4
			C284.4,59.9,284.2,59.2,283.4,59.2z"/>
		<path fill="#57BA9E" d="M286,58v-0.7h0.7V58H286z M286.1,62.3v-3.6h0.6v3.6H286.1z"/>
		<path fill="#57BA9E" d="M292.5,60.8H290c0,0.3,0.1,0.7,0.3,0.9c0.2,0.2,0.4,0.3,0.7,0.3c0.3,0,0.5-0.1,0.7-0.2
			c0.1-0.1,0.2-0.2,0.2-0.4h0.6c0,0.4-0.3,0.7-0.5,0.9c-0.3,0.2-0.6,0.3-0.9,0.3c-0.5,0-0.9-0.2-1.2-0.5c-0.3-0.3-0.4-0.8-0.4-1.3
			c0-0.4,0.1-0.8,0.3-1.1c0.3-0.4,0.7-0.7,1.3-0.7c0.5,0,0.8,0.2,1.1,0.5c0.3,0.3,0.5,0.8,0.4,1.2L292.5,60.8z M291.7,59.5
			c-0.1-0.2-0.4-0.3-0.7-0.3c-0.6,0-1,0.5-1,1h1.9C291.9,60,291.8,59.7,291.7,59.5z"/>
		<path fill="#57BA9E" d="M299.4,62.3v-2.3c0-0.5-0.2-0.8-0.7-0.8c-0.2,0-0.4,0.1-0.5,0.2c-0.2,0.2-0.3,0.6-0.3,1v1.9h-0.6v-2.3
			c0-0.5-0.1-0.8-0.7-0.8c-0.3,0-0.5,0.1-0.6,0.3c-0.2,0.2-0.2,0.6-0.2,0.9v1.9h-0.6v-3.6h0.5l0.1,0.5c0.2-0.4,0.6-0.6,1-0.6
			c0.5,0,0.9,0.2,1.1,0.7c0.2-0.4,0.6-0.7,1.1-0.7c0.8,0,1.2,0.5,1.2,1.3v2.3H299.4z"/>
		<path fill="#57BA9E" d="M303.6,62c-0.3,0.3-0.6,0.4-1.1,0.4s-0.8-0.2-1.1-0.4c-0.4-0.4-0.5-0.9-0.5-1.5c0-0.6,0.1-1.1,0.5-1.5
			c0.3-0.3,0.6-0.4,1.1-0.4s0.8,0.2,1.1,0.4c0.4,0.4,0.5,0.9,0.5,1.5C304.1,61.1,304,61.6,303.6,62z M303.2,59.5
			c-0.1-0.1-0.4-0.3-0.6-0.3s-0.5,0.1-0.6,0.3c-0.3,0.3-0.3,0.7-0.3,1.1c0,0.4,0.1,0.8,0.3,1.1c0.1,0.1,0.4,0.3,0.6,0.3
			s0.5-0.1,0.6-0.3c0.3-0.3,0.3-0.7,0.3-1.1C303.5,60.2,303.4,59.7,303.2,59.5z"/>
		<path fill="#57BA9E" d="M307.8,62.1c-0.2,0.2-0.6,0.4-1,0.4c-0.4,0-0.9-0.2-1.1-0.6l0,0.5h-0.5v-5.1h0.6v1.9
			c0.2-0.3,0.6-0.5,1-0.5c0.4,0,0.7,0.1,1,0.4c0.4,0.3,0.5,0.9,0.5,1.5C308.3,61.2,308.1,61.7,307.8,62.1z M306.7,59.2
			c-0.3,0-0.4,0.1-0.6,0.2c-0.3,0.3-0.4,0.7-0.4,1.1c0,0.4,0.1,0.9,0.4,1.1c0.1,0.1,0.3,0.2,0.6,0.2c0.8,0,1-0.7,1-1.4
			C307.7,59.9,307.5,59.2,306.7,59.2z"/>
		<path fill="#57BA9E" d="M309.3,58v-0.7h0.7V58H309.3z M309.3,62.3v-3.6h0.6v3.6H309.3z"/>
		<path fill="#57BA9E" d="M312,62.4c-0.5,0-0.7-0.3-0.7-0.9v-4.2h0.6v4.2c0,0.2,0.1,0.4,0.3,0.4c0.2,0,0.2,0,0.2,0v0.5
			C312.4,62.3,312.3,62.4,312,62.4z"/>
		<path fill="#57BA9E" d="M313.2,58v-0.7h0.7V58H313.2z M313.3,62.3v-3.6h0.6v3.6H313.3z"/>
		<path fill="#57BA9E" d="M316.3,62.4c-0.8,0-1-0.5-1-1v-2.1h-0.7v-0.5h0.7v-0.9l0.6-0.1v1h1.1v0.5H316v2.1c0,0.3,0.1,0.5,0.5,0.5
			c0.3,0,0.6-0.1,0.6-0.1v0.5C316.9,62.3,316.7,62.4,316.3,62.4z"/>
		<path fill="#57BA9E" d="M320.5,62.4c-0.3,0-0.5-0.2-0.5-0.5h0c-0.2,0.4-0.6,0.6-1.1,0.6c-0.8,0-1.2-0.5-1.2-1.1
			c0-0.5,0.3-1.1,1.3-1.1l1.1-0.1v-0.3c0-0.2,0-0.4-0.2-0.5c-0.1-0.1-0.3-0.2-0.6-0.2c-0.3,0-0.5,0.1-0.6,0.2
			c-0.1,0.1-0.2,0.3-0.2,0.4h-0.6c0-0.3,0.1-0.6,0.3-0.7c0.2-0.3,0.7-0.4,1.1-0.4c0.7,0,1.1,0.3,1.2,0.7c0.1,0.2,0.1,0.3,0.1,0.5
			v1.7c0,0.2,0.1,0.2,0.2,0.2c0.1,0,0.2,0,0.2,0v0.4C320.8,62.4,320.6,62.4,320.5,62.4z M319.9,60.6l-1,0.1c-0.4,0-0.8,0.2-0.8,0.6
			c0,0.3,0.2,0.6,0.7,0.6c0.3,0,0.5-0.1,0.7-0.3c0.2-0.2,0.3-0.5,0.3-0.8V60.6z M318.4,57.8l0.3-0.5l1.2,0.9l-0.2,0.3L318.4,57.8z"
			/>
		<path fill="#57BA9E" d="M263.5,70.9v-5h3.3v0.6h-2.7V68h2.4v0.6h-2.4v1.7h2.7v0.6H263.5z"/>
		<path fill="#57BA9E" d="M269.8,70.9l-0.9-1.4l-0.9,1.4h-0.7l1.2-1.8l-1.2-1.7h0.7l0.9,1.3l0.9-1.3h0.7l-1.2,1.7l1.2,1.8H269.8z"/>
		<path fill="#57BA9E" d="M273.6,70.6c-0.3,0.2-0.6,0.4-1,0.4c-0.6,0-1-0.3-1.3-0.7c-0.2-0.3-0.3-0.7-0.3-1.2c0-0.5,0.1-0.9,0.3-1.2
			c0.3-0.4,0.7-0.7,1.3-0.7c0.4,0,0.8,0.1,1,0.4c0.2,0.2,0.4,0.5,0.4,0.9h-0.6c0-0.2-0.1-0.4-0.3-0.6c-0.1-0.1-0.3-0.2-0.6-0.2
			c-0.3,0-0.5,0.1-0.6,0.2c-0.3,0.2-0.4,0.7-0.4,1.1c0,0.4,0.1,0.9,0.4,1.1c0.2,0.1,0.3,0.2,0.6,0.2c0.2,0,0.5-0.1,0.6-0.2
			c0.1-0.1,0.2-0.3,0.2-0.5h0.6C273.9,70,273.8,70.3,273.6,70.6z"/>
		<path fill="#57BA9E" d="M277.2,70.9v-2.3c0-0.5-0.2-0.8-0.8-0.8c-0.3,0-0.6,0.2-0.8,0.5c-0.1,0.3-0.1,0.6-0.1,0.9v1.6h-0.6v-5.1
			h0.6v2c0.2-0.4,0.6-0.6,1-0.6c0.8,0,1.2,0.5,1.2,1.3v2.3H277.2z"/>
		<path fill="#57BA9E" d="M281.6,70.9c-0.3,0-0.5-0.2-0.5-0.5h0c-0.2,0.4-0.6,0.6-1.1,0.6c-0.8,0-1.2-0.5-1.2-1.1
			c0-0.5,0.3-1.1,1.3-1.1l1.1-0.1v-0.3c0-0.2,0-0.4-0.2-0.5c-0.1-0.1-0.3-0.2-0.6-0.2c-0.3,0-0.5,0.1-0.6,0.2
			c-0.1,0.1-0.2,0.3-0.2,0.4h-0.6c0-0.3,0.1-0.6,0.3-0.7c0.2-0.3,0.7-0.4,1.1-0.4c0.7,0,1.1,0.3,1.2,0.7c0.1,0.2,0.1,0.3,0.1,0.5
			v1.7c0,0.2,0.1,0.2,0.2,0.2c0.1,0,0.2,0,0.2,0v0.4C281.9,70.9,281.7,70.9,281.6,70.9z M281,69.2l-1,0.1c-0.4,0-0.8,0.2-0.8,0.6
			c0,0.3,0.2,0.6,0.7,0.6c0.3,0,0.5-0.1,0.7-0.3c0.2-0.2,0.3-0.5,0.3-0.8V69.2z"/>
		<path fill="#57BA9E" d="M285.2,70.9v-2.3c0-0.5-0.2-0.8-0.8-0.8c-0.3,0-0.6,0.2-0.8,0.5c-0.1,0.3-0.1,0.6-0.1,0.9v1.6h-0.6v-3.6
			h0.5l0,0.5c0.2-0.4,0.7-0.6,1.1-0.6c0.8,0,1.2,0.5,1.2,1.3v2.3H285.2z"/>
		<path fill="#57BA9E" d="M289.8,72.1c-0.3,0.3-0.9,0.4-1.4,0.4c-0.5,0-1-0.1-1.3-0.4c-0.1-0.1-0.3-0.4-0.3-0.6
			c0-0.4,0.2-0.6,0.5-0.8c-0.2-0.1-0.4-0.3-0.4-0.6c0-0.3,0.2-0.6,0.5-0.7c-0.3-0.2-0.4-0.6-0.4-0.9c0-0.4,0.1-0.7,0.3-0.9
			c0.2-0.3,0.6-0.4,1.1-0.4c0.3,0,0.6,0.1,0.8,0.2c0.1-0.3,0.4-0.5,0.7-0.5c0.1,0,0.1,0,0.2,0v0.5c0,0-0.1,0-0.1,0
			c-0.2,0-0.4,0.1-0.4,0.3c0.1,0.2,0.2,0.4,0.2,0.7c0,0.3-0.1,0.6-0.3,0.8c-0.2,0.3-0.6,0.4-1.1,0.4c-0.2,0-0.4,0-0.6-0.1
			c-0.1,0-0.3,0.1-0.3,0.3c0,0.3,0.3,0.3,0.5,0.4c0.2,0,0.7,0,0.7,0c0.4,0,0.9,0.1,1.2,0.4c0.2,0.2,0.3,0.4,0.3,0.7
			C290.1,71.7,289.9,71.9,289.8,72.1z M288.4,70.8h-0.6c-0.2,0.1-0.4,0.3-0.4,0.6c0,0.2,0.1,0.3,0.1,0.4c0.2,0.2,0.6,0.2,0.9,0.2
			c0.3,0,0.7,0,1-0.3c0.1-0.1,0.1-0.2,0.1-0.4C289.5,70.8,288.8,70.8,288.4,70.8z M288.3,67.7c-0.5,0-0.8,0.3-0.8,0.8
			s0.3,0.8,0.8,0.8c0.5,0,0.8-0.3,0.8-0.8S288.8,67.7,288.3,67.7z"/>
		<path fill="#57BA9E" d="M293.6,69.3h-2.5c0,0.3,0.1,0.7,0.3,0.9c0.2,0.2,0.4,0.3,0.7,0.3c0.3,0,0.5-0.1,0.7-0.2
			c0.1-0.1,0.2-0.2,0.2-0.4h0.6c0,0.4-0.3,0.7-0.5,0.9c-0.3,0.2-0.6,0.3-0.9,0.3c-0.5,0-0.9-0.2-1.2-0.5c-0.3-0.3-0.4-0.8-0.4-1.3
			c0-0.4,0.1-0.8,0.3-1.1c0.3-0.4,0.7-0.7,1.3-0.7c0.5,0,0.8,0.2,1.1,0.5c0.3,0.3,0.5,0.8,0.4,1.2L293.6,69.3z M292.8,68
			c-0.1-0.2-0.4-0.3-0.7-0.3c-0.6,0-1,0.5-1,1h1.9C293,68.5,293,68.2,292.8,68z"/>
		<path fill="#57BA9E" d="M298.8,70.9c-0.3,0-0.5-0.2-0.5-0.5h0c-0.2,0.4-0.6,0.6-1.1,0.6c-0.8,0-1.2-0.5-1.2-1.1
			c0-0.5,0.3-1.1,1.3-1.1l1.1-0.1v-0.3c0-0.2,0-0.4-0.2-0.5c-0.1-0.1-0.3-0.2-0.6-0.2c-0.3,0-0.5,0.1-0.6,0.2
			c-0.1,0.1-0.2,0.3-0.2,0.4h-0.6c0-0.3,0.1-0.6,0.3-0.7c0.2-0.3,0.7-0.4,1.1-0.4c0.7,0,1.1,0.3,1.2,0.7c0.1,0.2,0.1,0.3,0.1,0.5
			v1.7c0,0.2,0.1,0.2,0.2,0.2c0.1,0,0.2,0,0.2,0v0.4C299.1,70.9,299,70.9,298.8,70.9z M298.3,69.2l-1,0.1c-0.4,0-0.8,0.2-0.8,0.6
			c0,0.3,0.2,0.6,0.7,0.6c0.3,0,0.5-0.1,0.7-0.3c0.2-0.2,0.3-0.5,0.3-0.8V69.2z"/>
		<path fill="#57BA9E" d="M302.5,70.9v-2.3c0-0.5-0.2-0.8-0.8-0.8c-0.3,0-0.6,0.2-0.8,0.5c-0.1,0.3-0.1,0.6-0.1,0.9v1.6h-0.6v-3.6
			h0.5l0,0.5c0.2-0.4,0.7-0.6,1.1-0.6c0.8,0,1.2,0.5,1.2,1.3v2.3H302.5z"/>
		<path fill="#57BA9E" d="M306.6,70.9l0-0.5c-0.2,0.4-0.7,0.6-1.1,0.6c-0.4,0-0.8-0.1-1-0.4c-0.3-0.3-0.5-0.9-0.5-1.5
			c0-0.6,0.2-1.2,0.5-1.5c0.2-0.2,0.6-0.4,1-0.4c0.4,0,0.8,0.2,1,0.5v-1.9h0.6v5.1H306.6z M306.2,68c-0.1-0.1-0.3-0.2-0.6-0.2
			c-0.8,0-1,0.7-1,1.4c0,0.7,0.2,1.4,1,1.4c0.3,0,0.4-0.1,0.6-0.2c0.3-0.3,0.4-0.7,0.4-1.1C306.6,68.6,306.5,68.2,306.2,68z"/>
		<path fill="#57BA9E" d="M314.4,70.9v-2.3c0-0.5-0.2-0.8-0.7-0.8c-0.2,0-0.4,0.1-0.5,0.2c-0.2,0.2-0.3,0.6-0.3,1v1.9h-0.6v-2.3
			c0-0.5-0.1-0.8-0.7-0.8c-0.3,0-0.5,0.1-0.6,0.3c-0.2,0.2-0.2,0.6-0.2,0.9v1.9h-0.6v-3.6h0.5l0.1,0.5c0.2-0.4,0.6-0.6,1-0.6
			c0.5,0,0.9,0.2,1.1,0.7c0.2-0.4,0.6-0.7,1.1-0.7c0.8,0,1.2,0.5,1.2,1.3v2.3H314.4z"/>
		<path fill="#57BA9E" d="M318.6,70.5c-0.3,0.3-0.6,0.4-1.1,0.4s-0.8-0.2-1.1-0.4c-0.4-0.4-0.5-0.9-0.5-1.5c0-0.6,0.1-1.1,0.5-1.5
			c0.3-0.3,0.6-0.4,1.1-0.4s0.8,0.2,1.1,0.4c0.4,0.4,0.5,0.9,0.5,1.5C319.1,69.7,319,70.2,318.6,70.5z M318.2,68
			c-0.1-0.1-0.4-0.3-0.6-0.3s-0.5,0.1-0.6,0.3c-0.3,0.3-0.3,0.7-0.3,1.1s0.1,0.8,0.3,1.1c0.1,0.1,0.4,0.3,0.6,0.3s0.5-0.1,0.6-0.3
			c0.3-0.3,0.3-0.7,0.3-1.1S318.4,68.2,318.2,68z"/>
		<path fill="#57BA9E" d="M322.8,70.6c-0.2,0.2-0.6,0.4-1,0.4c-0.4,0-0.9-0.2-1.1-0.6l0,0.5h-0.5v-5.1h0.6v1.9
			c0.2-0.3,0.6-0.5,1-0.5c0.4,0,0.7,0.1,1,0.4c0.4,0.3,0.5,0.9,0.5,1.5C323.3,69.7,323.1,70.2,322.8,70.6z M321.7,67.7
			c-0.3,0-0.4,0.1-0.6,0.2c-0.3,0.3-0.4,0.7-0.4,1.1c0,0.4,0.1,0.9,0.4,1.1c0.1,0.1,0.3,0.2,0.6,0.2c0.8,0,1-0.7,1-1.4
			C322.7,68.4,322.5,67.7,321.7,67.7z"/>
		<path fill="#57BA9E" d="M324.3,66.5v-0.7h0.7v0.7H324.3z M324.3,70.9v-3.6h0.6v3.6H324.3z"/>
		<path fill="#57BA9E" d="M326.9,70.9c-0.5,0-0.7-0.3-0.7-0.9v-4.2h0.6V70c0,0.2,0.1,0.4,0.3,0.4c0.2,0,0.2,0,0.2,0v0.5
			C327.4,70.9,327.2,70.9,326.9,70.9z"/>
		<path fill="#57BA9E" d="M328.2,66.5v-0.7h0.7v0.7H328.2z M328.3,70.9v-3.6h0.6v3.6H328.3z"/>
		<path fill="#57BA9E" d="M331.3,70.9c-0.8,0-1-0.5-1-1v-2.1h-0.7v-0.5h0.7v-0.9l0.6-0.1v1h1.1v0.5h-1.1v2.1c0,0.3,0.1,0.5,0.5,0.5
			c0.3,0,0.6-0.1,0.6-0.1v0.5C331.9,70.9,331.6,70.9,331.3,70.9z"/>
		<path fill="#57BA9E" d="M334.1,71.6c-0.2,0.5-0.4,0.8-1,0.8c-0.3,0-0.5-0.1-0.5-0.1v-0.5c0,0,0.2,0.1,0.4,0.1
			c0.3,0,0.4-0.1,0.5-0.4l0.2-0.6l-1.4-3.6h0.7l1,2.8l1-2.8h0.6L334.1,71.6z"/>
	</g>
</g>
</svg>
