<?xml version="1.0" encoding="UTF-8"?><svg id="Layer_1" xmlns="http://www.w3.org/2000/svg" viewBox="0 0 3000 3000"><path d="m1191.05,1803.22c37.97,0,74.34-7.24,108.14-21.53,33.06-14,62.93-34.19,88.79-60.05,25.87-25.87,46.08-55.76,60.05-88.84,14.32-33.81,21.56-70.23,21.56-108.22s-7.23-74.41-21.56-108.23c-13.97-33.08-34.18-62.98-60.05-88.84-25.87-25.87-55.74-46.06-88.79-60.05-33.8-14.3-70.17-21.53-108.14-21.53s-74.35,7.24-108.14,21.53c-33.06,14-62.93,34.19-88.8,60.05-25.86,25.86-46.08,55.76-60.05,88.84-14.32,33.81-21.56,70.23-21.56,108.23s7.24,74.41,21.56,108.22c13.97,33.08,34.18,62.98,60.05,88.84,25.87,25.86,55.74,46.05,88.8,60.05,33.79,14.3,70.17,21.53,108.14,21.53m0,854.3c-625.65,0-1132.85-507.24-1132.85-1132.95S565.4,391.62,1191.05,391.62s1132.84,507.24,1132.84,1132.95-507.2,1132.95-1132.84,1132.95h0Z" style="fill:#39b54a;"/><path d="m2636.95,693.03c152.67,0,276.42,123.77,276.42,276.44s-123.75,276.45-276.42,276.45-276.42-123.77-276.42-276.45,123.76-276.44,276.42-276.44h0Z" style="fill:#47ae4c; fill-rule:evenodd;"/></svg>