<?xml version="1.0" encoding="utf-8"?>
<!-- Generator: Adobe Illustrator 27.6.1, SVG Export Plug-In . SVG Version: 6.00 Build 0)  -->
<svg version="1.1" id="Layer_1" xmlns="http://www.w3.org/2000/svg" xmlns:xlink="http://www.w3.org/1999/xlink" x="0px" y="0px"
	 viewBox="0 0 3000 3000" style="enable-background:new 0 0 3000 3000;" xml:space="preserve">
<style type="text/css">
	.st0{fill:#39B54A;}
	.st1{fill-rule:evenodd;clip-rule:evenodd;fill:#47AE4C;}
</style>
<path class="st0" d="M1191.1,1803.2c38,0,74.3-7.2,108.1-21.5c33.1-14,62.9-34.2,88.8-60c25.9-25.9,46.1-55.8,60-88.8
	c14.3-33.8,21.6-70.2,21.6-108.2c0-38-7.2-74.4-21.6-108.2c-14-33.1-34.2-63-60-88.8c-25.9-25.9-55.7-46.1-88.8-60.1
	c-33.8-14.3-70.2-21.5-108.1-21.5c-38,0-74.3,7.2-108.1,21.5c-33.1,14-62.9,34.2-88.8,60.1c-25.9,25.9-46.1,55.8-60,88.8
	c-14.3,33.8-21.6,70.2-21.6,108.2c0,38,7.2,74.4,21.6,108.2c14,33.1,34.2,63,60,88.8c25.9,25.9,55.7,46.1,88.8,60
	C1116.7,1796,1153.1,1803.2,1191.1,1803.2 M1191.1,2657.5c-625.6,0-1132.8-507.2-1132.8-1132.9c0-625.7,507.2-1133,1132.8-1133
	c625.6,0,1132.8,507.2,1132.8,1133C2323.9,2150.3,1816.7,2657.5,1191.1,2657.5L1191.1,2657.5L1191.1,2657.5z"/>
<path class="st1" d="M2637,693c152.7,0,276.4,123.8,276.4,276.4c0,152.7-123.8,276.4-276.4,276.4c-152.7,0-276.4-123.8-276.4-276.4
	C2360.5,816.8,2484.3,693,2637,693L2637,693z"/>
<path class="st0" d="M1144.9-1046.6c38,0,74.3-7.2,108.1-21.5c33.1-14,62.9-34.2,88.8-60c25.9-25.9,46.1-55.8,60-88.8
	c14.3-33.8,21.6-70.2,21.6-108.2c0-38-7.2-74.4-21.6-108.2c-14-33.1-34.2-63-60-88.8c-25.9-25.9-55.7-46.1-88.8-60.1
	c-33.8-14.3-70.2-21.5-108.1-21.5c-38,0-74.3,7.2-108.1,21.5c-33.1,14-62.9,34.2-88.8,60.1c-25.9,25.9-46.1,55.8-60,88.8
	c-14.3,33.8-21.6,70.2-21.6,108.2c0,38,7.2,74.4,21.6,108.2c14,33.1,34.2,63,60,88.8c25.9,25.9,55.7,46.1,88.8,60
	C1070.6-1053.8,1106.9-1046.6,1144.9-1046.6 M1144.9-192.3C519.3-192.3,12.1-699.5,12.1-1325.2c0-625.7,507.2-1133,1132.8-1133
	c625.6,0,1132.8,507.2,1132.8,1133C2277.7-699.5,1770.5-192.3,1144.9-192.3L1144.9-192.3L1144.9-192.3z"/>
<path d="M758.1-1035.9c-30.8,15.2-62.9,27-96.2,35.4c-33.4,8.5-68.3,12.7-104.7,12.7c-86.3,0-151.7-28-196.3-83.9
	c-44.6-55.9-67-138.9-67-249c0-52.4,6.1-99.2,18.2-140.1c12.1-41,29.5-75.6,52-104c22.5-28.4,49.9-50.1,82.2-65
	c32.3-15,68.4-22.4,108.2-22.4c39,0,75,4.5,107.9,13.3c32.9,8.9,64.8,21.8,95.6,38.7v-113.8c-31.2-13.9-63.7-24.2-97.5-30.9
	c-33.8-6.7-70.4-10.1-109.9-10.1c-58.1,0-110.5,10.4-157.3,31.2c-46.8,20.8-86.7,50.4-119.6,88.8c-32.9,38.4-58.3,85.1-76.1,140.1
	c-17.8,55.1-26.7,116.6-26.7,184.7c0,140.4,32.2,246.5,96.5,318.3c64.4,71.7,156.6,107.6,276.6,107.6c74.5,0,145.8-14.1,213.9-42.3
	V-1035.9L758.1-1035.9z"/>
<polygon points="2049.6,-1735.1 1429.3,-1735.1 1429.3,-1636.2 1680.9,-1636.2 1680.9,-885.2 1798,-885.2 1798,-1636.2 
	2049.6,-1636.2 2049.6,-1735.1 "/>
<path class="st1" d="M3912.3-2178.5c152.7,0,276.4,123.8,276.4,276.4c0,152.7-123.8,276.4-276.4,276.4
	c-152.7,0-276.4-123.8-276.4-276.4C3635.9-2054.7,3759.6-2178.5,3912.3-2178.5L3912.3-2178.5z"/>
<path d="M3888.3-979.5h-214.5v94.3h523.4v-94.3h-194.4V-1538h-307.5v93.6h193.1V-979.5L3888.3-979.5z"/>
<polygon points="2843.6,-984.1 2476.3,-984.1 2476.3,-1276.7 2829.3,-1276.7 2829.3,-1374.2 2476.3,-1374.2 2476.3,-1637.5 
	2843.6,-1637.5 2843.6,-1735.1 2360.5,-1735.1 2360.5,-885.2 2843.6,-885.2 2843.6,-984.1 "/>
<path d="M3522.8-1632.6c-65.2-68.3-164.2-102.4-296.8-102.4H3007v849.8h182c54.2,0,102.5-5.1,145-15.3
	c42.5-10.2,79.7-24.6,111.8-43.2c32.1-18.6,59.2-41.1,81.3-67.3c22.1-26.2,40.1-55.4,54-87.4c13.9-32.1,23.9-66.8,30.2-104
	c6.3-37.3,9.4-76.3,9.4-117C3620.7-1460,3588.1-1564.4,3522.8-1632.6L3522.8-1632.6z M3209.1-985.4h-86.5v-652.2h99.5
	c46.8,0,87.5,5.7,122.2,17.2c34.7,11.5,63.5,30,86.5,55.6c23,25.6,40.1,59.2,51.4,100.8c11.3,41.6,16.9,92.6,16.9,152.8
	C3499.1-1093.9,3402.5-985.4,3209.1-985.4L3209.1-985.4L3209.1-985.4z"/>
</svg>
