<svg height="88" width="173" xmlns="http://www.w3.org/2000/svg"><path d="M12.288 16.806c-.632.3-2.045.63-3.809.63-5.432 0-8.188-3.649-8.188-8.488C.291 2.979 4.26 0 8.85 0c1.744 0 3.057.35 3.638.66l-.731 2.949c-.632-.3-1.544-.55-2.727-.55-2.676 0-4.851 1.79-4.851 5.699 0 3.599 1.865 5.569 4.871 5.569.983 0 2.075-.2 2.727-.46zm14.522-.28c-1.062.38-3.087.86-5.021.86-2.776 0-4.771-.71-6.214-2.089-1.543-1.46-2.375-3.78-2.345-6.429C13.28 3.049 17.219.05 22.2.05c1.944 0 3.408.38 4.139.73l-.731 2.999c-.812-.38-1.794-.63-3.338-.63-2.926 0-5.181 1.74-5.181 5.649 0 3.699 2.024 5.589 4.7 5.589.702 0 1.263-.07 1.514-.2v-3.749h-2.296v-2.9h5.813v8.988zM29.667.22h3.688v13.887h6.034v3.099h-9.722zM6.876 34.552c-.421.23-1.263.42-2.316.42-2.626 0-4.55-1.75-4.55-5.129 0-3.449 2.105-5.339 4.801-5.339 1.072 0 1.774.23 2.075.39l-.301 1.04c-.421-.21-.982-.36-1.744-.36-2.005 0-3.498 1.39-3.498 4.189 0 2.69 1.353 4.109 3.458 4.109.711 0 1.393-.15 1.834-.36zm3.999.44c-1.795 0-3.188-1.36-3.188-3.759 0-2.53 1.484-3.859 3.288-3.859 1.864 0 3.177 1.419 3.177 3.769 0 2.749-1.714 3.859-3.277 3.859zm.06-.97c1.192 0 1.924-1.349 1.924-2.859 0-1.21-.501-2.829-1.924-2.829-1.414 0-1.945 1.539-1.945 2.859 0 1.48.712 2.829 1.925 2.829zm4.8-9.837h1.273v10.657h-1.273zm6.064 10.807c-1.794 0-3.187-1.36-3.187-3.759 0-2.53 1.483-3.859 3.287-3.859 1.865 0 3.188 1.419 3.188 3.769 0 2.749-1.714 3.859-3.278 3.859h-.01zm.06-.97c1.193 0 1.925-1.349 1.925-2.859 0-1.21-.502-2.829-1.925-2.829-1.413 0-1.944 1.539-1.944 2.859 0 1.48.711 2.829 1.924 2.829zm10.504-.21c0 1.77-.321 2.69-.942 3.3-.632.599-1.564.849-2.456.849-.802 0-1.673-.2-2.195-.53l.321-.979c.421.26 1.103.5 1.904.5 1.243 0 2.105-.67 2.105-2.45v-.8h-.03c-.351.65-1.072 1.13-2.045 1.13-1.663 0-2.836-1.53-2.836-3.599 0-2.54 1.503-3.859 2.997-3.859 1.122 0 1.714.62 2.014 1.17h.03l.061-1.01h1.122c-.03.52-.06 1.139-.06 2.089v4.189zm-1.273-3.509c0-.21-.02-.41-.06-.57-.211-.7-.742-1.329-1.634-1.329-1.142 0-1.914 1.089-1.914 2.769 0 1.57.702 2.659 1.914 2.659.682 0 1.333-.41 1.604-1.269.08-.23.09-.47.09-.7zm3.257-.83c0-.79-.03-1.349-.06-1.949h1.123l.08 1.1h.03c.351-.65 1.123-1.26 2.195-1.26 1.002 0 2.335.65 2.335 2.939v4.539h-1.273v-4.369c0-1.09-.36-2.039-1.483-2.039-.762 0-1.383.559-1.594 1.319-.05.17-.07.39-.07.62v4.479h-1.273v-5.379zm8.48 1.9c.01 1.939 1.092 2.599 2.275 2.599.822 0 1.363-.15 1.794-.35l.21.92c-.441.21-1.202.42-2.185.42-2.104 0-3.337-1.47-3.337-3.689 0-2.25 1.233-3.919 3.167-3.919 2.125 0 2.726 1.939 2.726 3.369 0 .29-.01.49-.05.64h-4.6zm3.427-.92c.01-1.03-.391-2.149-1.623-2.149-1.183 0-1.694 1.199-1.794 2.149zm12.759 3.989a8.09 8.09 0 0 1-2.746.5c-1.353 0-2.496-.35-3.398-1.24-.832-.829-1.363-2.189-1.363-3.869.02-3.329 2.075-5.289 5.021-5.289 1.013 0 1.825.23 2.225.41l-.3 1.06c-.471-.21-1.063-.38-1.945-.38-2.124 0-3.668 1.39-3.668 4.129 0 2.75 1.443 4.129 3.488 4.129.732 0 1.203-.11 1.443-.23v-3.129h-1.834v-1.03h3.077zm6.685-1.33c0 .6.01 1.22.11 1.72h-1.152l-.11-.88h-.051c-.38.56-1.072 1.03-2.014 1.03-1.323 0-2.075-.98-2.075-2.099 0-1.78 1.534-2.71 4.019-2.69v-.18c0-.71-.2-1.689-1.513-1.679-.622 0-1.243.18-1.694.499l-.291-.879c.522-.33 1.333-.59 2.195-.59 1.995 0 2.576 1.359 2.576 2.889zm-1.243-2.019c-1.202-.01-2.776.2-2.776 1.67 0 .889.541 1.269 1.133 1.269.831 0 1.393-.53 1.573-1.179.05-.14.06-.29.06-.42v-1.34zm3.238-1.62c0-.79-.03-1.349-.061-1.949h1.123l.06 1.1h.03c.381-.67 1.033-1.26 2.125-1.26.892 0 1.604.53 1.914 1.359h.03c.211-.389.502-.709.792-.919.391-.29.832-.44 1.423-.44.983 0 2.225.67 2.225 2.999v4.479h-1.252v-4.259c0-1.29-.411-2.149-1.424-2.149-.681 0-1.212.509-1.423 1.159-.06.2-.09.42-.09.67v4.579h-1.263v-4.509c0-1.06-.411-1.909-1.363-1.909-.732 0-1.303.589-1.483 1.289-.06.2-.091.42-.091.65v4.479h-1.262v-5.369zm12.448 1.9c.01 1.939 1.092 2.599 2.275 2.599.822 0 1.363-.15 1.784-.35l.21.92c-.441.21-1.192.42-2.185.42-2.104 0-3.337-1.47-3.337-3.689 0-2.25 1.223-3.919 3.167-3.919 2.125 0 2.726 1.939 2.726 3.369 0 .29-.02.49-.05.64h-4.59zm3.417-.92c.02-1.03-.39-2.149-1.623-2.149-1.183 0-1.694 1.199-1.794 2.149zm5.803-5.809h1.283v9.118h3.909v1.08h-5.192zm11.296 8.468c0 .6.02 1.22.11 1.72h-1.152l-.111-.88h-.05c-.381.56-1.072 1.03-2.014 1.03-1.323 0-2.075-.98-2.075-2.099 0-1.78 1.533-2.71 4.019-2.69v-.18c0-.71-.2-1.689-1.513-1.679-.622 0-1.243.18-1.694.499l-.291-.879c.511-.33 1.333-.59 2.195-.59 2.005 0 2.576 1.359 2.576 2.889zm-1.243-2.019c-1.203-.01-2.776.2-2.776 1.67 0 .889.541 1.269 1.132 1.269.832 0 1.394-.53 1.574-1.179.05-.14.06-.29.06-.42v-1.34zm3.237-6.909h1.273v4.419h.03c.441-.789 1.203-1.229 2.215-1.229 1.624 0 2.777 1.449 2.777 3.719 0 2.629-1.484 3.899-2.967 3.899-.982 0-1.694-.42-2.165-1.28h-.05l-.06 1.14h-1.103c.03-.48.06-1.24.06-1.84v-8.828zm1.273 7.829c0 .17.01.33.04.47.261.979.973 1.479 1.744 1.479 1.263 0 1.945-1.179 1.945-2.809 0-1.48-.632-2.749-1.925-2.749-.781 0-1.533.649-1.744 1.539-.03.15-.06.33-.06.53zM.01 57.347h1.213v9.708H.01zm3.328 4.599c0-.75-.031-1.28-.061-1.86H4.35l.07 1.05h.03c.331-.62 1.072-1.2 2.095-1.2.952 0 2.225.62 2.225 2.79v4.319H7.557v-4.159c0-1.04-.351-1.95-1.413-1.95-.722 0-1.313.53-1.514 1.25-.04.16-.07.37-.07.59v4.259H3.348v-5.089zm7.176 3.859c.33.22.942.46 1.513.46.842 0 1.253-.43 1.253-1.04 0-.58-.321-.91-1.183-1.3-1.152-.489-1.714-1.149-1.714-1.989 0-1.12.892-2 2.266-2 .661 0 1.212.19 1.573.4l-.301.89c-.27-.17-.721-.38-1.283-.38-.711 0-1.082.43-1.082.94 0 .55.351.81 1.183 1.2 1.082.46 1.714 1.079 1.714 2.099 0 1.28-.953 2.09-2.456 2.09-.692 0-1.353-.19-1.794-.46zm6.905-7.368v1.659h1.674v.91h-1.674v3.879c0 .88.271 1.3.892 1.3.291 0 .481-.03.652-.07l.04.92c-.231.09-.581.16-1.043.16-.531 0-.992-.17-1.282-.5-.321-.36-.461-.94-.461-1.8v-3.889h-1.013v-.92h1.013v-1.249zm3.568.5c-.431 0-.741-.33-.741-.76 0-.45.32-.78.751-.78.451 0 .752.33.752.78 0 .43-.291.76-.752.76zm-.581 1.149h1.213v6.969h-1.213zm4.62-1.649v1.659H26.7v.91h-1.674v3.879c0 .88.271 1.3.892 1.3.291 0 .482-.03.652-.07l.04.92c-.231.09-.581.16-1.042.16-.532 0-.993-.17-1.283-.5-.321-.36-.461-.94-.461-1.8v-3.889h-1.013v-.92h1.013v-1.249zm8.319 6.718c0 .74.03 1.35.06 1.9h-1.072l-.07-1.01h-.03a2.388 2.388 0 0 1-2.065 1.15c-1.143 0-2.195-.71-2.195-2.94v-4.179h1.213v3.969c0 1.25.351 2.13 1.373 2.13.792 0 1.303-.61 1.473-1.1.06-.19.1-.4.1-.65v-4.359h1.213zm3.418-6.718v1.659h1.674v.91h-1.674v3.879c0 .88.27 1.3.892 1.3.291 0 .481-.03.651-.07l.04.92c-.23.09-.581.16-1.042.16-.531 0-.992-.17-1.283-.5-.321-.36-.461-.94-.461-1.8v-3.889h-1.012v-.92h1.012v-1.249zm3.608 5.329c.01 1.839 1.042 2.479 2.165 2.479.782 0 1.303-.14 1.704-.33l.2.88c-.421.2-1.142.4-2.074.4-2.005 0-3.178-1.4-3.178-3.509 0-2.15 1.173-3.73 3.017-3.73 2.025 0 2.596 1.84 2.596 3.21 0 .27-.02.46-.04.6zm3.267-.88c.01-.98-.38-2.04-1.543-2.04-1.123 0-1.614 1.14-1.704 2.04zm5.633 4.169v-6.049h-.952v-.92h.952v-.36c0-.909.191-1.769.752-2.329.451-.46 1.072-.63 1.603-.63.431 0 .792.09 1.023.19l-.171.95c-.17-.07-.401-.14-.751-.14-.993 0-1.243.92-1.243 1.949v.39h1.563v.9h-1.563v6.049zm6.214.15c-1.704 0-3.027-1.3-3.027-3.589 0-2.41 1.413-3.67 3.137-3.67 1.774 0 3.027 1.35 3.027 3.59 0 2.619-1.634 3.669-3.117 3.669zm.06-.92c1.143 0 1.834-1.28 1.834-2.719 0-1.15-.481-2.69-1.834-2.69-1.343 0-1.844 1.47-1.844 2.72 0 1.409.682 2.689 1.834 2.689zm4.561-4.139c0-.75-.031-1.45-.061-2.06h1.073l.06 1.3h.04c.291-.86 1.012-1.44 1.794-1.44.13 0 .221.01.321.03v1.18c-.1-.03-.211-.03-.361-.03-.842 0-1.443.66-1.604 1.57-.03.17-.04.39-.04.6v3.759h-1.212v-4.909zM7.156 84.941c-.521.2-1.513.48-2.616.48-1.283 0-2.385-.33-3.237-1.18C.511 83.451 0 82.151 0 80.552c.01-3.17 1.974-5.039 4.781-5.039.972 0 1.734.22 2.125.39l-.291 1.01c-.451-.2-1.012-.36-1.844-.36-2.025 0-3.498 1.319-3.498 3.929 0 2.619 1.373 3.929 3.317 3.929.692 0 1.143-.1 1.373-.22v-2.979H4.22v-.98h2.926v4.709zm6.375-1.27c0 .58.01 1.17.1 1.64h-1.103l-.1-.83h-.04c-.361.53-1.022.98-1.924.98-1.253 0-1.975-.94-1.975-2 0-1.7 1.453-2.579 3.829-2.559v-.17c0-.68-.191-1.61-1.443-1.6-.592 0-1.183.17-1.614.48l-.271-.84c.491-.32 1.273-.56 2.095-.56 1.904 0 2.456 1.3 2.456 2.75v2.709zm-1.183-1.93c-1.143-.01-2.646.19-2.646 1.58 0 .85.521 1.21 1.082 1.21.792 0 1.333-.5 1.504-1.12.04-.13.06-.27.06-.4zm3.087-1.539c0-.75-.03-1.28-.06-1.86h1.072l.06 1.05h.03c.361-.63.982-1.2 2.025-1.2.852 0 1.533.5 1.824 1.3h.03c.2-.38.481-.68.752-.88.371-.27.792-.42 1.353-.42.942 0 2.125.63 2.125 2.85v4.259h-1.203v-4.059c0-1.22-.391-2.05-1.353-2.05-.652 0-1.153.49-1.353 1.11-.06.19-.09.4-.09.63v4.359h-1.203v-4.289c0-1.01-.391-1.81-1.303-1.81-.692 0-1.243.56-1.413 1.22-.06.19-.09.4-.09.62v4.259h-1.203zm11.857 1.809c.01 1.84 1.042 2.48 2.164 2.48.782 0 1.303-.14 1.704-.33l.201.88c-.421.2-1.143.4-2.075.4-2.004 0-3.177-1.4-3.177-3.51 0-2.149 1.173-3.729 3.017-3.729 2.024 0 2.596 1.84 2.596 3.209 0 .27-.021.46-.041.6zm3.267-.879c.01-.98-.381-2.05-1.544-2.05-1.122 0-1.613 1.14-1.703 2.05zm5.282-5.529c.661-.13 1.463-.2 2.305-.2 1.574 0 2.696.38 3.448 1.07.832.749 1.353 1.919 1.353 3.619 0 1.789-.501 3.039-1.333 3.879-.832.85-2.165 1.3-3.829 1.3-.762 0-1.413-.04-1.964-.1v-9.568zm1.213 8.608c.27.04.651.04 1.012.04 2.255 0 3.628-1.31 3.628-4.129.01-2.35-1.123-3.759-3.448-3.759-.501 0-.912.04-1.182.1v7.748zm8.178-2.33c.01 1.84 1.042 2.48 2.165 2.48.782 0 1.303-.14 1.704-.33l.2.88c-.421.2-1.142.4-2.075.4-2.004 0-3.177-1.4-3.177-3.51 0-2.149 1.173-3.729 3.017-3.729 2.025 0 2.596 1.84 2.596 3.21 0 .269-.02.459-.04.599zm3.267-.879c.01-.98-.381-2.04-1.543-2.04-1.123 0-1.614 1.14-1.704 2.04zm3.157-2.8l1.223 3.899c.191.6.351 1.18.491 1.77h.03c.141-.58.321-1.15.502-1.77l1.212-3.899h1.253l-2.465 6.969h-1.143l-2.405-6.969zm6.425 3.679c.01 1.84 1.042 2.48 2.165 2.48.782 0 1.303-.14 1.704-.33l.2.88c-.421.2-1.142.4-2.075.4-2.004 0-3.177-1.4-3.177-3.51 0-2.149 1.173-3.729 3.017-3.729 2.025 0 2.596 1.84 2.596 3.21 0 .269-.01.459-.04.599zm3.267-.879c.01-.98-.381-2.04-1.543-2.04-1.123 0-1.614 1.14-1.704 2.04zm2.656-5.979h1.213v10.158h-1.213zm5.773 10.298c-1.704 0-3.027-1.3-3.027-3.59 0-2.409 1.414-3.669 3.138-3.669 1.774 0 3.026 1.35 3.026 3.589 0 2.62-1.633 3.67-3.117 3.67zm.06-.92c1.143 0 1.835-1.28 1.835-2.72 0-1.149-.482-2.689-1.835-2.689-1.343 0-1.844 1.47-1.844 2.719 0 1.41.682 2.69 1.834 2.69zm4.561-3.949c0-.95-.03-1.64-.06-2.25h1.082l.07 1.09h.03c.481-.81 1.223-1.24 2.175-1.24 1.564 0 2.686 1.38 2.686 3.539 0 2.53-1.403 3.72-2.876 3.72-.852 0-1.534-.4-1.874-1.01H75.6V88h-1.212v-7.548zm1.212 1.979c0 .19.01.36.061.53.21.91.912 1.38 1.633 1.38 1.223 0 1.864-1.15 1.864-2.68 0-1.409-.621-2.609-1.834-2.609-.751 0-1.463.62-1.643 1.47-.04.16-.071.34-.071.52v1.389zm6.265-2.369c0-.75-.03-1.28-.061-1.86h1.073l.06 1.05h.03c.361-.63.982-1.2 2.025-1.2.852 0 1.533.5 1.824 1.3h.03c.2-.38.481-.68.751-.88.371-.27.792-.42 1.354-.42.942 0 2.124.63 2.124 2.85v4.259h-1.202v-4.059c0-1.22-.391-2.04-1.353-2.04-.652 0-1.153.49-1.353 1.11-.061.19-.091.4-.091.63v4.359h-1.202v-4.289c0-1.01-.391-1.81-1.303-1.81-.692 0-1.243.56-1.414 1.22-.06.19-.09.4-.09.62v4.259h-1.202zm11.856 1.819c.01 1.84 1.043 2.48 2.165 2.48.782 0 1.303-.14 1.704-.33l.2.88c-.42.2-1.142.4-2.074.4-2.005 0-3.177-1.4-3.177-3.51 0-2.149 1.172-3.729 3.016-3.729 2.025 0 2.596 1.84 2.596 3.21 0 .269-.02.459-.04.599zm3.258-.879c.01-.98-.381-2.04-1.544-2.04-1.122 0-1.613 1.14-1.704 2.04zm2.656-.94c0-.75-.03-1.28-.06-1.86h1.072l.07 1.05h.03c.331-.62 1.073-1.2 2.095-1.2.952 0 2.225.62 2.225 2.79v4.319h-1.213v-4.159c0-1.04-.351-1.95-1.413-1.95-.722 0-1.313.53-1.513 1.25-.041.16-.071.38-.071.59v4.259h-1.212v-5.089zm8.769-3.509v1.659h1.674v.92h-1.674v3.869c0 .88.271 1.3.892 1.3.291 0 .482-.03.652-.07l.04.92c-.231.09-.581.16-1.042.16-.532 0-.993-.17-1.283-.5-.321-.36-.461-.94-.461-1.8v-3.879h-1.013v-.92h1.013v-1.249zm11.546 8.628c-.25-.27-.481-.52-.841-.92a3.608 3.608 0 0 1-2.616 1.07c-1.824 0-2.827-1.28-2.827-2.71 0-1.239.692-2.159 1.794-2.819v-.04c-.481-.63-.791-1.35-.791-2.07 0-1.179.841-2.349 2.335-2.349 1.122 0 2.024.75 2.024 2.029 0 1.01-.551 1.8-1.994 2.61v.04c.691.85 1.543 1.929 2.205 2.719.451-.75.691-1.769.842-2.819h1.102c-.22 1.41-.591 2.679-1.303 3.559.421.48.882 1.01 1.504 1.71h-1.434zm-3.227-.78c.752 0 1.403-.35 1.824-.86-.651-.78-1.613-1.92-2.545-3.069-.502.36-1.143.989-1.143 1.989 0 1.08.722 1.95 1.844 1.95h.02zm.181-8.228c-.722 0-1.113.65-1.113 1.399 0 .69.291 1.22.682 1.76.922-.56 1.483-1.11 1.483-1.9 0-.599-.301-1.249-1.042-1.249h-.01zm8.429-.57c.591-.13 1.403-.2 2.185-.2 1.222 0 2.064.24 2.625.76.482.45.742 1.109.742 1.859 0 1.27-.742 2.1-1.744 2.49v.03c.732.25 1.153.939 1.383 2.029.291 1.35.501 2.25.692 2.61h-1.243c-.16-.29-.361-1.14-.601-2.35-.271-1.34-.762-1.839-1.844-1.869h-.963v4.219h-1.212v-9.578zm1.212 4.429h1.043c1.273 0 2.074-.75 2.074-1.87 0-1.219-.781-1.819-2.064-1.819-.501 0-.862.04-1.053.1zm6.685 1.849c.01 1.84 1.043 2.48 2.165 2.48.782 0 1.303-.14 1.704-.33l.201.88c-.421.2-1.143.4-2.075.4-2.005 0-3.177-1.4-3.177-3.51 0-2.149 1.172-3.729 3.017-3.729 2.024 0 2.595 1.84 2.595 3.21 0 .269-.02.459-.04.599zm3.268-.879c.01-.98-.381-2.04-1.544-2.04-1.122 0-1.613 1.14-1.704 2.04zm2.465 2.919c.331.22.942.46 1.514.46.842 0 1.253-.43 1.253-1.04 0-.58-.321-.91-1.183-1.3-1.153-.49-1.714-1.149-1.714-1.989 0-1.12.892-2 2.265-2 .662 0 1.213.19 1.574.4l-.301.89a2.44 2.44 0 0 0-1.283-.38c-.711 0-1.082.43-1.082.94 0 .55.35.81 1.182 1.2 1.083.459 1.714 1.079 1.714 2.099 0 1.28-.952 2.09-2.455 2.09-.692 0-1.353-.19-1.794-.46zm6.164-2.04c.01 1.84 1.043 2.48 2.165 2.48.782 0 1.303-.14 1.704-.33l.2.88c-.421.2-1.142.4-2.074.4-2.005 0-3.177-1.4-3.177-3.51 0-2.149 1.172-3.729 3.016-3.729 2.025 0 2.596 1.84 2.596 3.21 0 .269-.02.459-.04.599zm3.268-.879c.01-.98-.381-2.04-1.544-2.04-1.122 0-1.614 1.14-1.704 2.04zm7.186 2.529c0 .58.01 1.17.1 1.64h-1.102l-.101-.84h-.04c-.361.53-1.022.98-1.924.98-1.253 0-1.975-.94-1.975-2 0-1.7 1.454-2.579 3.829-2.559v-.17c0-.68-.19-1.61-1.443-1.6-.592 0-1.183.17-1.614.48l-.27-.84c.491-.32 1.272-.56 2.094-.56 1.905 0 2.456 1.3 2.456 2.75v2.719zm-1.183-1.93c-1.142-.01-2.646.19-2.646 1.58 0 .85.521 1.21 1.083 1.21.791 0 1.333-.5 1.503-1.12.04-.13.06-.27.06-.4zm3.087-1.339c0-.75-.03-1.45-.06-2.06h1.072l.06 1.3h.041c.29-.86 1.012-1.44 1.794-1.44.13 0 .21.01.32.03v1.18c-.1-.03-.22-.03-.36-.03-.832 0-1.444.66-1.604 1.57-.03.17-.04.39-.04.599v3.76h-1.213v-4.909zm8.72 4.689c-.301.16-.942.36-1.744.36-1.925 0-3.207-1.37-3.207-3.56 0-2.099 1.343-3.689 3.467-3.689.632 0 1.223.16 1.534.33l-.271.94c-.26-.13-.681-.29-1.273-.29-1.453 0-2.205 1.24-2.205 2.659 0 1.61.912 2.61 2.195 2.61.592 0 .993-.14 1.333-.29zm1.343-9.928h1.212v4.159h.031c.19-.32.481-.6.811-.81.351-.2.732-.32 1.203-.32.912 0 2.185.6 2.185 2.82v4.289h-1.213v-4.159c0-1.05-.361-1.95-1.413-1.95-.722 0-1.303.52-1.513 1.22-.06.16-.07.36-.07.58v4.309h-1.213V75.023z" fill="#1d1e1c"/></svg>