<?xml version="1.0" encoding="UTF-8"?><svg id="Capa_1" xmlns="http://www.w3.org/2000/svg" viewBox="0 0 357.96 138.4"><path d="m62.72,58.62h-15.75v40.6c0,11.05-4.42,19.48-17.55,19.48-8.56,0-13.68-4.56-13.68-17.13v-42.95H0v44.47c0,18.65,8.01,28.04,26.66,28.04,7.87,0,16.44-4.7,20.31-11.88h.28v9.95h15.47V58.62h0Z" style="fill:#1d1d1b;"/><polygon points="9.15 39.02 53.58 39.02 53.58 46.86 9.15 46.86 9.15 39.02 9.15 39.02" style="fill:#e41f13;"/><path d="m25.96,5.6c0-3.09,2.51-5.6,5.6-5.6s5.6,2.5,5.6,5.6-2.5,5.6-5.6,5.6-5.6-2.5-5.6-5.6h0Z" style="fill:#e41f13;"/><path d="m0,24.67c0-5.05,4.1-9.15,9.15-9.15s9.14,4.1,9.14,9.15-4.09,9.15-9.14,9.15S0,29.73,0,24.67h0Z" style="fill:#e41f13;"/><path d="m22.21,24.67c0-5.05,4.1-9.15,9.15-9.15s9.15,4.1,9.15,9.15-4.09,9.15-9.15,9.15-9.15-4.09-9.15-9.15h0Z" style="fill:#e41f13;"/><path d="m44.43,24.67c0-5.05,4.09-9.15,9.15-9.15s9.15,4.1,9.15,9.15-4.1,9.15-9.15,9.15-9.15-4.09-9.15-9.15h0Z" style="fill:#e41f13;"/><path d="m128.1,58.61h-3.92v15.9c0,2.56-.32,4.57-1.73,5.97-1.24,1.24-3.4,2.2-6.41,2.2-2.36,0-4.32-.76-5.89-2.32-1.24-1.24-1.64-2.52-1.64-5.61v-16.14h-3.92v16.98c0,7.45,5.61,10.69,11.38,10.69,8.13,0,12.14-4.4,12.14-11.09v-16.58h0Z" style="fill:#1d1d1b;"/><path d="m157.61,67.94h-3.57v17.98h3.57v-17.98h0Zm.36-5.45c0-1.16-.96-2.12-2.12-2.12s-2.12.96-2.12,2.12.96,2.12,2.12,2.12,2.12-.96,2.12-2.12h0Z" style="fill:#1d1d1b; fill-rule:evenodd;"/><path d="m196.26,80.72c-2.08,1.36-4.12,2.17-6.28,2.17-3.45,0-5.49-1.84-6.05-5.41h12.65c0-6.65-3.04-9.89-7.81-9.89s-8.41,3.68-8.41,9.13c0,4.97,3.12,9.57,8.73,9.57,3.04,0,5.01-.68,7.17-2.12v-3.45h0Zm-12.25-5.61c.48-2.84,2.12-4.45,4.85-4.45,2.52,0,4.08,1.72,4.2,4.45h-9.05Z" style="fill:#1d1d1b; fill-rule:evenodd;"/><path d="m236.36,67.94h-3.56v17.98h3.56v-17.98h0Zm.36-5.45c0-1.16-.96-2.12-2.12-2.12s-2.12.96-2.12,2.12.96,2.12,2.12,2.12,2.12-.96,2.12-2.12h0Z" style="fill:#1d1d1b; fill-rule:evenodd;"/><path d="m257.09,58.61h-3.56v9.69c-1.44-.52-2.56-.72-3.76-.72-5.25,0-8.97,3.72-8.97,8.93,0,5.77,3.37,9.41,8.73,9.41h7.57v-27.31h0Zm-3.56,24.31h-3.6c-4.12,0-5.49-2.52-5.49-5.89,0-3.77,2.32-6.25,5.76-6.25,1.2,0,2.13.2,3.33.68v11.46h0Z" style="fill:#1d1d1b; fill-rule:evenodd;"/><path d="m277.13,82.72c-.8.6-1.52.96-1.89.96-.44,0-.68-.24-.68-.92v-9.25c0-4.09-2.88-5.93-6.53-5.93-2.6,0-4.56.8-5.97,2.44v3.89c1.73-2.05,3.73-2.97,5.69-2.97,2.16,0,3.24.92,3.24,3.17v.96l-3.17,1.12c-2.88,1.04-6.13,2.12-6.13,5.69,0,2.32,1.77,4.4,4.41,4.4,1.64,0,3.28-.6,4.85-1.84.32,1.28,1.16,1.84,2.73,1.84,1.12,0,1.8-.32,3.45-1.4v-2.16h0Zm-6.13-.44c-.96.92-2,1.48-3.12,1.48-1.48,0-2.56-1.04-2.56-2.52,0-2.12,2.64-3.16,5.69-4.21v5.25h0Z" style="fill:#1d1d1b; fill-rule:evenodd;"/><path d="m295.33,58.61h-3.57v9.69c-1.44-.52-2.56-.72-3.76-.72-5.25,0-8.97,3.72-8.97,8.93,0,5.77,3.36,9.41,8.73,9.41h7.57v-27.31h0Zm-3.57,24.31h-3.6c-4.13,0-5.49-2.52-5.49-5.89,0-3.77,2.32-6.25,5.77-6.25,1.2,0,2.12.2,3.32.68v11.46h0Z" style="fill:#1d1d1b; fill-rule:evenodd;"/><path d="m227.64,69.06c-1.89-1-3.61-1.48-5.29-1.48-3.6,0-5.93,1.84-5.93,4.88,0,4.85,8.41,6.17,8.41,8.65,0,1.28-1.21,1.96-2.65,2.05-1.44,0-3.57-.76-5.89-2.37v3.85c2.32,1.2,4.04,1.64,6.24,1.64,3.41,0,5.93-2.12,5.93-5.29,0-1.84-1.08-3.09-4.04-5.04-3.17-1.84-4.37-2.8-4.37-3.6,0-.96.92-1.64,2.37-1.64,1.32,0,3.2.56,5.2,1.88v-3.53h0Z" style="fill:#1d1d1b;"/><path d="m200.81,67.94v17.98h3.56v-9.41c0-3.08,1.93-5.53,4.37-5.53.84,0,2.25.72,3.32,1.76l1.88-3.08c-1.48-1.4-2.85-2.08-4.29-2.08-1.68,0-3.4,1.32-5.21,4.48h-.08v-4.12h-3.56Z" style="fill:#1d1d1b;"/><polygon points="169.47 86.28 170.67 86.28 178.6 67.94 174.8 67.94 170.07 79 165.22 67.94 161.34 67.94 169.47 86.28 169.47 86.28" style="fill:#1d1d1b;"/><path d="m137.26,67.94h-3.56v17.98h3.56v-12.9c1.68-1.88,2.92-2.6,4.48-2.6,2.16,0,3.52,1.72,3.52,4.36v11.13h3.57v-11.09c0-4.93-2.72-7.25-6.13-7.25-2,0-4.01,1-5.37,2.72h-.08v-2.37h0Z" style="fill:#1d1d1b;"/><path d="m104.62,101.87v27.31h3.93v-11.85h1.64c2,0,3.65.64,7.25,6.25l3.61,5.61h4.69c-1.88-2.6-2.56-3.52-3.73-5.41-2.08-3.4-3.6-5.93-6.09-7.57,2.92-1.16,4.57-3.53,4.57-6.69,0-4.73-3.45-7.65-8.97-7.65h-6.89Zm3.93,3.36h2.52c3.8,0,5.33,1.56,5.37,4.13.04,2.28-1.16,4.45-5.37,4.45h-2.52v-8.57h0Z" style="fill:#1d1d1b; fill-rule:evenodd;"/><path d="m142.92,123.98c-2.08,1.36-4.12,2.16-6.29,2.16-3.45,0-5.49-1.84-6.05-5.4h12.66c0-6.65-3.05-9.89-7.81-9.89s-8.41,3.68-8.41,9.13c0,4.96,3.12,9.57,8.73,9.57,3.04,0,5.01-.68,7.17-2.12v-3.44h0Zm-12.26-5.61c.48-2.84,2.12-4.45,4.85-4.45,2.52,0,4.08,1.72,4.21,4.45h-9.05Z" style="fill:#1d1d1b; fill-rule:evenodd;"/><path d="m222.77,125.98c-.8.6-1.52.96-1.88.96-.44,0-.68-.24-.68-.92v-9.25c0-4.09-2.88-5.93-6.53-5.93-2.6,0-4.57.8-5.97,2.45v3.89c1.73-2.05,3.73-2.97,5.69-2.97,2.16,0,3.25.92,3.25,3.16v.96l-3.17,1.12c-2.89,1.04-6.13,2.12-6.13,5.69,0,2.32,1.76,4.41,4.41,4.41,1.64,0,3.28-.6,4.85-1.85.32,1.28,1.16,1.85,2.72,1.85,1.12,0,1.8-.32,3.44-1.4v-2.16h0Zm-6.12-.44c-.96.92-2.01,1.48-3.13,1.48-1.47,0-2.56-1.04-2.56-2.52,0-2.12,2.64-3.16,5.69-4.21v5.25h0Z" style="fill:#1d1d1b; fill-rule:evenodd;"/><path d="m280.14,103.76c-3.72-1.56-6.57-2.24-9.37-2.24-8.69,0-14.98,6.09-14.98,14.42,0,5.73,4.48,13.62,14.74,13.62,4.29,0,7.21-1,9.9-2.41v-4.28c-3.09,2-6.45,3.08-9.54,3.08-6.57,0-11.06-4.25-11.06-10.38s4.65-10.45,10.89-10.45c3.17,0,6.05.88,9.41,2.84v-4.21h0Z" style="fill:#1d1d1b;"/><polygon points="321.83 101.87 318.26 101.87 318.26 129.19 321.83 129.19 321.83 101.87 321.83 101.87" style="fill:#1d1d1b;"/><path d="m334.11,110.84c-5.37,0-9.49,4-9.49,9.17,0,5.53,3.97,9.54,9.49,9.54s9.73-3.84,9.73-9.54c0-5.33-4.09-9.17-9.73-9.17h0Zm-.04,3.21c3.56,0,6.12,2.52,6.12,6.01,0,3.89-2.36,6.29-6.12,6.29-3.45,0-5.81-2.52-5.81-6.33,0-3.44,2.44-5.97,5.81-5.97h0Z" style="fill:#1d1d1b; fill-rule:evenodd;"/><path d="m357.12,112.33c-1.88-1-3.6-1.48-5.29-1.48-3.6,0-5.92,1.84-5.92,4.89,0,4.85,8.41,6.17,8.41,8.65,0,1.28-1.2,1.96-2.64,2.04-1.44,0-3.56-.76-5.88-2.36v3.84c2.32,1.2,4.04,1.64,6.24,1.64,3.41,0,5.93-2.12,5.93-5.29,0-1.84-1.08-3.09-4.05-5.05-3.16-1.84-4.37-2.8-4.37-3.61,0-.96.92-1.64,2.37-1.64,1.32,0,3.2.56,5.21,1.88v-3.52h0Z" style="fill:#1d1d1b;"/><polygon points="162.17 111.21 158.16 111.21 153.52 121.34 148.67 111.21 144.62 111.21 151.59 125.34 145.47 138.4 149.43 138.4 162.17 111.21 162.17 111.21" style="fill:#1d1d1b;"/><path d="m181.28,101.87h-3.93v26.47c0,4.24-.36,6.33-4.53,6.33h-1l.72,3.65c.4.04.72.08,1.2.08,5.48,0,7.53-3.8,7.53-8.89v-27.64h0Z" style="fill:#1d1d1b;"/><path d="m202.55,129.19v-17.98h-3.57v12.86c-1.16,1.64-2.68,2.52-4.29,2.52-2.44,0-3.68-1.44-3.68-3.97v-11.41h-3.57v11.17c0,4.57,2.57,7.17,6.21,7.17,1.76,0,3.84-1.04,5.33-2.64v2.28h3.57Z" style="fill:#1d1d1b; fill-rule:evenodd;"/><path d="m229.78,111.21h-3.56v17.98h3.56v-12.9c1.68-1.88,2.92-2.6,4.49-2.6,2.16,0,3.52,1.72,3.52,4.37v11.13h3.57v-11.09c0-4.93-2.73-7.25-6.13-7.25-2,0-4,1-5.37,2.72h-.08v-2.36h0Z" style="fill:#1d1d1b;"/><path d="m299.11,125.98c-.8.6-1.52.96-1.88.96-.44,0-.68-.24-.68-.92v-9.25c0-4.09-2.89-5.93-6.53-5.93-2.6,0-4.57.8-5.97,2.45v3.89c1.72-2.05,3.73-2.97,5.69-2.97,2.16,0,3.25.92,3.25,3.16v.96l-3.17,1.12c-2.88,1.04-6.13,2.12-6.13,5.69,0,2.32,1.77,4.41,4.41,4.41,1.64,0,3.28-.6,4.85-1.85.32,1.28,1.16,1.85,2.72,1.85,1.12,0,1.8-.32,3.44-1.4v-2.16h0Zm-6.12-.44c-.96.92-2,1.48-3.13,1.48-1.48,0-2.57-1.04-2.57-2.52,0-2.12,2.64-3.16,5.69-4.21v5.25h0Z" style="fill:#1d1d1b; fill-rule:evenodd;"/><path d="m302.65,111.21v17.98h3.57v-9.41c0-3.08,1.92-5.53,4.36-5.53.85,0,2.24.72,3.33,1.76l1.88-3.08c-1.48-1.4-2.84-2.09-4.28-2.09-1.69,0-3.41,1.32-5.21,4.49h-.08v-4.12h-3.57Z" style="fill:#1d1d1b;"/></svg>