<?xml version="1.0" encoding="UTF-8"?><svg id="en" xmlns="http://www.w3.org/2000/svg" viewBox="0 0 331.83 96.43"><path d="m19.14,20.36c0,2.07,1.31,3.88,3.27,4.52.52.15,1.06.23,1.61.23h13.07c-.5.54-18.11,19.69-18.11,19.69-1.02,1.09-1.53,2.51-1.53,4.22v.23c.11,2.07,1.71,4.36,4.98,4.51h.32s26.06,0,26.06,0c.56,0,1.11-.08,1.63-.23,1.95-.65,3.26-2.46,3.26-4.51s-1.31-3.87-3.26-4.51h0c-.52-.16-1.06-.23-1.62-.23h-15.11c.49-.54,17.77-19.48,17.77-19.48,1.15-1.23,1.81-2.67,1.81-3.94l-.02-.5c-.06-.86-.26-1.64-.6-2.3-.54-1.05-1.42-1.8-2.56-2.17-.55-.18-1.15-.27-1.78-.27h-24.31c-.55,0-1.09.08-1.6.22-1.96.64-3.28,2.45-3.28,4.51Zm17.2,64.62v-17.16c0-7.15-6.1-11.09-17.18-11.09-10.4,0-16.81,4.93-16.81,9.66,0,2.62,2.13,4.75,4.75,4.75,1.14,0,2.18-.4,3-1.07.52-.39,1-.85,1.49-1.32,1.58-1.54,3.37-3.28,7.5-3.28,2.84,0,5.86.95,5.86,3.62,0,2.33-1.31,2.91-3.9,3.2l-6.23.7c-7.32.85-14.81,2.98-14.81,12.35,0,6.9,6.17,11.02,12.14,11.02,5.61,0,9.95-1.7,13.57-5.27.57,3.4,2.82,5.27,6.46,5.27,2.92,0,5.21-1.98,5.21-4.51,0-.69-.17-1.27-.36-1.94-.31-1.05-.69-2.36-.69-4.92Zm-10.81-3.36c0,3.78-3.43,7.42-9.04,7.42-3.5,0-5.68-1.89-5.68-4.2,0-3.08,2.31-4.41,6.58-5.04l3.71-.56c1.19-.21,3.29-.56,4.41-1.61v4ZM78.62,13.8c-4.32,0-8.04,1.5-10.81,4.33V5.76c-.06-3.18-2.69-5.76-5.86-5.76s-5.86,2.63-5.86,5.86v42.03c0,3.24,2.63,5.87,5.86,5.87s5.82-2.59,5.86-5.78v-16.96c0-4.51,3.65-7.31,7.03-7.31,4.96,0,5.69,3.96,5.69,6.33v17.96c.05,3.18,2.68,5.77,5.86,5.77,3.24,0,5.87-2.63,5.87-5.87v-19.89c0-8.89-5.1-14.2-13.64-14.2Zm12.28,44.78c-1.09-1.23-2.64-1.93-4.26-1.94-2.39,0-4.51,1.53-5.29,3.79,0,0-.19.69-.19.69l-.24,1.03s-3.85,17.09-4.45,19.78c-.15-.71-3.84-17.75-3.84-17.75-.16-.73-.38-1.67-.67-2.55l-.25-.73c-1.07-2.59-3.57-4.25-6.37-4.25s-5.12,1.57-6.25,4c-.19.5-.37,1.07-.54,1.73-.16.62-.29,1.24-.41,1.8,0,0-3.26,15.3-3.8,17.82-.16-.69-4.78-19.87-4.78-19.87l-.2-.81c-.13-.5-.24-.9-.37-1.26-.88-2.07-2.9-3.4-5.14-3.41-1.62,0-3.18.71-4.27,1.94-.79.92-1.26,2.04-1.35,3.24,0,0,0,.25,0,.25,0,.33.01.66.05.99.11,1.16.4,2.09.68,2.99l7.49,24.38.16.52.38,1.12c1.15,2.64,3.75,4.36,6.63,4.37h.05c2.99,0,5.64-1.81,6.74-4.6,0,0,.34-1.22.34-1.22,0,0,.06-.23.06-.23,0,0,4.26-16.97,4.41-17.58.16.62,4.47,17.8,4.47,17.8l.32,1.14c1.06,2.8,3.78,4.68,6.77,4.69h.06c2.82-.01,5.39-1.68,6.57-4.24.15-.41.31-.85.47-1.36l.13-.41,7.5-24.38c.28-.9.57-1.83.68-2.99.03-.33.05-.66.05-.99v-.25c-.09-1.21-.56-2.33-1.36-3.25Zm85.14-26.92c3.33,0,4.93-1.95,4.93-3.37,0-.64-.53-1.24-1.35-1.24-1.71,0-1.22,2.09-3.49,2.09-1.78,0-2.73-1.31-2.73-3.33,0-2.93,1.49-3.8,2.75-3.8,2.33,0,1.78,1.91,3.31,1.91.82,0,1.51-.47,1.51-1.4,0-1.51-2.02-3.04-4.73-3.04-3.97,0-6.08,2.6-6.08,6.33,0,3.4,1.89,5.86,5.88,5.86Zm70.19-2.26c-2.4,0-2.53-2-3.93-2-.91,0-1.31.64-1.31,1.35,0,1.6,2.44,2.91,5.37,2.91,2.44,0,5-1.22,5-3.86,0-2.26-2.2-3.04-4.04-3.46l-1.35-.31c-1-.22-1.73-.4-1.73-1.15,0-.69.73-1,1.86-1,2.04,0,2.09,1.49,3.35,1.49.84,0,1.35-.67,1.35-1.42,0-1.49-2.49-2.46-4.95-2.46-2.24,0-4.86.98-4.86,3.62,0,2.17,1.47,2.95,3.35,3.42l1.91.47c1.15.29,1.86.42,1.86,1.24,0,.67-.73,1.18-1.89,1.18Zm-125.22-8.3v8.95c0,.87.36,1.62,1.62,1.62s1.62-.75,1.62-1.62v-8.95c0-.87-.36-1.62-1.62-1.62s-1.62.75-1.62,1.62Zm1.62-2.71c.93,0,1.69-.75,1.69-1.69s-.75-1.69-1.69-1.69-1.69.75-1.69,1.69.75,1.69,1.69,1.69Zm111.04,13.27c1.95,0,5.08-.91,5.08-2.86,0-.6-.56-1.26-1.33-1.26-1.31,0-1.31,1.6-3.75,1.6-1.89,0-3-1.24-3-2.95h7.33c1.09,0,1.42-.29,1.42-1.4,0-2.66-2.13-5.3-5.86-5.3s-6.13,2.53-6.13,6.3c0,2.82,1.71,5.88,6.24,5.88Zm-.04-9.92c1.44,0,2.55,1.09,2.73,2.58h-5.68c.35-1.58,1.33-2.58,2.95-2.58Zm-23.43,2.64v5.66c0,.87.35,1.62,1.62,1.62s1.62-.75,1.62-1.62v-6.3c0-3.29-2.13-4.26-4.08-4.26-1.84,0-3.02.84-3.93,2.04h-.04v-.42c0-.98-.44-1.62-1.46-1.62s-1.46.64-1.46,1.62v8.95c0,.87.35,1.62,1.62,1.62s1.62-.75,1.62-1.62v-5.35c0-1.62,1.33-2.55,2.46-2.55,1.4,0,2.04.93,2.04,2.24Zm-5.25,12.91h-1.02c-1.13,0-1.66.44-2.04,1.66l-3.13,10.26h-.04l-3.17-10.26c-.38-1.22-.91-1.66-2.04-1.66h-1.06c-.98,0-1.98.33-1.98,1.8v12.99c0,.91.44,1.78,1.62,1.78s1.62-.87,1.62-1.78v-9.9h.04l3.4,10.61c.24.75.8,1.06,1.55,1.06s1.31-.31,1.55-1.06l3.4-10.61h.04v9.9c0,.91.44,1.78,1.62,1.78s1.62-.87,1.62-1.78v-12.99c0-1.46-1-1.8-1.97-1.8Zm21.25-9c0-.64-.53-1.24-1.35-1.24-1.71,0-1.22,2.09-3.48,2.09-1.78,0-2.73-1.31-2.73-3.33,0-2.93,1.49-3.8,2.75-3.8,2.33,0,1.78,1.91,3.31,1.91.82,0,1.51-.47,1.51-1.4,0-1.51-2.02-3.04-4.73-3.04-3.97,0-6.08,2.6-6.08,6.33,0,3.4,1.89,5.86,5.88,5.86,3.33,0,4.93-1.95,4.93-3.37Zm-5.61,16.71c0-2.33-2.15-3.33-5.26-3.33-3.33,0-5.15,1.64-5.15,2.93,0,.67.56,1.24,1.38,1.24,1.29,0,1.35-1.78,3.75-1.78,1.09,0,2.04.4,2.04,1.33s-.62,1.11-1.4,1.2l-1.98.22c-2.49.29-4.53,1.04-4.53,3.73,0,2.04,1.82,3.31,3.66,3.31,1.71,0,3.17-.49,4.44-1.89.04,1,.51,1.89,1.91,1.89.78,0,1.46-.51,1.46-1.24,0-.51-.33-.82-.33-2.17v-5.44Zm-3.24,4.37c0,1.2-1.09,2.35-2.86,2.35-1.11,0-1.8-.6-1.8-1.33,0-.98.73-1.4,2.09-1.6l1.18-.18c.38-.07,1.04-.18,1.4-.51v1.27Zm-17.64-20.57c0-.6-.56-1.26-1.33-1.26-1.31,0-1.31,1.6-3.75,1.6-1.89,0-3-1.24-3-2.95h7.32c1.09,0,1.42-.29,1.42-1.4,0-2.66-2.13-5.3-5.86-5.3s-6.13,2.53-6.13,6.3c0,2.82,1.71,5.88,6.24,5.88,1.95,0,5.08-.91,5.08-2.86Zm-5.13-7.06c1.44,0,2.55,1.09,2.73,2.58h-5.68c.35-1.58,1.33-2.58,2.95-2.58Zm35.71,19.93c-1.84,0-3.02.84-3.93,2.04h-.04v-.42c0-.98-.44-1.62-1.46-1.62s-1.47.64-1.47,1.62v8.94c0,.87.36,1.62,1.62,1.62s1.62-.75,1.62-1.62v-5.35c0-1.62,1.33-2.55,2.46-2.55,1.4,0,2.04.93,2.04,2.24v5.66c0,.87.35,1.62,1.62,1.62s1.62-.75,1.62-1.62v-6.3c0-3.29-2.13-4.26-4.08-4.26Zm-50.17,0c-.89,0-1.33.62-1.55,1.44l-1.98,7.35h-.04l-2.09-7.57c-.2-.73-.8-1.22-1.66-1.22s-1.58.67-1.58,1.55c0,.38.13.73.4,1.51l3.37,9.61c-.24,1-.71,1.02-1.13,1.02h-.33c-.87,0-1.49.44-1.49,1.31,0,.78.6,1.49,2.04,1.49,2.04,0,2.93-1.15,3.71-3.37l3.75-10.63c.16-.42.24-.75.24-1.02,0-.4-.38-1.46-1.66-1.46Zm4.39-26.65c-.93,0-1.69.75-1.69,1.69s.75,1.69,1.69,1.69,1.69-.75,1.69-1.69-.76-1.69-1.69-1.69Zm-15.42,29.07c.95,0,1.46-.29,1.46-1.06s-.51-1.07-1.46-1.07h-.98v-1.97c0-1.07-.64-1.62-1.62-1.62s-1.62.55-1.62,1.62v1.97h-.56c-.91,0-1.29.36-1.29,1.07s.38,1.06,1.29,1.06h.56v6.88c0,1.91.98,2.88,3.33,2.88,1.55,0,2.35-.51,2.35-1.44,0-.69-.42-1.09-1.13-1.09h-.47c-.58,0-.84-.27-.84-.75v-6.48h.98Zm15.42-24.61c-1.27,0-1.62.75-1.62,1.62v8.95c0,.87.35,1.62,1.62,1.62s1.62-.75,1.62-1.62v-8.95c0-.87-.36-1.62-1.62-1.62Zm-15.97,7.24c0-1.87-.84-3.84-4.17-4.59l-3.04-.69c-1.16-.27-2.49-.62-2.49-1.73s.93-1.89,2.62-1.89c3.4,0,3.08,2.38,4.77,2.38.89,0,1.66-.53,1.66-1.44,0-2.13-3.35-3.73-6.19-3.73-3.08,0-6.37,1.33-6.37,4.88,0,1.71.6,3.53,3.91,4.37l4.11,1.04c1.24.31,1.55,1.02,1.55,1.66,0,1.07-1.04,2.11-2.93,2.11-3.68,0-3.18-2.89-5.15-2.89-.89,0-1.53.62-1.53,1.51,0,1.73,2.06,4.04,6.68,4.04s6.57-2.15,6.57-5.04Zm123.04,14.95c-1.75,0-2.91.78-3.82,2.04-.6-1.53-2-2.04-3.11-2.04-1.64,0-3.06.75-3.91,2.04h-.04v-.42c0-.98-.58-1.62-1.53-1.62s-1.53.64-1.53,1.62v8.94c0,.87.35,1.62,1.62,1.62s1.62-.75,1.62-1.62v-5.39c0-1.51,1.11-2.51,2.35-2.51s1.78.93,1.78,2.09v5.82c0,.87.36,1.62,1.62,1.62s1.62-.75,1.62-1.62v-5.39c0-1.51,1.11-2.51,2.35-2.51s1.78.93,1.78,2.09v5.82c0,.87.36,1.62,1.62,1.62s1.62-.75,1.62-1.62v-6.64c0-2.91-1.8-3.93-4.04-3.93Zm-43.87,3.33c0-2.33-2.15-3.33-5.26-3.33-3.33,0-5.15,1.64-5.15,2.93,0,.67.56,1.24,1.38,1.24,1.29,0,1.35-1.78,3.75-1.78,1.09,0,2.04.4,2.04,1.33s-.62,1.11-1.4,1.2l-1.98.22c-2.49.29-4.53,1.04-4.53,3.73,0,2.04,1.82,3.31,3.66,3.31,1.71,0,3.17-.49,4.44-1.89.04,1,.51,1.89,1.91,1.89.78,0,1.46-.51,1.46-1.24,0-.51-.33-.82-.33-2.17v-5.44Zm-3.24,4.37c0,1.2-1.09,2.35-2.86,2.35-1.11,0-1.8-.6-1.8-1.33,0-.98.73-1.4,2.09-1.6l1.18-.18c.38-.07,1.04-.18,1.4-.51v1.27Zm53.85-19.24v-13.41c0-1.07-.64-1.62-1.62-1.62s-1.62.55-1.62,1.62v4.39h-.04c-.64-1.04-1.75-1.64-3.2-1.64-3.42,0-4.99,2.91-4.99,6.01,0,4.2,2.37,6.17,5.08,6.17,1.58,0,2.89-.67,3.42-2.04h.04v.51c0,1,.51,1.53,1.46,1.53,1,0,1.47-.53,1.47-1.53Zm-5.66-1c-1.73-.04-2.57-1.62-2.57-3.53,0-1.51.51-3.6,2.57-3.6,1.98-.02,2.6,1.93,2.6,3.6,0,1.84-.71,3.53-2.6,3.53Zm38.06,22.19h-.47c-.58,0-.84-.27-.84-.75v-6.48h.98c.96,0,1.47-.29,1.47-1.06s-.51-1.07-1.47-1.07h-.98v-1.97c0-1.07-.64-1.62-1.62-1.62s-1.62.55-1.62,1.62v1.97h-.55c-.91,0-1.29.36-1.29,1.07s.38,1.06,1.29,1.06h.55v6.88c0,1.91.98,2.88,3.33,2.88,1.55,0,2.35-.51,2.35-1.44,0-.69-.42-1.09-1.13-1.09Zm-12.05-9.66c-1.84,0-3.02.84-3.93,2.04h-.04v-.42c0-.98-.44-1.62-1.46-1.62s-1.46.64-1.46,1.62v8.94c0,.87.36,1.62,1.62,1.62s1.62-.75,1.62-1.62v-5.35c0-1.62,1.33-2.55,2.46-2.55,1.4,0,2.04.93,2.04,2.24v5.66c0,.87.35,1.62,1.62,1.62s1.62-.75,1.62-1.62v-6.3c0-3.29-2.13-4.26-4.08-4.26Zm-14.85,0c-3.84,0-6.13,2.53-6.13,6.3,0,2.82,1.71,5.88,6.24,5.88,1.95,0,5.08-.91,5.08-2.86,0-.6-.56-1.26-1.33-1.26-1.31,0-1.31,1.6-3.75,1.6-1.89,0-3-1.24-3-2.95h7.32c1.09,0,1.42-.29,1.42-1.4,0-2.66-2.13-5.31-5.86-5.31Zm-2.88,4.84c.35-1.58,1.33-2.58,2.95-2.58,1.44,0,2.55,1.09,2.73,2.58h-5.68Zm-31.09-14.84c.78,0,1.46-.51,1.46-1.24,0-.51-.33-.82-.33-2.17v-5.44c0-2.33-2.15-3.33-5.26-3.33-3.33,0-5.15,1.64-5.15,2.93,0,.66.56,1.24,1.38,1.24,1.29,0,1.35-1.78,3.75-1.78,1.09,0,2.04.4,2.04,1.33s-.62,1.11-1.4,1.2l-1.98.22c-2.49.29-4.53,1.04-4.53,3.73,0,2.04,1.82,3.31,3.66,3.31,1.71,0,3.17-.49,4.44-1.89.04,1,.51,1.89,1.91,1.89Zm-2.11-4.48c0,1.2-1.09,2.35-2.86,2.35-1.11,0-1.8-.6-1.8-1.33,0-.98.73-1.4,2.09-1.6l1.18-.18c.38-.07,1.04-.18,1.4-.51v1.27Zm11.74-5.04c1.4,0,2.04.93,2.04,2.24v5.66c0,.87.35,1.62,1.62,1.62s1.62-.75,1.62-1.62v-6.3c0-3.29-2.13-4.26-4.08-4.26-1.84,0-3.02.84-3.93,2.04h-.04v-.42c0-.98-.44-1.62-1.46-1.62s-1.46.64-1.46,1.62v8.95c0,.87.36,1.62,1.62,1.62s1.62-.75,1.62-1.62v-5.35c0-1.62,1.33-2.55,2.46-2.55Zm-19.46,19.53c-.95,0-1.46.53-1.46,1.53v.4h-.04c-.6-1.2-1.84-1.93-3.42-1.93-2.73,0-5.08,1.98-5.08,6.17,0,3.2,1.78,5.42,5.19,5.42,1.29,0,2.55-.71,3.13-1.55h.04v.67c0,2.55-.8,3.55-2.78,3.55-1.82,0-2.09-1.66-3.44-1.66-.71,0-1.33.58-1.33,1.38,0,1.58,2.42,2.69,4.88,2.69,3.37,0,5.77-1.8,5.77-5.71v-9.41c0-1-.47-1.53-1.47-1.53Zm-4.2,9.19c-1.84,0-2.57-1.64-2.57-3.13,0-2,.64-3.53,2.73-3.53,1.51,0,2.4,1.04,2.4,3.4s-1.11,3.26-2.55,3.26Zm13.87-9.19c-3.84,0-6.13,2.53-6.13,6.3,0,2.82,1.71,5.88,6.24,5.88,1.95,0,5.08-.91,5.08-2.86,0-.6-.55-1.26-1.33-1.26-1.31,0-1.31,1.6-3.75,1.6-1.89,0-3-1.24-3-2.95h7.32c1.09,0,1.42-.29,1.42-1.4,0-2.66-2.13-5.31-5.86-5.31Zm-2.88,4.84c.35-1.58,1.33-2.58,2.95-2.58,1.44,0,2.55,1.09,2.73,2.58h-5.68Zm-156.99-15.13h7.59c1.04,0,1.89-.53,1.89-1.53s-.84-1.53-1.89-1.53h-6.08v-11.39c0-1.09-.71-1.82-1.82-1.82s-1.82.73-1.82,1.82v12.32c0,1.62.84,2.13,2.13,2.13Zm49.84,5.83c-.93,0-1.69.75-1.69,1.69s.75,1.69,1.69,1.69,1.69-.75,1.69-1.69-.75-1.69-1.69-1.69Zm-41.74,3.31c1.07,0,1.84-.31,1.84-1.46s-.78-1.46-1.84-1.46h-8.01c-1.29,0-2.13.51-2.13,2.13v12.32c0,1.09.71,1.82,1.82,1.82s1.82-.73,1.82-1.82v-4.99h5.5c.96,0,1.71-.27,1.71-1.4s-.75-1.4-1.71-1.4h-5.5v-3.73h6.5Zm29.4-3.31c-.93,0-1.69.75-1.69,1.69s.75,1.69,1.69,1.69,1.69-.75,1.69-1.69-.76-1.69-1.69-1.69Zm0,4.46c-1.27,0-1.62.75-1.62,1.62v8.94c0,.87.35,1.62,1.62,1.62s1.62-.75,1.62-1.62v-8.94c0-.87-.36-1.62-1.62-1.62Zm12.34,0c-1.27,0-1.62.75-1.62,1.62v8.94c0,.87.35,1.62,1.62,1.62s1.62-.75,1.62-1.62v-8.94c0-.87-.36-1.62-1.62-1.62Zm-6.17-4.37c-.98,0-1.62.56-1.62,1.62v13.32c0,1.07.64,1.62,1.62,1.62s1.62-.55,1.62-1.62v-13.32c0-1.06-.64-1.62-1.62-1.62Zm-19.75-16.46c0-.78-.51-1.07-1.46-1.07h-1v-1.4c0-.44.25-.75.71-.75.24,0,.47.07.71.07.58,0,1.04-.51,1.04-1.11,0-1.09-.95-1.55-2.13-1.55-1.89,0-3.57,1.09-3.57,3.13v1.62h-.73c-.91,0-1.29.36-1.29,1.07s.38,1.07,1.29,1.07h.73v8.15c0,1.07.64,1.62,1.62,1.62s1.62-.55,1.62-1.62v-8.15h1c.95,0,1.46-.29,1.46-1.07Zm10.99,6.7c-1.31,0-1.31,1.6-3.75,1.6-1.89,0-3-1.24-3-2.95h7.32c1.09,0,1.42-.29,1.42-1.4,0-2.66-2.13-5.3-5.86-5.3s-6.13,2.53-6.13,6.3c0,2.82,1.71,5.88,6.24,5.88,1.95,0,5.08-.91,5.08-2.86,0-.6-.56-1.26-1.33-1.26Zm-3.8-5.79c1.44,0,2.55,1.09,2.73,2.58h-5.68c.35-1.58,1.33-2.58,2.95-2.58Zm-10.12,23.25c0-2.33-2.15-3.33-5.26-3.33-3.33,0-5.15,1.64-5.15,2.93,0,.67.55,1.24,1.37,1.24,1.29,0,1.35-1.78,3.75-1.78,1.09,0,2.04.4,2.04,1.33s-.62,1.11-1.4,1.2l-1.98.22c-2.49.29-4.53,1.04-4.53,3.73,0,2.04,1.82,3.31,3.66,3.31,1.71,0,3.17-.49,4.44-1.89.04,1,.51,1.89,1.91,1.89.78,0,1.46-.51,1.46-1.24,0-.51-.33-.82-.33-2.17v-5.44Zm-3.24,4.37c0,1.2-1.09,2.35-2.86,2.35-1.11,0-1.8-.6-1.8-1.33,0-.98.73-1.4,2.09-1.6l1.18-.18c.38-.07,1.04-.18,1.4-.51v1.27Zm11.4-5.17c2.33,0,1.78,1.91,3.31,1.91.82,0,1.51-.47,1.51-1.4,0-1.51-2.02-3.04-4.73-3.04-3.97,0-6.08,2.6-6.08,6.33,0,3.4,1.89,5.86,5.88,5.86,3.33,0,4.93-1.95,4.93-3.37,0-.64-.53-1.24-1.35-1.24-1.71,0-1.22,2.09-3.49,2.09-1.78,0-2.73-1.31-2.73-3.33,0-2.93,1.49-3.8,2.75-3.8Z" style="fill:#0064a7;"/></svg>