<?xml version="1.0" encoding="UTF-8"?><svg id="Laag_1" xmlns="http://www.w3.org/2000/svg" viewBox="0 0 793.7 510.24"><rect width="793.7" height="510.24" style="fill:#ffed00;"/><path d="m532.25,265.33h3.25l24.89-36.64v53.53h5.63v-71.53l-32.15,47.4-32.15-47.4v71.53h5.63v-53.53l24.89,36.64Zm35.15-65.53h4v82.41h5.63v-87.54h-12.51l-30.65,45.15-30.64-45.15h-12.51v87.54h5.63v-82.41h4l33.52,49.65,33.52-49.65Zm-160.1-5.13v52.02c0,8.13,1.88,13.76,6.25,18.51,4.75,5.25,12.26,8.38,19.89,8.38s15.14-3.13,19.89-8.38c4.38-4.75,6.26-10.38,6.26-18.51v-52.02h-5.75v52.15c0,7.5-1.75,11.76-4.75,15.01-3.75,4.13-9.38,6.63-15.64,6.63s-11.88-2.5-15.64-6.63c-3-3.25-4.75-7.5-4.75-15.01v-52.15h-5.75Zm57.66,0v51.02c0,9.75-2.25,16.76-6.75,21.88-6,7-14.76,10.76-24.77,10.76s-18.76-3.75-24.77-10.76c-4.5-5.13-6.75-12.13-6.75-21.88v-51.02h-5.75v50.9c0,11.38,2.88,19.38,8.13,25.39,6.88,7.88,17.51,12.51,29.14,12.51s22.26-4.63,29.14-12.51c5.25-6,8.13-14.01,8.13-25.39v-50.9h-5.75Zm-126.58,38.27h33.9v-5.13h-28.14v-18.13h35.65v-5.13h-41.4v28.39Zm5.75,9.88h28.14v-5.13h-33.9v34.64h42.65v-5.13h-36.9v-24.39Zm-16.89,39.39h53.79v-5.13h-48.03v-77.29h46.78v-5.13h-52.54v87.54Zm-66.67-63.78c0-11.76,9.38-19.89,23.14-19.89,8.01,0,15.26,2.5,22.39,7.75l2.88-4.13c-7.38-5.75-16.26-8.75-25.27-8.75-15.38,0-28.89,9.13-28.89,25.01,0,9.75,5.38,16.26,12.13,20.26,11.63,6.88,27.89,8,27.89,18.38,0,7.63-6.75,11.38-13.51,11.38-8.01,0-15.64-3.63-21.14-8.63l-3.38,3.75c6.88,6.25,15.89,10.01,24.52,10.01,11.01,0,19.26-6.88,19.26-16.51,0-22.26-40.03-14.13-40.03-38.64m5.38-.62c0,21.14,40.03,12.88,40.03,39.14,0,12.38-10.01,21.39-24.39,21.39-10.63,0-19.26-3.63-27.77-11.51l-3.38,3.75c8.76,8.63,19.01,12.88,31.15,12.88,17.26,0,30.14-11.01,30.14-26.51,0-11.01-5.75-17.63-12.88-21.76-11.76-6.88-27.14-8.5-27.14-17.38,0-4.88,4.25-9.38,12.51-9.38,6.13,0,11.63,2.5,16.26,5.75l2.88-4.13c-5.63-4.38-12.51-6.75-19.14-6.75-10.51,0-18.26,6-18.26,14.51m-91.81-23.14v52.02c0,8.13,1.88,13.76,6.25,18.51,4.75,5.25,12.26,8.38,19.89,8.38s15.14-3.13,19.89-8.38c4.38-4.75,6.25-10.38,6.25-18.51v-52.02h-5.75v52.15c0,7.5-1.75,11.76-4.75,15.01-3.75,4.13-9.38,6.63-15.64,6.63s-11.88-2.5-15.63-6.63c-3-3.25-4.75-7.5-4.75-15.01v-52.15h-5.75Zm57.66,0v51.02c0,9.75-2.25,16.76-6.76,21.88-6,7-14.76,10.76-24.77,10.76s-18.76-3.75-24.77-10.76c-4.5-5.13-6.76-12.13-6.76-21.88v-51.02h-5.75v50.9c0,11.38,2.88,19.38,8.13,25.39,6.88,7.88,17.51,12.51,29.14,12.51s22.26-4.63,29.14-12.51c5.25-6,8.13-14.01,8.13-25.39v-50.9h-5.75Zm-133.59,70.66h3.25l24.89-36.64v53.53h5.63v-71.53l-32.15,47.4-32.15-47.4v71.53h5.63v-53.53l24.89,36.64Zm35.15-65.53h4v82.41h5.63v-87.54h-12.51l-30.64,45.15-30.64-45.15h-12.51v87.54h5.63v-82.41h4l33.52,49.65,33.52-49.65Z" style="fill:#1d1d1b;"/><path d="m679.22,57.94h-6.38l25.77,41.27,25.89-41.27h-6.25l-19.51,31.14-19.51-31.14Zm57.79,0h-6.38l-29.39,46.77v40.77h5.75v-39.77l30.02-47.77Zm-70.42,0h-6.5l30.02,47.9v39.64h5.75v-40.77l-29.27-46.77Zm-55.54,34.27v-19.38h13.88c5.63,0,8.38,1.25,10.13,3.38,1.38,1.75,2.25,3.88,2.25,6.25s-.88,4.63-2.25,6.38c-1.75,2.13-4.5,3.38-10.13,3.38h-13.88Zm-5.75,9.5v43.77h5.75v-38.77h6.38l29.02,38.77h6.75l-32.77-43.77h-15.13Zm0-4.5h19.64c6.75,0,12.13-1.75,14.88-5.5,2.13-2.88,3.25-6,3.25-9.25,0-3.5-1.25-6.63-3.5-9.51-2.88-3.75-8.01-5.25-14.63-5.25h-19.64v29.51Zm21.76,4.5l32.77,43.77h6.88l-29.9-39.89c4.25-1.38,8.26-3.63,11.38-7.13,3.5-4,6-9.38,6-16.38,0-5.38-1.75-10.38-4.75-14.38-4.38-5.88-11.38-9.76-21.89-9.76h-33.4v87.54h5.75V63.07h27.64c8.01,0,13.26,2.38,17.26,7.75,2.38,3.13,3.63,7.13,3.63,11.26,0,5.13-1.63,9.63-4.63,13.13-3.75,4.25-9.01,6.5-15.26,6.5h-1.5Zm-91.68-5.5h33.9v-5.13h-28.14v-18.13h35.65v-5.13h-41.4v28.39Zm5.75,9.88h28.14v-5.13h-33.9v34.64h42.65v-5.13h-36.9v-24.39Zm-16.89,39.39h53.78v-5.13h-48.03V63.07h46.78v-5.13h-52.53v87.54Zm-52.16-28.26l-23.39-59.28h-5.88l29.27,74.41,29.14-74.41h-5.88l-23.27,59.28Zm40.4-59.28h-5.88l-32.27,82.41h-4.88l-32.4-82.41h-5.88l34.4,87.54h12.51l34.4-87.54Zm-128.21,73.79c-16.14,0-27.64-13.51-27.64-30.01s11.51-30.01,27.64-30.01,27.64,13.51,27.64,30.01-11.51,30.01-27.64,30.01m0,5.13c18.89,0,33.4-15.26,33.4-35.14s-14.51-35.14-33.4-35.14-33.4,15.26-33.4,35.14,14.51,35.14,33.4,35.14m0,4.75c-22.26,0-38.78-17.01-38.78-39.89s16.51-39.9,38.78-39.9,38.78,17.01,38.78,39.9-16.51,39.89-38.78,39.89m0,5.13c25.14,0,44.53-19.01,44.53-45.02s-19.39-45.02-44.53-45.02-44.53,19.01-44.53,45.02,19.39,45.02,44.53,45.02m-62.79-64.78l3.5-3.5c-8-7.75-16.76-11.88-26.77-11.88-19.89,0-34.77,14.88-34.77,35.14s14.63,35.14,34.9,35.14c11.38,0,20.39-4.5,28.64-13.88l-3.75-3.25c-7.51,8-14.51,12.01-24.89,12.01-18.01,0-29.14-13.51-29.14-30.01s11.51-30.01,29.02-30.01c9.76,0,17.64,4.5,23.27,10.26m6.75-6.75l3.5-3.5c-7.88-8.63-19.76-15.01-33.65-15.01-26.39,0-45.78,19.01-45.78,45.02s19.01,45.02,46.03,45.02c15.14,0,27.89-7,35.9-17.38l-3.75-3.25c-8.38,9.88-19.51,15.51-32.15,15.51-23.64,0-40.28-16.51-40.28-39.89s16.76-39.9,40.03-39.9c11.13,0,22.26,4.88,30.14,13.38m-137.34,6.5c0-11.76,9.38-19.89,23.14-19.89,8,0,15.26,2.5,22.39,7.75l2.88-4.13c-7.38-5.75-16.26-8.75-25.27-8.75-15.39,0-28.89,9.13-28.89,25.01,0,9.75,5.38,16.26,12.13,20.26,11.63,6.88,27.89,8,27.89,18.38,0,7.63-6.75,11.38-13.51,11.38-8.01,0-15.64-3.63-21.14-8.63l-3.38,3.75c6.88,6.25,15.89,10.01,24.52,10.01,11.01,0,19.26-6.88,19.26-16.51,0-22.26-40.03-14.13-40.03-38.64m5.38-.62c0,21.13,40.03,12.88,40.03,39.14,0,12.38-10.01,21.39-24.39,21.39-10.63,0-19.26-3.63-27.77-11.51l-3.38,3.75c8.76,8.63,19.01,12.88,31.15,12.88,17.26,0,30.14-11.01,30.14-26.51,0-11.01-5.75-17.63-12.88-21.76-11.76-6.88-27.14-8.5-27.14-17.38,0-4.88,4.25-9.38,12.51-9.38,6.13,0,11.63,2.5,16.26,5.75l2.88-4.13c-5.63-4.38-12.51-6.75-19.14-6.75-10.51,0-18.26,6-18.26,14.51m-35.15,64.41h5.75V57.94h-5.75v87.54Zm-11.13,0h5.75V57.94h-5.75v87.54Zm-39.02-62.78c4,5,6.38,11.76,6.38,19.01s-2.38,14.01-6.38,19.01c-4.88,6.13-12.01,9.76-22.39,9.76h-15.01v-57.53h15.01c10.38,0,17.51,3.63,22.39,9.76m4.5-3.25c-6.13-7.75-15.39-11.63-26.89-11.63h-20.76v67.78h20.76c11.51,0,20.76-3.88,26.89-11.63,4.88-6.13,7.63-14.01,7.63-22.26s-2.75-16.13-7.63-22.26m-28.77-16.38c11.88,0,19.89,2.25,26.77,7.38,9.38,7,15.01,18.63,15.01,31.26s-5.63,24.26-15.01,31.26c-6.88,5.13-14.88,7.38-26.77,7.38h-24.27V63.07h24.27Zm0-5.13h-30.02v87.54h30.02c13.88,0,23.01-3,30.14-8.25,10.76-8,17.39-21.01,17.39-35.52s-6.63-27.51-17.39-35.52c-7.13-5.25-16.26-8.25-30.14-8.25" style="fill:#1d1d1b;"/><path d="m729.13,449.6c0,2.2,1.75,3.94,3.94,3.94s3.94-1.75,3.94-3.94-1.75-3.94-3.94-3.94-3.94,1.75-3.94,3.94m2.14-9.01h3.66l.84-14.07v-12.95h-5.35v12.95l.84,14.07Zm-31.48-14.07h-5.18v26.46h5.35v-18.18c1.58-1.91,4.11-3.77,7.6-3.77,2.2,0,4.22,1.01,5.46,2.59.96,1.18,1.58,2.76,1.58,6.14v13.23h5.35v-12.95c0-4.56-.9-7.26-2.59-9.4-2.25-2.87-5.74-4.67-9.63-4.67s-6.53,1.75-7.94,3.1v-2.53Zm-25.85,4.11c3.15,0,6.19,2.36,6.98,5.74h-14.41c.9-3.43,4-5.74,7.43-5.74m12.5,10.25c.06-.51.06-.9.06-1.13,0-7.83-5.35-13.79-12.72-13.79s-12.89,5.85-12.89,13.79,5.97,13.79,13.68,13.79c5.41,0,9.18-2.42,11.15-4.95l-3.49-3.32c-1.52,1.69-3.66,3.6-7.6,3.6-4.62,0-8.27-3.55-8.56-7.99h20.38Zm-42.66-2.42l13.23-11.93h-7.54l-11.03,10.13v-23.64h-5.35v39.97h5.35v-12.95l13.12,12.95h7.15l-14.92-14.52Zm-32,0l13.23-11.93h-7.54l-11.03,10.13v-23.64h-5.35v39.97h5.35v-12.95l13.12,12.95h7.15l-14.92-14.52Zm-31.37-7.82c3.15,0,6.19,2.36,6.98,5.74h-14.41c.9-3.43,4-5.74,7.43-5.74m12.5,10.25c.06-.51.06-.9.06-1.13,0-7.83-5.35-13.79-12.72-13.79s-12.89,5.85-12.89,13.79,5.97,13.79,13.68,13.79c5.4,0,9.18-2.42,11.15-4.95l-3.49-3.32c-1.52,1.69-3.66,3.6-7.6,3.6-4.62,0-8.27-3.55-8.56-7.99h20.38Zm-39.03,3.83c-1.8,2.42-4.56,3.77-7.26,3.77-5.12,0-8.78-4-8.78-8.72s3.38-8.73,8.5-8.73c3.21,0,5.91,1.63,7.54,3.77v9.91Zm.17,8.27h5.18v-39.97h-5.35v15.82c-2.37-1.97-5.24-2.87-8.11-2.87-2.48,0-4.67.62-6.47,1.69-4,2.36-6.81,6.81-6.81,12.1s2.76,9.68,6.75,12.05c1.8,1.07,4.28,1.75,6.64,1.75,3.15,0,6.02-1.07,8.16-2.98v2.42Zm-27.75-4.84c-.79.22-2.14.34-2.93.34-1.41,0-2.93-.51-3.66-1.41-.67-.79-.79-1.97-.79-3.38v-12.38h8.44v-4.78h-8.44v-7.32h-5.35v7.32h-6.75v4.78h6.75v12.1c0,2.87.56,5.29,2.14,7.04,1.69,1.91,4.17,3.1,7.49,3.1,1.52,0,3.15-.22,4.17-.56l-1.07-4.84Zm-44.95-21.62h-5.18v26.46h5.35v-18.18c1.58-1.91,4.11-3.77,7.6-3.77,2.2,0,4.22,1.01,5.46,2.59.96,1.18,1.58,2.76,1.58,6.14v13.23h5.35v-12.95c0-4.56-.9-7.26-2.59-9.4-2.25-2.87-5.74-4.67-9.63-4.67s-6.53,1.75-7.94,3.1v-2.53Zm-35.31,13.23c0-4.84,3.43-8.73,8.33-8.73s8.33,3.88,8.33,8.73-3.43,8.72-8.33,8.72-8.33-3.88-8.33-8.72m-5.35,0c0,7.88,5.85,13.79,13.68,13.79s13.68-5.91,13.68-13.79-5.85-13.79-13.68-13.79-13.68,5.91-13.68,13.79m-36.2-9.12c3.15,0,6.19,2.36,6.98,5.74h-14.41c.9-3.43,4-5.74,7.43-5.74m12.5,10.25c.06-.51.06-.9.06-1.13,0-7.83-5.35-13.79-12.72-13.79s-12.89,5.85-12.89,13.79,5.97,13.79,13.68,13.79c5.4,0,9.18-2.42,11.15-4.95l-3.49-3.32c-1.52,1.69-3.66,3.6-7.6,3.6-4.62,0-8.27-3.55-8.56-7.99h20.38Zm-31.87,7.26c-.79.22-2.14.34-2.93.34-1.41,0-2.93-.51-3.66-1.41-.68-.79-.79-1.97-.79-3.38v-12.38h8.44v-4.78h-8.44v-7.32h-5.35v7.32h-6.76v4.78h6.76v12.1c0,2.87.56,5.29,2.14,7.04,1.69,1.91,4.17,3.1,7.49,3.1,1.52,0,3.15-.22,4.17-.56l-1.07-4.84Zm-48.75-3.43c-1.8,2.42-4.56,3.77-7.26,3.77-5.12,0-8.78-4-8.78-8.72s3.38-8.73,8.5-8.73c3.21,0,5.91,1.63,7.54,3.77v9.91Zm.17,8.27h5.18v-39.97h-5.35v15.82c-2.36-1.97-5.24-2.87-8.11-2.87-2.48,0-4.67.62-6.47,1.69-4,2.36-6.81,6.81-6.81,12.1s2.76,9.68,6.76,12.05c1.8,1.07,4.28,1.75,6.64,1.75,3.15,0,6.02-1.07,8.16-2.98v2.42Zm-35.04,0h5.35v-39.97h-5.35v39.97Zm-20.65-22.35c3.15,0,6.19,2.36,6.98,5.74h-14.41c.9-3.43,4-5.74,7.43-5.74m12.5,10.25c.06-.51.06-.9.06-1.13,0-7.83-5.35-13.79-12.72-13.79s-12.89,5.85-12.89,13.79,5.97,13.79,13.68,13.79c5.4,0,9.18-2.42,11.15-4.95l-3.49-3.32c-1.52,1.69-3.66,3.6-7.6,3.6-4.62,0-8.28-3.55-8.56-7.99h20.38Zm-30.08-14.75c-.62-.11-1.52-.17-2.08-.17-3.88,0-6.64,1.8-7.94,3.6v-3.04h-5.18v26.46h5.35v-17.51c1.46-2.53,4.39-4.45,7.15-4.45.84,0,1.46.06,2.08.22l.62-5.12Zm-35.88,4.5c3.15,0,6.19,2.36,6.98,5.74h-14.41c.9-3.43,4-5.74,7.43-5.74m12.5,10.25c.06-.51.06-.9.06-1.13,0-7.83-5.35-13.79-12.72-13.79s-12.89,5.85-12.89,13.79,5.97,13.79,13.68,13.79c5.4,0,9.18-2.42,11.15-4.95l-3.49-3.32c-1.52,1.69-3.66,3.6-7.6,3.6-4.62,0-8.27-3.55-8.56-7.99h20.38Zm-52.76-14.35l-7.26,18.07-7.26-18.07h-5.52l10.75,26.46h3.72l7.43-18.58,7.43,18.58h3.72l10.75-26.46h-5.52l-7.26,18.07-7.26-18.07h-3.72Zm-63.55,0h-5.18v26.46h5.35v-18.18c1.58-1.91,4.11-3.77,7.6-3.77,2.2,0,4.22,1.01,5.46,2.59.96,1.18,1.58,2.76,1.58,6.14v13.23h5.35v-12.95c0-4.56-.9-7.26-2.59-9.4-2.25-2.87-5.74-4.67-9.63-4.67s-6.53,1.75-7.94,3.1v-2.53Zm-25.85,4.11c3.15,0,6.19,2.36,6.98,5.74h-14.41c.9-3.43,4-5.74,7.43-5.74m12.5,10.25c.06-.51.06-.9.06-1.13,0-7.83-5.35-13.79-12.72-13.79s-12.89,5.85-12.89,13.79,5.97,13.79,13.68,13.79c5.4,0,9.18-2.42,11.15-4.95l-3.49-3.32c-1.52,1.69-3.66,3.6-7.6,3.6-4.62,0-8.27-3.55-8.56-7.99h20.38Zm-47.89-11.82v-10.13h16.89v-5.35h-22.52v39.4h23.08v-5.35h-17.45v-13.23h12.95v-5.35h-12.95Z" style="fill:#1d1d1b;"/></svg>