<?xml version="1.0" encoding="UTF-8"?><svg id="Layer_1" xmlns="http://www.w3.org/2000/svg" viewBox="0 0 988.8 220.35"><rect x="9.98" y="10.03" width="294.95" height="200.28" style="fill:#fff;"/><rect x="15.65" y="15.53" width="283.6" height="189.07" style="fill:#039;"/><polyline points="151.41 56.72 157.39 52.36 163.38 56.72 161.1 49.66 167.18 45.29 159.68 45.29 157.39 38.14 155.1 45.3 147.61 45.29 153.68 49.66 151.41 56.72" style="fill:#fc0;"/><polyline points="120.44 65.04 126.42 60.68 132.4 65.04 130.13 57.98 136.2 53.61 128.71 53.61 126.42 46.46 124.13 53.62 116.64 53.61 122.71 57.98 120.44 65.04" style="fill:#fc0;"/><polyline points="103.76 69.17 101.47 76.33 93.98 76.32 100.05 80.69 97.78 87.75 103.76 83.39 109.75 87.75 107.47 80.69 113.54 76.32 106.05 76.32 103.76 69.17" style="fill:#fc0;"/><polyline points="95.45 114.32 101.43 118.68 99.16 111.62 105.23 107.25 97.74 107.25 95.45 100.1 93.16 107.27 85.66 107.25 91.74 111.62 89.47 118.68 95.45 114.32" style="fill:#fc0;"/><polyline points="106.05 138.28 103.76 131.12 101.47 138.28 93.98 138.28 100.05 142.64 97.78 149.71 103.76 145.33 109.75 149.71 107.47 142.64 113.54 138.28 106.05 138.28" style="fill:#fc0;"/><polyline points="128.76 160.98 126.46 153.83 124.18 160.99 116.68 160.98 122.76 165.35 120.48 172.41 126.47 168.04 132.45 172.41 130.18 165.35 136.25 160.98 128.76 160.98" style="fill:#fc0;"/><polyline points="159.69 169.21 157.39 162.05 155.11 169.21 147.61 169.21 153.69 173.57 151.41 180.64 157.4 176.27 163.38 180.64 161.1 173.57 167.18 169.21 159.69 169.21" style="fill:#fc0;"/><polyline points="190.62 160.98 188.33 153.83 186.03 160.99 178.55 160.98 184.62 165.35 182.34 172.41 188.33 168.04 194.31 172.41 192.03 165.35 198.11 160.98 190.62 160.98" style="fill:#fc0;"/><polyline points="213.33 138.28 211.03 131.12 208.73 138.28 201.25 138.28 207.33 142.64 205.05 149.71 211.03 145.33 217.02 149.71 214.73 142.64 220.81 138.28 213.33 138.28" style="fill:#fc0;"/><polyline points="229.04 107.17 221.55 107.17 219.25 100.01 216.96 107.18 209.47 107.17 215.55 111.53 213.27 118.6 219.25 114.22 225.23 118.6 222.96 111.53 229.04 107.17" style="fill:#fc0;"/><polyline points="205.05 87.66 211.03 83.29 217.02 87.66 214.73 80.6 220.81 76.24 213.33 76.24 211.03 69.08 208.73 76.25 201.25 76.24 207.33 80.6 205.05 87.66" style="fill:#fc0;"/><polyline points="188.41 46.46 186.13 53.63 178.63 53.61 184.7 57.99 182.43 65.05 188.42 60.68 194.4 65.05 192.13 57.99 198.2 53.61 190.7 53.61 188.41 46.46" style="fill:#fc0;"/><path d="m369.98,69.59l9.11,2.89c-1.4,5.08-3.72,8.85-6.97,11.31-3.25,2.47-7.37,3.7-12.36,3.7-6.18,0-11.26-2.11-15.23-6.33-3.98-4.22-5.97-9.99-5.97-17.31,0-7.74,2-13.76,6-18.04,4-4.29,9.26-6.43,15.77-6.43,5.69,0,10.31,1.68,13.87,5.05,2.12,1.99,3.7,4.85,4.76,8.57l-9.3,2.22c-.55-2.41-1.7-4.32-3.44-5.71-1.75-1.4-3.87-2.09-6.36-2.09-3.45,0-6.25,1.24-8.39,3.71-2.15,2.47-3.22,6.49-3.22,12.03,0,5.88,1.06,10.07,3.17,12.57,2.12,2.5,4.87,3.75,8.25,3.75,2.5,0,4.64-.79,6.44-2.38,1.8-1.59,3.09-4.08,3.87-7.49Z" style="fill:#039;"/><path d="m385.03,69.37c0-2.96.73-5.83,2.19-8.6,1.46-2.77,3.53-4.89,6.2-6.35,2.68-1.46,5.67-2.19,8.97-2.19,5.1,0,9.28,1.66,12.54,4.97,3.26,3.31,4.89,7.5,4.89,12.55s-1.65,9.33-4.94,12.68-7.43,5.03-12.42,5.03c-3.09,0-6.04-.7-8.84-2.09s-4.94-3.44-6.39-6.14c-1.46-2.7-2.19-5.98-2.19-9.85Zm9.14.48c0,3.34.79,5.9,2.38,7.68,1.59,1.78,3.54,2.67,5.87,2.67s4.28-.89,5.86-2.67,2.36-4.36,2.36-7.74-.79-5.84-2.36-7.62-3.53-2.67-5.86-2.67-4.28.89-5.87,2.67c-1.59,1.78-2.38,4.34-2.38,7.68Z" style="fill:#039;"/><path d="m425.78,74.29v-8.92h17.52v8.92h-17.52Z" style="fill:#039;"/><path d="m444.54,52.99h4.95v-2.54c0-2.83.3-4.95.9-6.35.6-1.4,1.71-2.53,3.33-3.41,1.62-.88,3.67-1.32,6.14-1.32s5.02.38,7.46,1.14l-1.21,6.22c-1.42-.34-2.78-.51-4.09-.51s-2.22.3-2.78.91c-.56.6-.84,1.76-.84,3.48v2.38h6.67v7.01h-6.67v26.69h-8.92v-26.69h-4.95v-7.01Z" style="fill:#039;"/><path d="m492.27,86.7v-5.05c-1.23,1.8-2.84,3.22-4.84,4.25-2,1.04-4.11,1.55-6.33,1.55s-4.3-.5-6.09-1.49c-1.8-.99-3.1-2.39-3.9-4.19-.8-1.8-1.21-4.28-1.21-7.46v-21.33h8.92v15.49c0,4.74.16,7.64.49,8.71.33,1.07.92,1.92,1.79,2.54.87.62,1.97.94,3.3.94,1.52,0,2.89-.42,4.09-1.25,1.21-.83,2.03-1.87,2.47-3.11.45-1.24.67-4.27.67-9.09v-14.22h8.92v33.71h-8.28Z" style="fill:#039;"/><path d="m540.45,86.7h-8.92v-17.2c0-3.64-.19-5.99-.57-7.06s-1-1.9-1.86-2.49c-.86-.59-1.89-.89-3.09-.89-1.54,0-2.93.42-4.16,1.27-1.23.85-2.07,1.97-2.52,3.37-.46,1.4-.68,3.98-.68,7.74v15.27h-8.92v-33.71h8.28v4.95c2.94-3.81,6.64-5.71,11.11-5.71,1.97,0,3.77.35,5.4,1.06,1.63.71,2.86,1.61,3.7,2.71.84,1.1,1.42,2.35,1.75,3.75.33,1.4.49,3.4.49,6v20.95Z" style="fill:#039;"/><path d="m580.41,86.7h-8.28v-4.95c-1.38,1.93-3,3.36-4.87,4.3-1.87.94-3.76,1.41-5.67,1.41-3.87,0-7.19-1.56-9.95-4.68-2.76-3.12-4.14-7.47-4.14-13.06s1.34-10.05,4.03-13.03c2.69-2.97,6.08-4.46,10.19-4.46,3.77,0,7.02,1.57,9.78,4.7v-16.76h8.92v46.53Zm-23.8-17.58c0,3.6.5,6.2,1.49,7.81,1.44,2.33,3.45,3.49,6.03,3.49,2.05,0,3.8-.87,5.24-2.62,1.44-1.75,2.16-4.35,2.16-7.82,0-3.87-.7-6.66-2.09-8.36s-3.19-2.56-5.36-2.56-3.89.84-5.32,2.52c-1.43,1.68-2.14,4.2-2.14,7.54Z" style="fill:#039;"/><path d="m608.72,75.97l8.89,1.49c-1.14,3.26-2.95,5.74-5.41,7.44-2.47,1.7-5.55,2.55-9.25,2.55-5.86,0-10.2-1.92-13.01-5.74-2.22-3.07-3.33-6.94-3.33-11.62,0-5.59,1.46-9.96,4.38-13.12s6.61-4.75,11.08-4.75c5.01,0,8.97,1.66,11.87,4.97,2.9,3.31,4.28,8.38,4.16,15.22h-22.34c.06,2.65.78,4.7,2.16,6.17,1.38,1.47,3.09,2.21,5.14,2.21,1.4,0,2.57-.38,3.52-1.14s1.67-1.99,2.16-3.68Zm.51-9.01c-.06-2.58-.73-4.54-2-5.89-1.27-1.34-2.81-2.02-4.63-2.02-1.95,0-3.55.71-4.82,2.13-1.27,1.42-1.89,3.34-1.87,5.78h13.33Z" style="fill:#039;"/><path d="m656.26,86.7h-8.28v-4.95c-1.38,1.93-3,3.36-4.87,4.3-1.87.94-3.76,1.41-5.67,1.41-3.87,0-7.19-1.56-9.95-4.68-2.76-3.12-4.14-7.47-4.14-13.06s1.34-10.05,4.03-13.03c2.69-2.97,6.08-4.46,10.19-4.46,3.77,0,7.02,1.57,9.78,4.7v-16.76h8.92v46.53Zm-23.8-17.58c0,3.6.5,6.2,1.49,7.81,1.44,2.33,3.45,3.49,6.03,3.49,2.05,0,3.8-.87,5.24-2.62,1.44-1.75,2.16-4.35,2.16-7.82,0-3.87-.7-6.66-2.09-8.36s-3.19-2.56-5.36-2.56-3.89.84-5.32,2.52c-1.43,1.68-2.14,4.2-2.14,7.54Z" style="fill:#039;"/><path d="m682.73,86.7v-46.53h8.92v16.76c2.75-3.13,6.01-4.7,9.78-4.7,4.1,0,7.5,1.49,10.19,4.46,2.69,2.97,4.03,7.24,4.03,12.81s-1.37,10.19-4.11,13.3c-2.74,3.11-6.07,4.67-9.98,4.67-1.93,0-3.82-.48-5.7-1.44-1.87-.96-3.49-2.38-4.84-4.27v4.95h-8.28Zm8.85-17.58c0,3.49.55,6.07,1.65,7.74,1.54,2.37,3.6,3.55,6.16,3.55,1.97,0,3.64-.84,5.03-2.52,1.39-1.68,2.08-4.33,2.08-7.95,0-3.85-.7-6.63-2.09-8.33s-3.18-2.56-5.36-2.56-3.91.83-5.33,2.49c-1.42,1.66-2.13,4.18-2.13,7.57Z" style="fill:#039;"/><path d="m718.6,52.99h9.49l8.06,23.93,7.87-23.93h9.24l-11.9,32.44-2.13,5.87c-.78,1.97-1.53,3.47-2.24,4.51-.71,1.04-1.52,1.88-2.44,2.52-.92.65-2.05,1.15-3.4,1.51-1.34.36-2.86.54-4.55.54s-3.4-.18-5.05-.54l-.79-6.98c1.4.27,2.66.41,3.78.41,2.07,0,3.61-.61,4.6-1.83.99-1.22,1.76-2.77,2.29-4.65l-12.82-33.8Z" style="fill:#039;"/><path d="m355.61,130.99v7.11h-6.09v13.58c0,2.75.06,4.35.17,4.81.12.46.38.83.79,1.13.41.3.92.45,1.51.45.83,0,2.02-.29,3.59-.86l.76,6.92c-2.07.89-4.42,1.33-7.04,1.33-1.61,0-3.06-.27-4.35-.81-1.29-.54-2.24-1.24-2.84-2.09-.6-.86-1.02-2.02-1.25-3.47-.19-1.04-.29-3.13-.29-6.29v-14.69h-4.09v-7.11h4.09v-6.7l8.95-5.21v11.9h6.09Z" style="fill:#039;"/><path d="m370.68,118.17v17.11c2.88-3.36,6.32-5.05,10.31-5.05,2.05,0,3.9.38,5.55,1.14s2.89,1.74,3.73,2.92c.84,1.19,1.41,2.5,1.71,3.94.31,1.44.46,3.67.46,6.7v19.77h-8.92v-17.8c0-3.53-.17-5.78-.51-6.73-.34-.95-.94-1.71-1.79-2.27-.86-.56-1.93-.84-3.22-.84-1.48,0-2.8.36-3.97,1.08-1.16.72-2.01,1.8-2.55,3.25-.54,1.45-.81,3.59-.81,6.43v16.88h-8.92v-46.53h8.92Z" style="fill:#039;"/><path d="m421.02,153.97l8.89,1.49c-1.14,3.26-2.95,5.74-5.41,7.44-2.47,1.7-5.55,2.55-9.25,2.55-5.86,0-10.2-1.92-13.01-5.74-2.22-3.07-3.33-6.94-3.33-11.62,0-5.59,1.46-9.96,4.38-13.12s6.61-4.75,11.08-4.75c5.01,0,8.97,1.66,11.87,4.97,2.9,3.31,4.28,8.38,4.16,15.22h-22.34c.06,2.65.78,4.7,2.16,6.17,1.38,1.47,3.09,2.21,5.14,2.21,1.4,0,2.57-.38,3.52-1.14s1.67-1.99,2.16-3.68Zm.51-9.01c-.06-2.58-.73-4.54-2-5.89-1.27-1.34-2.81-2.02-4.63-2.02-1.95,0-3.55.71-4.82,2.13-1.27,1.42-1.89,3.34-1.87,5.78h13.33Z" style="fill:#039;"/><path d="m455.77,164.7v-46.53h34.5v7.87h-25.11v10.32h23.36v7.84h-23.36v12.66h25.99v7.84h-35.39Z" style="fill:#039;"/><path d="m521.25,164.7v-5.05c-1.23,1.8-2.84,3.22-4.84,4.25-2,1.04-4.11,1.55-6.33,1.55s-4.3-.5-6.09-1.49c-1.8-.99-3.1-2.39-3.9-4.19-.8-1.8-1.21-4.28-1.21-7.46v-21.33h8.92v15.49c0,4.74.16,7.64.49,8.71.33,1.07.92,1.92,1.79,2.54.87.62,1.97.94,3.3.94,1.52,0,2.89-.42,4.09-1.25,1.21-.83,2.03-1.87,2.47-3.11.45-1.24.67-4.27.67-9.09v-14.22h8.92v33.71h-8.28Z" style="fill:#039;"/><path d="m547.31,164.7h-8.92v-33.71h8.28v4.79c1.42-2.26,2.69-3.75,3.82-4.47,1.13-.72,2.42-1.08,3.86-1.08,2.03,0,3.99.56,5.87,1.68l-2.76,7.78c-1.5-.97-2.9-1.46-4.19-1.46s-2.31.34-3.17,1.03c-.87.69-1.55,1.93-2.05,3.73-.5,1.8-.75,5.57-.75,11.3v10.41Z" style="fill:#039;"/><path d="m562,147.37c0-2.96.73-5.83,2.19-8.6,1.46-2.77,3.53-4.89,6.2-6.35,2.68-1.46,5.67-2.19,8.97-2.19,5.1,0,9.28,1.66,12.54,4.97,3.26,3.31,4.89,7.5,4.89,12.55s-1.65,9.33-4.94,12.68-7.43,5.03-12.42,5.03c-3.09,0-6.04-.7-8.84-2.09s-4.94-3.44-6.39-6.14c-1.46-2.7-2.19-5.98-2.19-9.85Zm9.14.48c0,3.34.79,5.9,2.38,7.68,1.59,1.78,3.54,2.67,5.87,2.67s4.28-.89,5.86-2.67,2.36-4.36,2.36-7.74-.79-5.84-2.36-7.62-3.53-2.67-5.86-2.67-4.28.89-5.87,2.67c-1.59,1.78-2.38,4.34-2.38,7.68Z" style="fill:#039;"/><path d="m603.51,130.99h8.31v4.95c1.08-1.69,2.54-3.07,4.38-4.13,1.84-1.06,3.88-1.59,6.12-1.59,3.91,0,7.24,1.53,9.97,4.6,2.73,3.07,4.09,7.34,4.09,12.82s-1.38,10-4.13,13.12c-2.75,3.12-6.08,4.68-10,4.68-1.86,0-3.55-.37-5.06-1.11-1.51-.74-3.11-2.01-4.78-3.81v16.98h-8.92v-46.53Zm8.82,16.28c0,3.79.75,6.58,2.25,8.39,1.5,1.81,3.33,2.71,5.49,2.71s3.8-.83,5.17-2.49c1.38-1.66,2.06-4.38,2.06-8.17,0-3.53-.71-6.16-2.13-7.87-1.42-1.71-3.17-2.57-5.27-2.57s-3.99.84-5.43,2.52c-1.44,1.68-2.16,4.17-2.16,7.47Z" style="fill:#039;"/><path d="m662.99,153.97l8.89,1.49c-1.14,3.26-2.95,5.74-5.41,7.44-2.47,1.7-5.55,2.55-9.25,2.55-5.86,0-10.2-1.92-13.01-5.74-2.22-3.07-3.33-6.94-3.33-11.62,0-5.59,1.46-9.96,4.38-13.12s6.61-4.75,11.08-4.75c5.01,0,8.97,1.66,11.87,4.97,2.9,3.31,4.28,8.38,4.16,15.22h-22.34c.06,2.65.78,4.7,2.16,6.17,1.38,1.47,3.09,2.21,5.14,2.21,1.4,0,2.57-.38,3.52-1.14s1.67-1.99,2.16-3.68Zm.51-9.01c-.06-2.58-.73-4.54-2-5.89-1.27-1.34-2.81-2.02-4.63-2.02-1.95,0-3.55.71-4.82,2.13-1.27,1.42-1.89,3.34-1.87,5.78h13.33Z" style="fill:#039;"/><path d="m686.29,141.27l-8.09-1.46c.91-3.26,2.48-5.67,4.7-7.24,2.22-1.57,5.52-2.35,9.9-2.35,3.98,0,6.94.47,8.89,1.41,1.95.94,3.32,2.14,4.11,3.59.79,1.45,1.19,4.11,1.19,7.98l-.09,10.41c0,2.96.14,5.15.43,6.55.29,1.41.82,2.92,1.6,4.52h-8.82c-.23-.59-.52-1.47-.86-2.63-.15-.53-.25-.88-.32-1.05-1.52,1.48-3.15,2.59-4.89,3.33-1.73.74-3.59,1.11-5.55,1.11-3.47,0-6.21-.94-8.2-2.82-2-1.88-3-4.26-3-7.14,0-1.9.46-3.6,1.37-5.09.91-1.49,2.18-2.63,3.82-3.43,1.64-.79,4-1.49,7.09-2.08,4.17-.78,7.06-1.51,8.66-2.19v-.89c0-1.71-.42-2.94-1.27-3.67-.85-.73-2.44-1.1-4.79-1.1-1.59,0-2.83.31-3.71.94-.89.62-1.61,1.72-2.16,3.29Zm11.93,7.24c-1.14.38-2.95.84-5.43,1.36-2.48.53-4.09,1.05-4.86,1.56-1.16.83-1.75,1.87-1.75,3.14s.46,2.33,1.4,3.24c.93.91,2.12,1.36,3.55,1.36,1.61,0,3.14-.53,4.6-1.59,1.08-.8,1.79-1.79,2.13-2.95.23-.76.35-2.21.35-4.35v-1.78Z" style="fill:#039;"/><path d="m746.43,164.7h-8.92v-17.2c0-3.64-.19-5.99-.57-7.06s-1-1.9-1.86-2.49c-.86-.59-1.89-.89-3.09-.89-1.54,0-2.93.42-4.16,1.27-1.23.85-2.07,1.97-2.52,3.37-.46,1.4-.68,3.98-.68,7.74v15.27h-8.92v-33.71h8.28v4.95c2.94-3.81,6.64-5.71,11.11-5.71,1.97,0,3.77.35,5.4,1.06,1.63.71,2.86,1.61,3.7,2.71.84,1.1,1.42,2.35,1.75,3.75.33,1.4.49,3.4.49,6v20.95Z" style="fill:#039;"/><path d="m773.54,118.17h9.39v25.2c0,4,.12,6.59.35,7.78.4,1.9,1.36,3.43,2.87,4.59s3.58,1.73,6.21,1.73,4.68-.54,6.03-1.63c1.35-1.09,2.17-2.43,2.44-4.01.27-1.59.41-4.22.41-7.9v-25.74h9.39v24.44c0,5.59-.25,9.53-.76,11.84-.51,2.31-1.44,4.25-2.81,5.84-1.37,1.59-3.19,2.85-5.47,3.79s-5.27,1.41-8.95,1.41c-4.44,0-7.81-.51-10.11-1.54-2.3-1.03-4.11-2.36-5.44-4-1.33-1.64-2.21-3.36-2.63-5.16-.61-2.67-.92-6.6-.92-11.81v-24.82Z" style="fill:#039;"/><path d="m851.14,164.7h-8.92v-17.2c0-3.64-.19-5.99-.57-7.06s-1-1.9-1.86-2.49c-.86-.59-1.89-.89-3.09-.89-1.54,0-2.93.42-4.16,1.27-1.23.85-2.07,1.97-2.52,3.37-.46,1.4-.68,3.98-.68,7.74v15.27h-8.92v-33.71h8.28v4.95c2.94-3.81,6.64-5.71,11.11-5.71,1.97,0,3.77.35,5.4,1.06,1.63.71,2.86,1.61,3.7,2.71.84,1.1,1.42,2.35,1.75,3.75.33,1.4.49,3.4.49,6v20.95Z" style="fill:#039;"/><path d="m860.18,126.42v-8.25h8.92v8.25h-8.92Zm0,38.28v-33.71h8.92v33.71h-8.92Z" style="fill:#039;"/><path d="m876.18,147.37c0-2.96.73-5.83,2.19-8.6,1.46-2.77,3.53-4.89,6.2-6.35,2.68-1.46,5.67-2.19,8.97-2.19,5.1,0,9.28,1.66,12.54,4.97,3.26,3.31,4.89,7.5,4.89,12.55s-1.65,9.33-4.94,12.68-7.43,5.03-12.42,5.03c-3.09,0-6.04-.7-8.84-2.09s-4.94-3.44-6.39-6.14c-1.46-2.7-2.19-5.98-2.19-9.85Zm9.14.48c0,3.34.79,5.9,2.38,7.68,1.59,1.78,3.54,2.67,5.87,2.67s4.28-.89,5.86-2.67,2.36-4.36,2.36-7.74-.79-5.84-2.36-7.62-3.53-2.67-5.86-2.67-4.28.89-5.87,2.67c-1.59,1.78-2.38,4.34-2.38,7.68Z" style="fill:#039;"/><path d="m948.6,164.7h-8.92v-17.2c0-3.64-.19-5.99-.57-7.06s-1-1.9-1.86-2.49c-.86-.59-1.89-.89-3.09-.89-1.54,0-2.93.42-4.16,1.27-1.23.85-2.07,1.97-2.52,3.37-.46,1.4-.68,3.98-.68,7.74v15.27h-8.92v-33.71h8.28v4.95c2.94-3.81,6.64-5.71,11.11-5.71,1.97,0,3.77.35,5.4,1.06,1.63.71,2.86,1.61,3.7,2.71.84,1.1,1.42,2.35,1.75,3.75.33,1.4.49,3.4.49,6v20.95Z" style="fill:#039;"/></svg>