<?xml version="1.0" encoding="UTF-8"?><svg id="Layer_1" xmlns="http://www.w3.org/2000/svg" viewBox="0 0 4240 2298"><path d="m1144.9,1422.02c37.97,0,74.34-7.24,108.14-21.53,33.06-14,62.93-34.19,88.79-60.05,25.87-25.87,46.08-55.76,60.05-88.84,14.32-33.81,21.56-70.23,21.56-108.22s-7.23-74.41-21.56-108.23c-13.97-33.08-34.18-62.98-60.05-88.84-25.87-25.87-55.74-46.06-88.79-60.05-33.8-14.3-70.17-21.53-108.14-21.53s-74.35,7.24-108.14,21.53c-33.06,14-62.93,34.18-88.8,60.05-25.86,25.86-46.08,55.76-60.05,88.84-14.32,33.81-21.56,70.23-21.56,108.23s7.24,74.41,21.56,108.22c13.97,33.08,34.18,62.98,60.05,88.84,25.87,25.86,55.74,46.05,88.8,60.05,33.79,14.3,70.17,21.53,108.14,21.53m0,854.3c-625.65,0-1132.85-507.24-1132.85-1132.95S519.25,10.42,1144.9,10.42s1132.84,507.24,1132.84,1132.95-507.2,1132.95-1132.84,1132.95h0Z" style="fill:#39b54a;"/><path d="m758.06,1432.69c-30.78,15.18-62.85,26.99-96.22,35.44-33.38,8.45-68.27,12.68-104.68,12.68-86.25,0-151.71-27.96-196.34-83.87-44.65-55.92-66.97-138.92-66.97-249.03,0-52.44,6.06-99.16,18.2-140.12,12.13-40.96,29.47-75.64,52.02-104.03,22.53-28.39,49.95-50.07,82.25-65.02,32.28-14.96,68.37-22.43,108.25-22.43s74.98,4.45,107.93,13.33c32.93,8.89,64.79,21.78,95.57,38.68v-113.79c-31.21-13.86-63.72-24.16-97.52-30.88-33.81-6.71-70.44-10.08-109.88-10.08-58.09,0-110.53,10.4-157.34,31.21-46.81,20.81-86.69,50.39-119.62,88.75-32.95,38.36-58.3,85.08-76.07,140.12-17.78,55.05-26.66,116.61-26.66,184.66,0,140.45,32.18,246.54,96.54,318.27,64.37,71.75,156.58,107.61,276.64,107.61,74.54,0,145.85-14.08,213.9-42.27v-109.24h0Z"/><polygon points="2049.58 733.55 1429.34 733.55 1429.34 832.39 1680.95 832.39 1680.95 1583.38 1797.97 1583.38 1797.97 832.39 2049.58 832.39 2049.58 733.55 2049.58 733.55"/><path d="m3912.3,290.13c152.67,0,276.42,123.77,276.42,276.44s-123.75,276.45-276.42,276.45-276.42-123.77-276.42-276.45,123.76-276.44,276.42-276.44h0Z" style="fill:#47ae4c; fill-rule:evenodd;"/><path d="m3888.3,1489.1h-214.55v94.28h523.37v-94.28h-194.39v-558.53h-307.52v93.63h193.09v464.9h0Z"/><polygon points="2843.59 1484.54 2476.26 1484.54 2476.26 1191.95 2829.29 1191.95 2829.29 1094.42 2476.26 1094.42 2476.26 831.09 2843.59 831.09 2843.59 733.55 2360.53 733.55 2360.53 1583.38 2843.59 1583.38 2843.59 1484.54 2843.59 1484.54"/><path d="m3522.84,835.96c-65.24-68.27-164.16-102.41-296.79-102.41h-219.1v849.83h182.04c54.18,0,102.5-5.09,144.98-15.28,42.48-10.18,79.75-24.59,111.83-43.24,32.07-18.63,59.16-41.06,81.27-67.3,22.11-26.22,40.08-55.37,53.96-87.45,13.87-32.08,23.94-66.75,30.23-104.04,6.28-37.28,9.43-76.29,9.43-117.04,0-140.45-32.62-244.8-97.85-313.07h0Zm-313.69,647.28h-86.47v-652.16h99.48c46.81,0,87.54,5.75,122.23,17.23,34.67,11.49,63.49,30.02,86.47,55.6,22.97,25.58,40.08,59.17,51.36,100.78,11.26,41.61,16.9,92.55,16.9,152.8,0,217.17-96.66,325.75-289.96,325.75h0Z"/></svg>